<mxfile host="app.diagrams.net" modified="2021-05-05T15:27:57.411Z" agent="5.0 (Macintosh; Intel Mac OS X 10_15_6) AppleWebKit/605.1.15 (KHTML, like Gecko) Version/14.0.3 Safari/605.1.15" etag="SJxUxj0GWvJq3zeBcfp2" version="14.6.9" type="github">
  <diagram id="SNGEM7Mpx5pkv2iMX5t3" name="Page-1">
    <mxGraphModel dx="1878" dy="831" grid="1" gridSize="10" guides="1" tooltips="1" connect="1" arrows="1" fold="1" page="1" pageScale="1" pageWidth="827" pageHeight="1169" math="0" shadow="0">
      <root>
        <mxCell id="0" />
        <mxCell id="1" parent="0" />
        <mxCell id="BkMy28ecUS5TTP7sYMBF-15" value="" style="rounded=1;whiteSpace=wrap;html=1;absoluteArcSize=1;arcSize=14;strokeWidth=2;" vertex="1" parent="1">
          <mxGeometry x="200" y="200" width="140" height="280" as="geometry" />
        </mxCell>
        <mxCell id="BkMy28ecUS5TTP7sYMBF-3" value="" style="rounded=1;whiteSpace=wrap;html=1;absoluteArcSize=1;arcSize=14;strokeWidth=2;" vertex="1" parent="1">
          <mxGeometry x="30" y="200" width="140" height="280" as="geometry" />
        </mxCell>
        <mxCell id="BkMy28ecUS5TTP7sYMBF-5" value="&lt;font style=&quot;font-size: 10px&quot;&gt;Launch Screen&lt;/font&gt;" style="html=1;whiteSpace=wrap;container=1;recursiveResize=0;collapsible=0;" vertex="1" parent="1">
          <mxGeometry x="42.5" y="485" width="115" height="30" as="geometry" />
        </mxCell>
        <mxCell id="BkMy28ecUS5TTP7sYMBF-7" value="" style="shape=image;verticalLabelPosition=bottom;labelBackgroundColor=#ffffff;verticalAlign=top;aspect=fixed;imageAspect=0;image=data:image/png,iVBORw0KGgoAAAANSUhEUgAAATgAAAE+CAYAAAAZJgx3AAAMbGlDQ1BJQ0MgUHJvZmlsZQAASImVVwdYU8kWnluSkJDQAghICb0jnQBSQmgBpHcbIQkklBgTgoq9LCq4dhHFiq6KKFhWQOzYlUWx98WCirIu6mJD5U1IQNd95Xvn++beP2fO/Kfcmdx7AND8wJVIClAtAArFRdLEiBBGekYmg9QJcIABHeAEbLk8mYQVHx8DoAze/y7vbgBEcb/qrOD65/x/FR2+QMYDABkDcTZfxiuE+DgA+DqeRFoEAFGht5xUJFHgWRDrSmGAEK9U4Fwl3qHA2Up8eMAmOZEN8WUA1KhcrjQXAI17UM8o5uVCHo3PELuK+SIxAJpOEAfyhFw+xIrYnQoLJyhwJcR20F4CMYwHMLO/48z9G3/2ED+XmzuElXkNiFqoSCYp4E75P0vzv6WwQD7owwYOqlAamajIH9bwVv6EaAWmQtwtzo6NU9Qa4g8ivrLuAKAUoTwyRWmPGvNkbFg/oA+xK58bGg2xMcTh4oLYGJU+O0cUzoEY7hZ0sqiIkwyxAcQLBLKwJJXNJumERJUvtCFHymap9Oe40gG/Cl8P5PkpLBX/G6GAo+LHNEqEyWkQUyC2KhalxkKsAbGLLD8pWmUzskTIjh20kcoTFfFbQZwoEEeEKPmx4hxpeKLKvqxQNpgvtkko4sSq8L4iYXKksj7YKR53IH6YC3ZZIGalDPIIZOkxg7nwBaFhytyx5wJxSpKK54OkKCRRuRanSAriVfa4haAgQqG3gNhTVpykWounFsHNqeTHcyRF8cnKOPGSPG5UvDIefCmIAWwQChhADkc2mADygKitu7Eb/lLOhAMukIJcIADOKs3girSBGTG8JoES8AdEAiAbWhcyMCsAxVD/ZUirvDqDnIHZ4oEV+eApxIUgGhTA3/KBVeIhb6ngCdSI/uGdCwcPxlsAh2L+3+sHtd80LKiJUWnkgx4ZmoOWxDBiKDGSGE60x43wQNwfj4HXYDjccSbuO5jHN3vCU0I74RHhOqGDcHu8aI70hyhHgQ7IH66qRfb3tcBtIKcXHoIHQHbIjOvjRsAZ94R+WHgQ9OwFtWxV3IqqMH7g/lsG3z0NlR3ZlYySh5GDyXY/rtRw0PAaYlHU+vv6KGPNHqo3e2jmR//s76rPh/foHy2xBdh+7Cx2AjuPHcYaAQM7hjVhrdgRBR7aXU8Gdtegt8SBePIhj+gf/rgqn4pKylxrXbtcPyvnigSTixQHjz1BMkUqyhUWMVjw7SBgcMQ8FyeGu6u7GwCKd43y7+ttwsA7BNFv/aab+zsAAcf6+/sPfdNFHQNgrw88/ge/6eyYAGirA3DuIE8uLVbqcMWFAP8lNOFJMwSmwBLYwXzcgTfwB8EgDESBOJAMMsA4WGUh3OdSMAlMA7NBKSgHS8EqsBZsBFvADrAb7AON4DA4Ac6Ai+AyuA7uwt3TCV6CHvAO9CEIQkJoCB0xRMwQa8QRcUeYSCAShsQgiUgGkoXkImJEjkxD5iLlyHJkLbIZqUH2IgeRE8h5pB25jTxEupA3yCcUQ6moLmqC2qAjUCbKQqPRZHQsmotOREvQeehitBKtRnehDegJ9CJ6He1AX6K9GMDUMX3MHHPGmBgbi8MysRxMis3AyrAKrBqrw5rhc76KdWDd2EeciNNxBu4Md3AknoLz8In4DHwRvhbfgTfgp/Cr+EO8B/9KoBGMCY4EPwKHkE7IJUwilBIqCNsIBwin4VnqJLwjEon6RFuiDzyLGcQ84lTiIuJ6Yj3xOLGd+JjYSyKRDEmOpABSHIlLKiKVktaQdpGOka6QOkkf1NTVzNTc1cLVMtXEanPUKtR2qh1Vu6L2TK2PrEW2JvuR48h88hTyEvJWcjP5ErmT3EfRpthSAijJlDzKbEolpY5ymnKP8lZdXd1C3Vc9QV2kPku9Un2P+jn1h+ofqTpUByqbOoYqpy6mbqcep96mvqXRaDa0YFomrYi2mFZDO0l7QPugQddw0eBo8DVmalRpNGhc0XilSda01mRpjtMs0azQ3K95SbNbi6xlo8XW4mrN0KrSOqh1U6tXm67tph2nXai9SHun9nnt5zokHRudMB2+zjydLTondR7TMbolnU3n0efSt9JP0zt1ibq2uhzdPN1y3d26bbo9ejp6nnqpepP1qvSO6HXoY/o2+hz9Av0l+vv0b+h/GmYyjDVMMGzhsLphV4a9NxhuEGwgMCgzqDe4bvDJkGEYZphvuMyw0fC+EW7kYJRgNMlog9Fpo+7husP9h/OGlw3fN/yOMWrsYJxoPNV4i3Grca+JqUmEicRkjclJk25TfdNg0zzTlaZHTbvM6GaBZiKzlWbHzF4w9BgsRgGjknGK0WNubB5pLjffbN5m3mdha5FiMcei3uK+JcWSaZljudKyxbLHysxqlNU0q1qrO9Zka6a10Hq19Vnr9za2Nmk2820abZ7bGthybEtsa23v2dHsguwm2lXbXbMn2jPt8+3X2192QB28HIQOVQ6XHFFHb0eR43rHdieCk6+T2Kna6aYz1ZnlXOxc6/zQRd8lxmWOS6PLqxFWIzJHLBtxdsRXVy/XAtetrnfddNyi3Oa4Nbu9cXdw57lXuV/zoHmEe8z0aPJ47enoKfDc4HnLi+41ymu+V4vXF28fb6l3nXeXj5VPls86n5tMXWY8cxHznC/BN8R3pu9h349+3n5Ffvv8/vR39s/33+n/fKTtSMHIrSMfB1gEcAM2B3QEMgKzAjcFdgSZB3GDqoMeBVsG84O3BT9j2bPyWLtYr0JcQ6QhB0Les/3Y09nHQ7HQiNCy0LYwnbCUsLVhD8ItwnPDa8N7IrwipkYcjyRERkcui7zJMeHwODWcniifqOlRp6Kp0UnRa6MfxTjESGOaR6GjokatGHUv1jpWHNsYB+I4cSvi7sfbxk+MP5RATIhPqEp4muiWOC3xbBI9aXzSzqR3ySHJS5LvptilyFNaUjVTx6TWpL5PC01bntaRPiJ9evrFDKMMUUZTJikzNXNbZu/osNGrRneO8RpTOubGWNuxk8eeH2c0rmDckfGa47nj92cRstKydmZ95sZxq7m92Zzsddk9PDZvNe8lP5i/kt8lCBAsFzzLCchZnvM8NyB3RW6XMEhYIewWsUVrRa/zIvM25r3Pj8vfnt9fkFZQX6hWmFV4UKwjzhefmmA6YfKEdomjpFTSMdFv4qqJPdJo6TYZIhsrayrShR/1rXI7+U/yh8WBxVXFHyalTto/WXuyeHLrFIcpC6c8Kwkv+WUqPpU3tWWa+bTZ0x5OZ03fPAOZkT2jZablzHkzO2dFzNoxmzI7f/Zvc1znLJ/z19y0uc3zTObNmvf4p4ifaks1SqWlN+f7z9+4AF8gWtC20GPhmoVfy/hlF8pdyyvKPy/iLbrws9vPlT/3L85Z3LbEe8mGpcSl4qU3lgUt27Fce3nJ8scrRq1oWMlYWbbyr1XjV52v8KzYuJqyWr66ozKmsmmN1Zqlaz6vFa69XhVSVb/OeN3Cde/X89df2RC8oW6jycbyjZ82iTbd2hyxuaHaprpiC3FL8ZanW1O3nv2F+UvNNqNt5du+bBdv79iRuONUjU9NzU7jnUtq0Vp5bdeuMbsu7w7d3VTnXLe5Xr++fA/YI9/zYm/W3hv7ove17Gfur/vV+td1B+gHyhqQhikNPY3Cxo6mjKb2g1EHW5r9mw8ccjm0/bD54aojekeWHKUcnXe0/1jJsd7jkuPdJ3JPPG4Z33L3ZPrJa6cSTrWdjj597kz4mZNnWWePnQs4d/i83/mDF5gXGi96X2xo9Wo98JvXbwfavNsaLvlcarrse7m5fWT70StBV05cDb165hrn2sXrsdfbb6TcuHVzzM2OW/xbz28X3H59p/hO391Z9wj3yu5r3a94YPyg+nf73+s7vDuOPAx92Poo6dHdx7zHL5/InnzunPeU9rTimdmzmufuzw93hXddfjH6RedLycu+7tI/tP9Y98ru1a9/Bv/Z2pPe0/la+rr/zaK3hm+3/+X5V0tvfO+Dd4Xv+t6XfTD8sOMj8+PZT2mfnvVN+kz6XPnF/kvz1+iv9/oL+/slXCl34FMAgwPNyQHgzXYAaBkA0GHfRhmt7AUHBFH2rwMI/Ces7BcHxBuAOvj9ntANv25uArBnK2y/IL8m7FXjaQAk+wLUw2NoqESW4+Gu5KLCPoXwoL//LezZSCsA+LK0v7+vur//yxYYLOwdj4uVPahCiLBn2DTyS3ZhNvg3ouxPv8vxxztQROAJfrz/C2d/kMYqRsnzAAAAlmVYSWZNTQAqAAAACAAFARIAAwAAAAEAAQAAARoABQAAAAEAAABKARsABQAAAAEAAABSASgAAwAAAAEAAgAAh2kABAAAAAEAAABaAAAAAAAAAJAAAAABAAAAkAAAAAEAA5KGAAcAAAASAAAAhKACAAQAAAABAAABOKADAAQAAAABAAABPgAAAABBU0NJSQAAAFNjcmVlbnNob3SLo2cQAAAACXBIWXMAABYlAAAWJQFJUiTwAAAC22lUWHRYTUw6Y29tLmFkb2JlLnhtcAAAAAAAPHg6eG1wbWV0YSB4bWxuczp4PSJhZG9iZTpuczptZXRhLyIgeDp4bXB0az0iWE1QIENvcmUgNi4wLjAiPgogICA8cmRmOlJERiB4bWxuczpyZGY9Imh0dHA6Ly93d3cudzMub3JnLzE5OTkvMDIvMjItcmRmLXN5bnRheC1ucyMiPgogICAgICA8cmRmOkRlc2NyaXB0aW9uIHJkZjphYm91dD0iIgogICAgICAgICAgICB4bWxuczpleGlmPSJodHRwOi8vbnMuYWRvYmUuY29tL2V4aWYvMS4wLyIKICAgICAgICAgICAgeG1sbnM6dGlmZj0iaHR0cDovL25zLmFkb2JlLmNvbS90aWZmLzEuMC8iPgogICAgICAgICA8ZXhpZjpVc2VyQ29tbWVudD5TY3JlZW5zaG90PC9leGlmOlVzZXJDb21tZW50PgogICAgICAgICA8ZXhpZjpQaXhlbFhEaW1lbnNpb24+MzEyPC9leGlmOlBpeGVsWERpbWVuc2lvbj4KICAgICAgICAgPGV4aWY6UGl4ZWxZRGltZW5zaW9uPjMxODwvZXhpZjpQaXhlbFlEaW1lbnNpb24+CiAgICAgICAgIDx0aWZmOlJlc29sdXRpb25Vbml0PjI8L3RpZmY6UmVzb2x1dGlvblVuaXQ+CiAgICAgICAgIDx0aWZmOlhSZXNvbHV0aW9uPjE0NC8xPC90aWZmOlhSZXNvbHV0aW9uPgogICAgICAgICA8dGlmZjpZUmVzb2x1dGlvbj4xNDQvMTwvdGlmZjpZUmVzb2x1dGlvbj4KICAgICAgICAgPHRpZmY6T3JpZW50YXRpb24+MTwvdGlmZjpPcmllbnRhdGlvbj4KICAgICAgPC9yZGY6RGVzY3JpcHRpb24+CiAgIDwvcmRmOlJERj4KPC94OnhtcG1ldGE+Ct2UJYIAAEAASURBVHgB7L35s2XJcR7W3TODwTJYJFJYSJmwJIK21ghLP9jWggj/6SYpyaEIK8KSJQVFajElEgRFUBhimxnMdPtb8svKOve+13tPd79T3a8qKzMrs/KrrDrnnnvve/cfody7Usi8P/lgPAIjPI66Xx3rjhEh1T669wijMs4mozAd7PSFBhin/xP/5NGZf+f+e5Lz50GOFR5Ds9w/nnvIrCSX9O4vffOHNDK143DLEJ5UKmHg8Dr9FyZuTvxXbggRpEyyxv0lN39Iz/xLEqG92/vv/qOHOMlGbhAZpk5YvMG7X0fl5FNvlgvZgXHoaqh4VwSTdfo/8T/zz7tx7ou590hfyA6MQ/fO7L8HfZJ1yOtwI2xJLtHSGRVRq5ID0VCjFgMKpbPkGFB3h+LtAllbrNP/iX+yAbmQZEt75l+QGNgYlHP/ERrkDJ/BoWwHmVGrdCJe9VIz+ZREk2i7dpjj8aPWQFR50TxEJE//J/7zIHd6nPknHLSlvK+0jcA8958zZKGyI2Kpax1wPqOG+hHJOeIGehuydS4HXIjJGIdoHqH0Sl6auOBsNrfOhWpuKpf50/+J/5l/3ITrKOC2yblxuYUuONuW2zoXqq90/z3QXBSIo1GIJNWltGa7Nz1rs/3yYTuYbM56UJpvItCHxcVVx5zTP8AiFIKD6BrhQ3PiXwgYnTP/lDKVKit/Fkh3df/hDu4hYBknt8+Z3kAkiNsV9qZzW2cbPxdBgyxVvSkuizewl8JjqG08OywdkKWqN0Wrsb6BvRQeQ23j2WE5/RuHQlcYbUCVGM0N7KXwGGobzw7Lib9xeMvxx8dEvNJ1h15B701/ZAHJkfzYNW7ureQad2udXBx3+hcKC6gLME/8K+vQFHWB0U2MBeuZf8KO2+0O7b/7+JRIfyptSxK+0ykgNjRaZSVOsxYhJKt7dXiNRkPn11UglOCq9Par+ul/rcVV+E78lVxn/r31+++BX5zWftgOBu6MTYp+KaDRvpn6a0tBaIWcnBdqEcDI5mEq6h3XTXr6P/F3ljm9Oh1n6ok+808bNNtsbivhE8Ed2H/rDo4o8NRKKySuV1a5WfFScuSsflMh0l53La5Vbla8lBw5q99UiLSn/xsRMEQ3A3UpOXJWv6kQaW/0nhS9WfFScuSsflMh0p7+b0TAEN0M1KXkyFn9pkKkvdH7060/7uCqhOi3QumJPyxoB2nVG+6uoBhTHst6cWwGfRFDNyqn/4KNAA3QB2moTvwDiQFLb+RUIXnmXzZXMuru7L/6qhaTY4HQeTGI6xrhph0DQK4P8PIB7/6dON4ly6OGXh8/rV3XCDftHHH6P/FH1ulRx5l/d3b/YRPoi1N9vPVZ0cR+alzpRVPvS8BQ2laNQjN2YhN3p4ld+UovmvGbtlWj0Iyd2MTdaWJXvtKLZvymbdUoNGMnNnF3mtiVr/SiGb9pWzUKzdiJTdydJnblK71oxm/aVo1CM3ZiE3eniV35Si+a8Zu2VaPQjJ3YxN1pYle+0otm/KZt1Sg0Yyc2cXea2JWv9KIZv2lbNQrN2IlN3J0mduUrvWjGb9pWjUIzdmITd6eJXflKL5rxm5aq+m0ifbiB4eePGWJr7EFSnWrdU53x+SZW2hrQN4caiepoIeOpf/oXCqgWKsarUOPqHUo0g3taq0G/FDQS1dFCxlP/xF8ooFqoGK9C7cSfAG0lSCXv0loJuH2O+eevavV0uYhjNiIHD9LZy0kp3hS0vRC3CqO0W+8hTUhv9k7/WC2skTCZwAxETd4qHNpDr8kmTvyBwETjzL/XP/8OB9xhAbGgddyNTRDSSz0XPJJr7VFb/SuDJ2vSlzYtvV1njTpqq39l8GRNelkKZentOtENrktb1Oq24mRNuhWasPR2nVaujbm0Ra1uK07WpFuhCUtv12nl0z+g8NtC3lHC7Qp4kzXphWQoS2/Xie7dzb/xCy8NxjzQshQE0RBZR9mqo+/aO1YH3RpiW6xtTYs9nJm7H6inf2N54n/IKQHiXBopVJl20C2u9TyGrDP/AOIA723dfzjgHFrHmkiLTxRWcmzZAo0eBUF9FUYq4LcdMtCp/vreRMZakF70esDp/8Q/OaUWVSXLmX+9a7TH1pYDf3UkS/+u7b/+Lmoj0smTbJoHV3hu+yNr6uYgLEsDeyViYX6/Bi38o1ic07/QXPic+C8szvybCJz7b0Mj1z2f5XWO6CWq3xjiTftKpft+Ow0W9gNIGlGTCB0bOJ6RGEvZsmBLs/YET//E4cT/zL9sLGTDuf98ODzn+aMDLm/rrnuwsn1wwa6OJ1w6tBSqwFkGoDHSlIukAWvhxsCyPodLufkhJlf06X/ACERO/J0qSo4z/3q3nfvPn4NzdhiWBgfJ0rQIZU/OnDro0JXMmqz5crQ1+x5aj3Q11hem1mh78WZLYJ/+T/yTHUqKPWfUYyWZs4b1mX/n/utMwfnjl6hKJLCRIS0Er38PmUXSckINLZFWINkS5Vz3/BvJlX4044Tcm2XDjk7/J/6VJ04Np8Uhr5xwK3c64w56vtbmbYkz/wTmBsPC8G3af+tzcPnUYqKrlhgwadIexOou2aKOepJciAfj9A+ge3s2fEEobQsGsWSLGmKRklyIB+PE/8T/Lcy/dcDNHTHyfu2OqRD6qHj7QZhRPC0f4ZI6bqZbJOJo9thv7UvBJaeVFwGl0/+J/5l/lxfUt23/6SVq73xufHYSt9/eXP1WLKLf6alxGJ2h0pAxUGpZrQfATK6Iy5r0xIuR07+hCR4NVBEn/o2Ic+nMvy1VssHUsrp7+893cIx9Q8Zn0mINhUF2dj0rEVtph52dNXqDHOrPRsZW2mFlZ43eIIf6s5GxlXZY2VmjN8ih/mxkbKUdVnbW6A1yqD8bGVtph5WdNXqDHOrPRsZW2mFlZ43eIIf6s5GxlXZY2VmjN8ih/mxkbKUdVnbW6A1yqD8bGVtph5WdNXqDHOo3kr6DWydZKR6uhDz9aJjlqCt+hJA32USzFqfUYiutHLA6/e+QoBfwdkHxIzzxb5wW0dRAybxgmfbMv0Lg7dl/OOBw2zpW3uS+4uKBNdSavvjYRw8NscCaL0ojPf2f+J/51ydr7au1Oyg59x9AACTPcv6MNxk4vKzoPfWAPPmBOzL2n66UNc2Wh+OyNP20FoxPPn1N2dP53kbDzOn/xP/Mv+yhuc/mHpv8bQdl4FO1bRnEq9h/402GWmo1N91rMRbrXV51OfUqIdWuB5uU1mgR5bEGVU/N6T8QBjGCZF4huBSKf8GoASf+A5kz/7TbgAjSqHbcW73/+oDbtwGCnycYITgC4k9OChwDNeCKrO4EW5JM8+tajA2D1KLl7vQvbLs68d83ZHIMAJ35px3TqVKfqucmFjp3ef/VH51Z2JAyLOatP1yy8/cRV2TTyMFmxkrloEfZZJ3+8QyzPoA5cQmGaS9kB8ahq2HiXRFM1on/if+bnH8P9ssiUztXRFJrcUWTNYvVxemrRN2J+SYNCqWz5FCvuzPxdsGFrYB7+l9v1vQSnPg3FCuNDMqZf4Tm3H96k2FepftEysnHfKlb3eynJJNEOsF2TmddCA1EdeWrIFQ5/e8XEsNWmArkhTRlO9qWecykzVFNNtfpxH+Assgz/97e/Bsf9PXmUK0NgQTITlq5cCO1Ddk6l0MuxGSMQ7Qfr5z+L8G7gbNhunUuB1yIT/zP/HtL998DJbsOEp8mev+SpLqU1nbYm941Zvvl03Yw2Zz1oDTfRKAPi4urjjmnf4BFKAQH0TXCh+bEvxAwOmf+KWUqVVb+LJDu6v7DHdxDwOKPZdQh3psnBHHz8RPO07Xb+LkIMmOp6k1x+biBvRQeQ23j2WHpgCxVvSlajfUN7KXwGGobzw7L6d84FLrCaAOqxGhuYC+Fx1DbeHZYTvyNw1uOPz4m4pW+6XBTLuQjG0iO5Eeh89hmJde4W+vkknXZOP0Dhg2XBW1/ZOfE/8y/lRZPRN31/Xf/IZ6wXt1XPNQkuCq9/apKVFOuDi/Y0dD5dZXT/4k/k+hqdpz5dyMyEJz7j4mj8sAvTqu3AcPE2qTol0LOnqlfJtTwdgzDc3JeqEUAnc3DVNQ7fpv09H/i7yxzenU6ztQ78w8InPuvz591B8fDhWdaWmXK9coqNyteSo6c1W8qRNrrrsW1ys2Kl5IjZ/WbCpH29H8jAoboZqAuJUfO6jcVIu2N3pOiNyteSo6c1W8qRNrT/40IGKKbgbqUHDmr31SItDd6f7r1xx1clRB6GEYePfGHBe0grXrD3RUUY8pjWS+OzaAvYuhG5fRfsBGgAfogDdWJfyAxYOmNnCokz/zL5kpG3Z39V1/VYnIsEDovBnFdI9y0YwDI9QFKvsEwfkE01PvZm4ZeHz+tXdcIN+0ccfo/8UfW6VHHmX93dv9hE+g90j7e+qxoYj81rvSiqfcleHEAY/vQfBSujCVrE3eniRtGLXY04zdta0ShGTuxibvTxK58pRfN+E3bqlFoxk5s4u40sStf6UUzftO2ahSasRObuDtN7MpXetGM37StGoVm7MQm7k4Tu/KVXjTjN22rRqEZO7GJu9PErnylF834TduqUWjGTmzi7jSxK1/pRTN+07ZqFJqxE5u4O03syld60YzftK0ahWbsxCbuThO78pVeNOM3LVX120T6cAPDz/8zxNbY8zHExj2xqsr4HGppLYZ+KWgkqqOFjKf+6V8ooFqoGK9C7cSfAG0lSCXv0loJuJ35JyiUQagqkxrD4EfG27b//FWtDpWhj2wQOXgEYGn0nZp4U9D2QtwqjBLaoddkE9KbvZzU4k3BsGjyVuHQHnpNNnH6BwITjRN/7BbsEWEygRkZZfJW4dAeek02Ib3ZO/F/PP6HA+6QwIB0nu5jJUAa6gn4Lt97R231rwyerEnv1tiz9HadNeqorf6VwZM16WUplKW360T3crYad2XwZE16WQpl6e060T39H9FS/wp4kzXphWQoS2/Xie6J/xEt9a+AN1mTXkiGsvR2nXqJyiFUZJkHmul8iy0aUBJJ6bV3rGhl6LKLYlse4z50zJQ8IwarxKd/YxOEAJdIYznxEpAbmotjPY8hV+/BjsGxPlgn/oXliT+BSIaEdC7NfBFcqoZuMa3nMWS9qvzDMzhPpifacwuRdz9bow+m/XjLQeTpTzzko8yt703E3um/EGOT5RjEib8zJfkCaIo8829ggg2XHSuAVse5dEf3X38XtXdWJw9wUZnAhee2P7KmbjZiWRrYKxHRJ8b3a9DCP4rFOf0LzYXPif/CwnmX+sy/IMH23H/bSVIdvYvqN+Z407hS6b7fThFwhtEy1VGTEXRs4HhGYhhlfcGtC689ZzK0ffonCif+Z/5lYyEbzv3HTYGSk8LYqA5MT3D++GMiZWNdA2w6dVy0O1w6lyNI8758OYz//dO8ZW0NjPkxfHpqcYd4+q/lPvE/84+bQXvp3H/jABEo8/zRAUesCi1jxi5wW4rFYFNFRxGrcWCR5MtRyajXryH0SJGc+pxNa4jnyt7aJ1SaFrGPUY+VZNZkffo/8e9MOfOv9tfd3X9+iSoYkBY4ITo5wOvfQ2aRwdJZMrREWoFkSw56zrU8FpawTzD3lg07Ov2f+FeeODXO/CMCh33lDbf2zrn/6vQonNbn4PKpwZKnoR5BSxv+bJdsUVNOWpIL8WCc/gF0p2fDF4TStmAQS7aoIRYpyYV4ME78T/zfwvxbB9zcESPv1+6YCqGPircfhBnF0+4RbunGi6kWiTiaPfZb+1JwyWnlRUDp9H/if+bf5QX1bdt/4xkcQuPGZ4SJ229vrr6iH1W/01PjMDpDpSVjoNSyWu+TMbkibotgiBcjp39DEzwaqCJO/BsR59KZf1uqZIOpZXX39p/v4Bj7howPmsUaCoPs7HpWIrbSDjs7a/QGOdSfjYyttMPKzhq9QQ71ZyNjK+2wsrNGb5BD/dnI2Eo7rOys0RvkUH82MrbSDis7a/QGOdSfjYyttMPKzhq9QQ71ZyNjK+2wsrNGb5BD/dnI2Eo7rOys0RvkUH82MrbSDis7a/QGOdRvJH0Ht06yUjxcCXn60TDLUVf8CCFvsolmLU6pxVZaOWB1+t8hQS/g7YLiR3ji3zgtoqmBknnBMu2Zf4XA27P/cMDhtnWsvMl9xcUDa6g17VdJQ7/JEAus+aI00tP/if+Zf32y1r5au4OSc/8BBEDyLOfPeJOBw8uKPtMRkCc/cEfG/tOVsqbZ8nBclqaf1oLxyaevKXs639tomDn9n/if+Zc9NPfZ3GOTv+2gDHyqti2DeBX7b7zJUEut5qZ7LcZivcurLqdeJaTa9WCT0hotojzWoOqpOf0HwiBGkMwrBJdC8S8YNeDEfyBz5p92GxBBGtWOe6v3Xx9w+zZA8PMEIwRHQPpT4gFqwBVZ3Qm2JJnm17UwGgapRcvd6Z8wrHLiv2/I5BgQcn51ljF5jduZf0KnkckWu0P7r/7ozNpHpIhDQFl/uGTn7yOuyKaRg82MlcpBj7LJOv3jGWZ9AHPiEgzTXsgOjENXw8S7IpisE/8T/zc5/x70SdYpvw43HjUJTnR2U1ruhCo5EH08oRYDCqWz5BhQd2fi7QJZW6zT/4l/sgG5kGRLe+ZfkBjYGJRz/xEa5Ayu0CzbQWbUKp2IV93qJ5+SaBLt91tU9vBZayCqK18Fodrp/8R/HuROnTP/hIM22dpp5GWHLe7OMX6jpiL36R3cf+ODvgMuAQJMgtvA6iZyG7J1LkdciMkYh2geoZz+L7G7ibNhunUuR1yIT/zP/HtL99/9h7h92s8xZXvtirEVij2lVHL/BmH2FsT7dz9jhW8tHL8RGFmss8UMb3Bh9g3C078RADyvCv+f/PQn8smcYmL9+L9/qLW78I+7Cb6R9bVvfMPXMd5doP/Vr36AkRzNwnVloWxrxGVl9g3CaEF84V8+zvx72/ffg3wggynifEpykUG6NIo9pdHohDwKqYDCRO9jjI76SF3fSD39ExeiNUEk/Wbin/VkBHP9eaPw6JE+X45wx/rzuexbFD9XMmXGrxjP/C9oxvqT8xLWH5nmDVV3qFmTre2PjCQHN+ntHc7ZHuqDIN6zY9Dpn2C8Vfh7SbXGD+sY490Z97U2u4KFuBJaKUG6P7SkoV2d+SeghFdRjc3jCOp7Oe7m/nvQgI2kFGi8ojoDgVAJ0UStx11DOEPRRp/Uoms0mqKmoi2e/t9c/B966vy7Al5zv4mSc22tujcd7+RGcpzrTwTO/HcSEYvnOX8ePXq4jiGeNusUomkdQItVCtFLK81ZWRBx2tbYGKMzyOjurOqFmTbK3VoQcdqDuLpDOsjo7qzqhZk2yt1aEHHag7i6QzrI6O6s6oWZNsrdWhBx2oO4ukM6yOjurOqFifbjTz6Oqtof/OBPkI84uHC48fji55B43jmHWGMQb+N4t8ZNzFOPfRaQ3/m1b5vGCNp57wvvj5SEAnvVdFsjVmOFG9Ui0IDRGWRs7azqhZk2yt1aEHHag7i6QzrI6O6s6oWZNsrdWhBx2oO4ukM6yOjurOqFmTbK3VoQcdqDuLpDOsjo7qzqhZk2yt1awBp3cCu5RJI7SkmL457zEYq7sEfFZsR5ztcK61KOHC0tz8nJ24pHF6d/QvM64Z97NC1ZLeVDTpD/ceX1siapeNSh3Edbdyh6HkceVXToscMCBv6XSbOq9zrFXxPbmuR05n7mf9Y/y7j6waoSxXkw0AyGZrn3NOuPNxniNG2csx30ID3muGxLoW3G9khTa0FDRIe3MrkPPyosm5M8/RPY1wN/rZAWBJQ6taak1fdcWXvOlGf9KwqO5w/083dz2fELWI6DILaoQxbqsNTt3sgpC6Qb0mPif+jaKMzGKttBD/L0TzTfDPwfeA2zep44a6dRr3q/iqjsKo2MY7t0JUTFD/C6rFSVFtg+hdGTSvSoPe0s2vpDLDLj2C5ddFRO/wufUEIJnReHP43ROizjjs3/3A3+3Ar8mAbLfdymUf0Rn6vwB7S3imZmPm3pJ+86QMNis2Up49gp/+JHkdOyT8pDSYrOi4v/9P864/8u86iuqUqPlSszaba8st5IpoxnPilnq+1PpyObyO8Curun/zca/48++gSHBTKAhwbWmUcJW65v1p8vQykh7xGfyCEZeGXNuciXtD7k7t376OcfO4cgZ5a8//4XlDadL+qlMvfMP+N97j+llvKK5w3zT5fImTzINRQnV9KIPfPYuCdWVRmfQyytxdAvBY1EdbSQ8dQ//QsFVAsV41WovXb4+3DjdB/oLm1czBQC5l13b3oChwXWITgi7EhBcP0pv3efqWnJ6x1/Zom2AknLlVS2F19xoHI8lrIusRhn/hMGIrRQMV6F2lPmf14DCFwatlnUvQqDR9dj9eJLqq1fprqhRQtlG5Xalk9i+Gp7g0dLp/8G7PXBHyvK9w2OC6s1ZIrV+nPt+cPrKtqjPj/vZhOo+ea+xg3euf5n/j/l/j8ccHmhgExiAqIRodaVE5A0Eq90xFuCoR0ydm3Ro2UiCtVGD92yffrfgV291wd/Pchd59hhTR9iKWtdcyIjd0jyzdRZeJQpQxgk11/Broipu3qvT/xXpjnD0qyd+Wf+BxghseAo9ovf/33AxddKoCSTXjBgAtEISU2m5LUydEtsPY8hS6GMwRkxWGX79G9sghDAE2ksJ14FdRRWF5T1PIaCF4c/nqphPo8+46HFiZUPObRXc0nTq3NGVF+NNRtOC4agDYOyVXdxHF9Bi3q94veU9toznjwjwdqyF4f/9BL69B8kcMAF8GI1NiH8ADNbRFperUrVmMpBxD4UMlxidKq/vtpfRk7/QihoBKcGDFha1hq9FPvl5fPB3zdlWFw8Z1tLjrn6gZtyQZtZt2yg8IbDmjdH+MdHHGjctslOPbdjsK9z/Fo8VYf4FUSkjMv0mf/J47QGJr3g1IA95/rjgIvpWoHqVg+rMhcuC+a2c1DdJGJNLWZlAR38p818zmnZj+Lpv2BUs/B5E/DnGtY7VsoXzD7LColepPIAxCH3QK9LGVNePAxFDlJS8SAkDJS9CfF7romkp042ig50CMk/81/oCAuB04lifrrVE3qL9ojUT3L+KMuSTDOV+D1Cl7RjYvEoETo24BXEoIwQA+L03c7aHk7/xIF3LgEWvTcKfz9MSxr4qGMszA2vPzc5Vz53b3WfxsArffTBEfWlhfitk+wxNqpNVmKhE8fFzwjaiX8anpm3dDL8Tca/Aj/jV/6sta3LaB6FrHuwyrNq1oBKEl6NKVMF6TIgZuEMOWWtSKLGtIZYa/j0JJHli7S50/9rg7/OYV4meTnFj4+JOs5uWP91uDEPoFs5kiPQy83fQ+Iys0L0uf6vzfprg68NrPXMur0O+z+vEzQxplNPDpnUtIiZZnVukSWZNVlXatOUk95E29KGqGupRF0tGzWkx5g4/TdUIITGa4C/X3Fi7fzfL0fR4Wrm5VhPEzyuP3NEEWhjOAV16EnGtMFoyPLtBxk75AwtiEVHVlB95t+4TeFFR2VcUhq4EnVj3Ywgtk2L0MDWbjOSWZP164a/X6Jq2o5ohtG/h8siB3cMNpGCT7LHH/SMtVO7oZNOenbS42krLz0sOv0TgQOuBnxh1/gd9F4+/txY/EfHnk+esynpdWWb6w89vrKtuzFJ0Of8fREErXdR2xwIlENcGlD+OPbzi9++T/9apYt1evn5dx1/HXBaFF01a3JpeBUNnbZXMIwZy9A+6Dm/w6zWUTspT/9jdxa2bwz+WHetpZ/Fcfa6OUv2YLl1N5aTK8cQx3AoB2T9K4XUvDHxM2AFwcqlUjzdM/+BxLX1B3tb/wDG9gWs/7ttzxnpLrOrFijrNsU9Rgk8bokxaAxdajGXRYeSvr8YJ9ScDoaRt91/fyGcgWKTf/jhX3iz89IDHH7+81+oJTzMj/feeQ9YESA8lH/08N6v/OpfRpe4G7T778z1gFoV4agKDKi+MPxhM2+I+P7N/jkbLS8J/Fzz/4AxaN7Q4e+1oa4Cxf1cxa9xHC8C8q1owMii58+/zz7DIc3DVv7v3/vzP/9zz5/Tw88vP/4lJkO/xv8rH3zZ8waHU/zq17++5gNGVoOyFmD4C8O/PdiBESG9l7vqX3dwDQWBZ0dooOVCs6Tv3qr7RM4a5yVIqdRwG2Wn01nLEnEbBEO8+LtD/nVIKH5UjJ+N4kcH/4WLXtIRrXGUaIxf7fGL7IFOmGqQbdnCS8CfPjIHzFf+M4nc0GkeqHAwiKwIHuqgIAfjmEsgpcHxUi/t2AN7Ky8l/+gYXuS/APfU6iU1Z7Dj73lDjPi1oTLfY/yOTiHYgshVwacizvg7lP8C4SXE7wNOqMIFgG1s6bEvm1EAb5Ct7KFdg3CJMbWs6npWfOU3NWMT/BLVQm8924wuexE3ORhTLjar19U/7jwIBqaYCBimv3eLLV9A8W+1BCvBEGUwR3SM3CVytUOj+C8Mf9ijyQfJl6xR+XFc6NRvFXEfY3QAmH9z/AwlBndSTilGsas4NK/lYrN6uvV/YvxhmtYZv2aKyi5Vp/PU/s/9V/g9x/r7gIudygsm1M5CLzm2C4ofIQw02USzFqfUYivtnfXPOxgHbyh2/HN3oxYK0dEI3MXUtjLODXITLxn/o3/7zZw4R96Vkevas3/IxiRaSGu6iS0ijpdiyXuMBTUuQjCbbKJZi1NqcZLWnmTEG8NOnh5/GqQ3e4zftLQqOn7TUqCyr/+rjP9t849ncEg7bpICmcDXdc6xohYPcssCgWDH3cVBvxcrBBfLtJM+dMzfbf8ffvhj4Z9HUP8dz+Dy7nGQ0l+mQoevWD6pv4GQtfjFRx8Vvn459Z3v5G8aeF3eeZe/iy2WMsprl5V8vvWnTR4HeTlnX/bEFfeX7elLHxupl5X98rvyL/E/RCLuh/3Lzb9PP/3lhv8f/8kPN/z5TG7i7+jWXvj4k082/BknCw9zPmP8+je+9pLxP/df8lvAZ4Eq55GZEIvJlERPjWkxsFARe2zpWVhmqnO1aY+Qjus6zMTSXfavX8oHiHx3A4TqC+aEkmfBI7yOEz44P7yQXo/8rvlerzo4qJXil7ar/1Lw1yJyMeOHLZlYa00OfYlQQcdrThXTj4uftjQcA9WWBdPhJeJrbTQpm/5rlng3w4erZ/bU+Mul47V3+vNFveO3APWlf/Lucv6/7PjHnXglgpqxEJVWXKNKAS1Xnn8uvqUWqq4B2brm2Qt0QZTHUq6emrvjnzhOXA0K311EYcWDAy1h0RmC3UD2Q73GA4FDhP37/Qcg0RMDI/SM6yXjf9U/fHPC8c/5aFJmc87c1FS5MX6O0ThquahrgDRu51sqXki1t8f/WP+Pwx+TpJt8qFmT5hhOO/FnotQTjRGlskSWWOHu5P/Ljr8PuD0NgP88wTiL44Lo6uzpeWlqgaRbGSadcQNZbO9UKoZBatE2sfffav8IlfF3xLxrA/5CtGDVnsHHQnpn584OWlRZv6UCHR4gNPZK8L/uX2s8/HOO1cXGzwbuiGf0UOTJUPGDUoGBgqL6a6z5QypHUBv+NShDdKUghwwzB/q7/zL7tPgf47/ZvyR7/GCd+y+LZXy4+GOFa20tM39Ix/q/q/XV4KVA0+v36fNqa5n47W/pkzVlmoqNlHbJM6RapnCSfhyDthWf3OihYW2ZCGUXb6r/n/8Mn3NDKIyGMbDOMzFuKv7Z2rw7x6c6ORqC12effVajbOMHf/wn/UiMnyX79rf5TI6jfGC8+y4euxZ0LwT/An7Dn+uFed/Haz9fJ/m3UbmO0NJJoSlrRln/Fdkh/he8/p9++qmdFyZ/QrwwXULCGD777FPPCzRvkh+HfxnTWNrQevK2AWc08f/GN6whfKjAUu0Lwd8W27+7nDj9xOGhe4f8M69GISqNPygmZRS4HIdidTGXzExfJEGXzpLTrJni7YILW3fBP9FovIByL0pt7sh4TOVgI7C8oUshjJTpuQ9hB0MfIgbNg8XLWGC/DPzpRxOl8yv+NdGK7Ir/xMgojvE7xheTf0KA/okJDRMnNLf5j+xZ8S83bFyuxF8CNbVKoLlu6b2Y+OXgDvnXS9T+NL2WXMttvLP6SgEur5OhhCMpmgPCC9I1CQ1kVaUXzf277R+4IOF0J1P4840Fw4jlEWysjL9+x0bd9nDjmRtgxzuWGkEFaPAgHG9e1GmXQT4I1evFKhn6B//qllT+PXHPVy8taaO6DCL+talwKFOs9SdBa7xje/L4j/5rgrDDQunyL7rdeKTnDKYmUmOewv/T41/TUvz0h3Lmv3Go+mXufx1wviuoBGCCcPGTSUyQkTTq1sRMu6Z6X2PcKa0aPhb1Ukwbdigbd8o/71dwCNVBoc/C87WR7s6AiaChhleJ3RyGhNQvW3P4UYpS+PU3BbjKLwn/2/w7JsQw/aPLldafD1RwTxC/9AxFRcgoBzc2E78cSEcV2YkfzgktjtUa/wT+geez40/fw798e74gVbyyRIV8KN+p/Cc8BOjlxP8uzXrt6YTOwEkylFNyRa5Guqw0HrUm6Y7UW6GUmOwOpHzQJsaJK9eqwL1b/vlMTHCzwlVen3MTg2CmABXeAVAFMh9w6Os/9Rb+eSankdjJP/gBnjFRr/DX5+RkgHZwPL373vOtv+a1/MuvJ0inDgDziH8yssb0z8NG4eoUpB1wtvgZHwPfGnRczB7+6bLcUoPP3Didh3iX+QHmIzxoTDg+uvcpPucmdR0qpC2zQ/ugwSfF/7338F3hKpybCoiL+OX1zH+tnBbAi7bwJ3JBEDKSqxGs0eCYm84fPgaWsmpVdmQLpEuj2FNKHfdvENqI8jyHm9wl8TWtu+2/TitvoA1/YoofPKk2G4vILg4FI0ZwubAsha474qQii3AHf509D/3SV4dlWZPNzT8tcPRj1l8+Y51j9nLVP79zBl9OS0ejA2Tzb9+P9S93moSnu7tXBLwh5vNBmmf8/LsQT+z/WfB3SPLN6Uz8NYkz/2uVmDcGS7WqWktpOAcme0qp4n5xj0LIsdKlQitXFGSEV2kWNEW5/wT1Mlsbkz42P3fbP5dYkCygNlR5oPGHoOlTIi3dgcxRJ/HAV+9e0gMPRjYaVquoxso6+Ey2hxD2jx70a2REzZP/jE8LrfaPkRf+ZeUQ//ARX7f6XzO5SukOUQgv//2ZNTk4+D9YeRb89Z3hskMXhuPM/4I7gBRCRueZ8++wXsdufzy0VmHJtakqxfwaQhNL7pZk6U+KwvqJPgcvukajKeoQNMeXAdp9y/0LA4KzAOr4LSvsII+aX9wRnJRGMg+ZYCOY4/jRS7JyoWzCOAzpUdM3TT4p/jWnzRhPFRqe/rn+7awIHrql2oHFHmS5uj/P+uMKrkIkLvzD+4X/0k/8mimxI7/mRvpG/DGgPsY34vdg2SApr25kn6wlZA8qPTPISogmaj3O2nudoWijT2rRNRpNUVPRtt4S/+/WjXsFhSYoFKgEICzDgR6YEu9C22Bdx3HEaVuBl3IaVTOkg8yiTtbb6P9XfgUflCIeLAj2F7/4yDTAeQAcf/npZ4KKOFCBH6Lgyzl9fIBJmOSvUWz4rQZ+lo6b8OFneqolGwT8j/BMTh/n4M7H+O/82rc2/+++V78i8EnXvyzLfYUx/fMRPs87FypgzrzFqZOnPxtHBSgyQhW8NGT8jLs4oKqXsHehhumZG8cp/nv3foh4fRdH8X18zg2fGyTevLQLR7blYSkSREALBOmrPNP/Ef93+LnCUf7yr/wljYt/ii6mSX80qmZIB5l1nay2BOa5/64BS7RRsG4ElzWWmUijBEm2o5S0OO45H6C4C3tUbEbcV+JoaALuRPfO+s/rGa2G14a46WWZIJ5XXiKJfwIWQjxBndLA+7A2EA9Bml348xsSZPAkIcGDoE4adnXooR0la2iWe+0f3TzbGkNwKFCA/1f8S+8W/5wfvaz4p2VKMGs1pTjFRT9kTPKftGZwLDzBUG7xL8CkhDFyMRG+gj8mE+sahmr6J+9C48z/QAXsvKYCkeQBzJKWvnuPW//YpDa/Z+wSosGnp3hDO0irHpdtKcRUTCvbqmMtaIjIVCDMoDvnH0Awdv4Qk8SPlv/IVCu8rGN14A+eZMJuKXQ3rAUuDgdiDo2SaRVtcPcvhRhAO0jZhw2y+OObPc+WnFv9S/4E/jt+OKCXG/xT6rIUODPdpYblGUGNkieP3xGxvvRPDIP/Zfw3+U8Yib+wYgAGda0/feqHwkv/joWylAQ7bEbUxmPx7vgf3+oOGo00GIv2qTlYIheoUzeW9M6YOk4VkrLI9RKBSiZipzVK827491FRsequh3R+jMnC31h5mxZuuhuzPjeeLKEK/trWdXDyJRZfdumXOXJngt78e/Qt/jkfF42jXe10e34S/1aH72v+t/jr7pIzVFDwm1Zkxa8kskDPGiHjQX5T/I/zv7CPs+nfPht/qsz4MX+xhn+CnJnKIiETgUqCSGGrA6SClNQ+afxrDKcVu3fXP14JGIZAuXKF4DQX9M0lmsRTOVttj4hCM3ZiE3eniV35Si+ab4P/T3+Jz20BdqekP7fFVWCMXI7P8EwuxXxuPmw3KPg7rHjfEruBNrpwd1AHjNg1fe/eO++8sy05Pyc3/eu7q23okvjww59s/n/84x89lX9azPqR/kvf4DOsNc+vf/1rZN9YPgUeM/4f/MkfY/CKv5+53RA/DU//7Ez/lAcrEu88eIcsxOiXP9/+znc2/++9BzzLhhSljIpGbihH/9bduDeMNDua8Zu2B0WhGTuxibvTxK58pRfN+E3bqlFoxk5s4u40sStf6UUzftNSVZfIib2vFBlia+w5Ddi4J1ZVGZ9NldZi6JeCRqI6Wsh46p/+iQ8x49IAGfznkyPyeIhN/IOV+NB7oLfv1ubujSKFegKFQbRFU8RdyYBWBS5pc/MPgdfL9fTvQTUv+bfVXn864Ohb/FNDakU8r3/eP70Q/5oVZob/fnJ3wB/8S/yNUftnTIpfhHGEirXMY93xg47NybV+jTr33wKuqOAX3NNSnNcApeqrvMDtVRg8aPn31Fs9WEu19ctUN3RvoSaCKhNqlSaGr7Y3eLQ0Zv9W+893RxEk8crD/MRPXr5sL6j4vsERWAm4xIU/5ISPL1NplPoDTvgYWMc/xkINxXX8k7Pwh+wZ/dNOyovwP9KmTqbb449vtpt/GUI1MCEr8cuqTz4jdC1+GSdunpUQRKVWsmM1sPYQjbW+6/jnyIW/1Mi6Ujju7vrnOo3Cq3sV4DJgCXcsDhajdAS9qlY7ELHb1m17ddtps+6yf2LJ+IVpdUSvzaE7OupY1ZeqixOOsPoL+MI1OwKjSOqGjypV+qMN5XL5j8byT89Zfz3IXefIUhb1FP4RtOb5HP7rZtETFWbP4V/zr8lUVDKJSeoDzOhwvrfHz4Fn/mtdvbpCUn0z1XcVnARZaQvx1lm9lX/iLUHrktAzOBL0dV1HW6mWqDRauQmaGOUmPlUiS+the2+Ygj6vaw797vnX3wzAFsqn2fLdUn8EA59ze+hnbsaVuBEj3E7o9ClaPNJEOWiSzqlEdMn3M7loonvv134Nz5iG/3fewZheLH539hMclmvED37wQ4x6dv96BggLdMHy/vtf0Myy/p8hXv6iNh+uD/Hd0h/Yv05s/j43yJ/DP32uaIgHj6/CH3F+59fx+/WG/3fxXd7L0gBdihq8XWfvzWF3O/+ZCcnYPqEarCYmYKAXv7K1h67MkhLH8XBxq2aQ3hLhciIpGLE6YKJTfW8G6tlqBOlFL/zTvz5a2qsgGAWvF943ZeSyXyATW+5z9evioAMAxwQ+I7bWzeOo5wMEff8H7MuWR/QK9dJplNRYwXurPI9/z2T6t9kyTleYm/8xnoqzeOxpgi8wfs8I/jmFg3+5U7XQl6LmFSk61T/zv9ZRYBIfAxNucAqfWFrWGl4HjRw8DFyQg18dHHBRKk51l/IcmAVz23tA3UykbMdsJlI+8z3AZT+Kp/+CUc3CB5+mF3bGiXcuKfv37HgQUuit38sKjl6k8QDAaeA3IqjDuzeWYZB0dX1w2N707zGu1/pTD/416ef1TyM5uOx/YSGRnaN+VfHbfwFTDSex/LN35n+gEV7pABldUNHXylbSrDWNYnGqu+TMp+tl5R/l1/FXlieZpyl9UFJ29wnIWTxKhI4NOAK50kBUlNG1i9tZm3/6Jw68Twiw6PXtEPACzZeorIUVZWZjHDHW7Uovg95EkK2FP5OMyCvZyhsaFePP+7Tp3zOKo/bPEVGjQXZesH9eBBl/3znRTTnVHdArjV/OMZdgXMBv+Bcg1QiWzBm89N3O2rbP/CcOt+R/sEQriAtnA4uOAUyKNN5k9DM42ZgVjWRlxJ8MbgUk4GT12JKx3/Imijf6Pe5AXKhMxt31778p4Ph5B/FHP8R3SwMd+g/xNwV4FPLKpXWXcGAHkgeIDzryWdqCu+zz0MJHVb761Q9qGT3mV3/lL0PnZvx/+pO/2Pz/+MMPPZHceh78fyN/tAAumU8ffPWrngOntk3LjB/96M83/z/52U+sz5q2UT1P/PxcoBxX/N/5Dr6rq2L//lzgzfE3NhzTMTRRvNG38cv6QmUyTv9Pev7kdUqthvEX2szxwC5iyzbnHlmSWZO1HGecTkB2fC0mxYvvIXPJQFk21D39X8U/q6DzAqund0J5kvm/NneuhXkc0MtElIUrOfiJEfVgQDI2pFFj/XgfxY9PSMhhVUSyoqhmStL3mfbjg1SmSuOaf3qADnzwIxAyR5NgNi1CHqVLgcaw4o3Vi46f9rb46Q/OhBcnZ/+ahOamSvM989/raZCMC9EK9ar3v1+iZskwC6eRGJXYXs1M0DMdWiJR1diWaED3dHWmkjllbWuWDXvHXLSxTv8EraCqu3EzBI8AZZ+JxX/ULHk9Z9OmU2ZN/KHHw0F3c7UyvGkDK774R5D5T5vdqiWUU3DIrIpq6ZKCLb/7aNt+yX3pn4egzijOFf6G5avrr7OsDhrNs/2/wPhrEomf0HGOOUgraHJuiB/8NTmrqZ/41CmdNHACdrmuMaVnkXhHux6wxvZ4De3end1/OuAEg65axrDreUUNc2EWzsC8FoSSg573V5jV1h2eeqf/C8xysDTQhFVgGT9uaRYfQsRe21A8640NQqy1CBR7nLIebPVuw58KZSpD5aQqiWxkmU6fOqB5N0j/NiMh+Jg5eFbF3Ivdtq/kn+OyRtRfaPwVp2Oq+cYR29A9yYJG/BpM2UHvzH9gci3/AtVt+Uc8Uw64ku21asqapXf9GRxHTEPHvk2gvhRcclp5EVDKy5/FHNTRyLHfqpeCS04rLwJKb4v/T/H7zXJ3xEX7I3wurJcOxPzuagNQ8eM3rmEFiRgKB4kEwWTjpQ/Nl770JbU8WJif3/rmN6ldhQM4cJVLzpI1BaVnxf+Hf/KncEkvmDuek330MX5/HrsonAmP+J4RiZKBWqX8M/4H/FwfS+l+B98tXfHfv/fuu3gmRxttVNpVXQouOVN/DXvW+Hdrl94uOfsI9aB0V/zX6g7gSWYxmeiz796q+0ROHuUWvFRquJOMnd5OcJGr+TJHPQ05/RuUJ8G/MOPG9uN1tMBPOOaGTh1UvGMquIl//9UtcHVIQui7IRkDj9owdrRXNuSoaNt9Beuv3HD26N6vAmLDuZfYs3ru+MuAjCbo0Z7532C8svVvjyCeAH8fcJUklcsyIVa/HogCjQ4PY+FNDgbV0lXLSinZfF2IqRebUMmQ0z/h2tAgUgsr0hHXxi50dYMjUeRofRjwk3JAVn002r/o8MO/XIzix42/94hjoxZKvxsza7X519A5IUrDrBbGPYvmP8/6Oz/kRdWwvjAik0VxoUIATx8/DYygB0m7KSYHg4J01bI687+hIBrBMi2EkkMm1hPnf8ZlNAywoOsD7sCn+Z2F3piER1ctfoTgNdlEsxYnAZSN3ZmM7KzTf4O4AwMguWmMLGt+mJctecGblGSqbYAf3u1FZqaVsqX7+ufuTu2Ff9jJ4I2M9yVdnOLFVlqOV9n9a6IZDF2rF+MQv15ewkYwobnHxa8DvMzF9v7SBtzhX1NMJX6EclaSxQuVlgqi7SwB1ThLIzLz9P+s+ONVyEPsCWySQpTA7+B6McibstBpvRDX6qkx6egi/U7/Lwx/f07O2PLo++Mf4PejZUVxkH326Xzd5lUl/vzVzlwd3rXl3WtKf/VX/4qfa2EsX7F+9YOvyHhWMq2YV6upMekoP936/+ynP9v8/7c/+zNEx5kyLrYpPCT5jHHwEcM7D/I3FDwXfs5txs+/sTCt0FpmnfYmXjzv7bVRU+Pp4s/cYjXttLjTU2PS0Xq7/eNClcONwaOnxrQhqKspWAa39Cy8SIZijyZLQta4rsJMLPlwrZ4a0zZy+heCgOTJ8F94+6Ul+mThEONPI1s0v7Tvw80SfjQiK+Mh+GQbkoIvZ32QlJ4Xp+ZUnavNms+LWn9azO/at3XOKX7Yur/FT/nV+PnHbTii4lJj2uGc+SdkAYna4GRwGvXqXmk8yoKZf8myl3v+jDvxmoiaMZERQqWA5prn3+yYP5IipNqkTkKsEfAzQ+/e6R8APQ/+AJ2486qhmzVeodnXYhhzHliFP2VDUsvAOx8UVjrl2DFZCrZpdo23FStOwQtef0ycnh72a2zbz4eaNWnOmXk0469Zkk0sbo//efCH/UCh9gXHX7vm3H9cSBfDHdDBC4m2D7h9GZgD0SorlTPVU5KEVtIU8OLVZvKm8nVf/JhkAm4MzilCS07/Ox6EN6gJoWCMzjX8JXYlOXWqi42fDbx8bPjjdo34yy5PAhY025o8xr/H0P4LXv9MmXMc8fFlZhfydcgt/5Rej98Gt/ilG0dllfG3gxgzw/whDTZjftKMyZ5rGGf+vyz87/MR3L5yPgCzXHxozZcxLFyO8MUY1YXswDh0NVK8K4LJOv0/H/7+/Wg80LzMP/7xj3vViPNn+BsQXFSuK/tf+cpX1jqD+ZUvf/m1Xv+fjmdyvFqrT4IvqdG+8w6fuSX+R/e+gb/54GLeuw+gdEjqM/8WJG/6/vNv2Kkld4qv4NjP4Sa69YpgJlRZOWKmL1KgS2fJMaDuDsXbBbK2WKf/F4G/nqEV2GyYtCzF0hL1eoHfSTEubm/G+uPQ0t0bZovgFCdCVfyKuCJj/NBL/BKpGrhU/0XgT1PyJZuoDviHTYxZlu6Z/8+LP691nfCGliAbaPVFsuIVb0lAKokOHOlR5kVCTUIDZYgi8NYSspsNN5TJRoGehrE6/QtG4eJqHkrFEU6kjTBqYK3fZlRvHnCMk4bYlkUeZMKZo3Cv53cUQCM9xGf1euLvWWF6ijhf9XdPL44Tf8Xa8Rs8Djzzrw5co1Y5IWSYI0II1eu5/jVBzdY0c9iRsNZ75n5KkiRGT0GVlvTnII1XNbkeUs9b5nhqDhvsXoqpQC5BPP2/WPyBKy9j2dDoGn8+wyLu/vCr73yIP/o6DCHjRMbaicSIFPdd2+arX/98oZ9/I6HuySpWfEAEv09KfxTxEL/ee1CkjsSzZgRn/r1t+w+5vD2exSJ7ob30TltlebGnlDru3yC0ESlxA1X69ygKJtfq0wNpFmyiG1yYfYPQg0//gOfEf2Za5cuZf2/9/sMbY7xc+/ZTdw7HyzQOiaRDzounbbfx7LC0H0tVb4pWY30Deyk8htrGs8Ny+jcOha4w2oAqMZob2EvhMdQ2nh2WE3/jcOKvZFCObIlS8KC5gb0UbqFw8+5Mu+lw49j+eAA80dnTlDU53q2h0F0ndxj0ceRT5nL6L9TRFBVoHtsuWE/8hd2Zf3dq/115iVp7hg8edRBtp1FvqLVxmrUIZVJ1rw6v0Wj00HeNXNTp/8T/zD/sh6sb6Pa7mnP/9TnSL1HFqXOnpSB2VvXCTDsHDEMRp221jTE6g4zuzqpemGmj3K0FEac9iKs7pIOM7s6qXpho//S/4feTjfLDH/4pHt7jbgknN9Uefsq/kZA0xa8owsGtL63rwTc0eOs63wDofOZXqPCgnEa68JE6fw8a7FMP7YN8Z6l0+DcDpv/vfOubm/9vfvOvHBaVDsrpIONyZ1UvzLRR7taCiNMexNUd0kFGd2dVL8y0Ue7WgojTUvzxxx8b78Lfv09uxc83K1yCf/rkXuK/PsZQw9As/P0WyFx/zYWLV/75Wb25/l/80vtlCE+ssf7vfeH9rA4Vab2bdGvAaKxX2pdqEWjE6AwyxnZW9cJMG+VuLYg47UFc3SEdZHR3VvXCTBvlbi1gjfeZ1uKKJHeUkhbHPe9HKO7CHhWbEXurtxjjlpPo9ioskQbEhke/fv55WB2mjEMJWYup8k1KypYGvyFABlKed6iQPnrIDBeppKecUeplOVXQo4Yj59928uFGm/dxuD2tf1p8m/BXPIcqOWXMiJ2AXFqNP5fhZeAPz/zPj6gQ7vZ/XP9L/61KAv8Tgyfv3rn/iMYFOIZIEuPEel3/g2QfPlwa/rCgHWSGh9U6pRtT5rNeHI9BX0RScai8Yf5x3OggY0COjTHhh1nYACV+SBCf3k0uGa/SgocqutRHQHu2JctRS0svoKUj89KCkcf4h4Ycyg11q4R4w/DP9BfYI6YWJjhr6a6r429ASygBICKez4o/HNMM11Ml/rn+RB/VDf6VDxpj/x4P5ZoWW1tjls2S3uPjv0vrP75VHbDWYgRKtr5qQCdikQvUJVgK6wO82XylhWG2B12ZiB3OIePZLvq19c8p6qRh2uIfrtpicYPoLo1RgK6Dg/djfNmpXyZZt3hOVYziQF31RdwQv7FiGmucnMmgOI/3z/nSP1o6lDnbJMeTSCsl8V5b/DlVBbHmKha5hT/liVCo8Qaa2PP1IQSNPwdu+NfdHTXavC3diL9WgXaWV9pf68/HFDf79y8ZpTP+XPMPdhXPmx3OqSdYUnCvxm/1u7L+eCVkGALPwmqC1phdJaJJPLVnq23lKDRjJzZxd5rYla/0ovkq/P/bf/vvegbE7J/983+h5OX5xedufv7iW2POi0UvI6FA/eYNOvOnLhWE4VqINW4agKq73HywjXFP4v9/+9//V7mJqb/1t/7m8GT/3ivbrDTmpiqarwL/a3O4zf9PfvKTDf8/+9GPYKIuQmUs49VF5/nwx0ME5cGYKU+TXn97C/7Uus3/r+Dv0LYuJvbVDz4Yhk1m/OuIv2aYCV7MfJ//rvuYQcNWNK/Fr0sEAUzxyZ4h5rLXW5NWDiXjmRgsad2DfvE1EtXRQsZT/83wjxlz0pq4DxfSfFOAxb9fbMlz9dYrloqfmho+WjIYv+43BCI6+O9XOuUn+INvAy/QP0y+GfhjoqMQCpbkXVpz192T8df91HaoZPyGv8CFBP+v4g/jwUrLDr0HfLaHAe1fhrHSlRfP7p+GuM5MHmbOXuQGrPhNay36b4pmFPu0kPHkJaYeRJ6Uy+8b5j/3wAqBoThY1BXPxhMAC47EKtXWL1PdUN9CjUS1LLRSEW+Afz219DwfOvMdHWgnR6JN2IS44mfsit8gRD8oMIGNDWrvBiU1eXppBeJRPTUl70X75zxpVyvU6zl4kPgllJR6r0m19S1bNS1W/GSiax9LY1HDV9sbPCg+vf9r+IOHSdyKf4Iaa0JW/CuqG9a/45GN5/PvnCAGvFP3T+zfyf03Tu8niZ/oj8KrWxUmgMg9HVcPoJeOeEsQC6ON3bZu26vbTptVto/bYbn5fPzjbWdtUL6wT/wCceXxiJtkJafIRIe7CtqpDSKDpSkNBsn4hQHvCIIf7hJehn/OTWX5kf/ilfDQW/FrTVRNzUnHbuKv3FrdUo4euoqd7N3w6j2pf+KfR81xeMC/vFNTGnSy+V9eQ/EuO+svntY/0jLrSRctAABAAElEQVSoxr8AQHazIzF2W/9b/HNOXn/aZi/l4H8JojDa4Jr4XyX+nMbn5z+/oF4LS4wmTqa1lDXFkhInrq4AnyPAUpFCOmqt5TH0opBlYx8xrZl+vfz/q3/9b5QdTrqHfjmqkyjJw1nj5FL2O16K9a4qJN4YYCDDH/lDUKCJhpOXI/iKRgjKJD8LV3hRjwoyz01L/+CR2ZunFWSXliiO///nX/+/2O72h+Py3t/8238TBssfWo5OMe2ZcURLRVKq7Rf10Q7d4tqWx9CO7L2C9ffvv6Nf+040xiVXJeMRrcZfc8+IERPI+1i7J8Zf3mldXhX9k/rn/PvTdFjIr37wVQ7lBGSNSF6WMdcSWstjXiX+mdvn5R8rTDC8/CLcBRkiEA4gi5zXEy2YDLCCQoaLh071tRnFiz0L0oteD6h0GDNs8vPwr9kqPCe+zxVy0e8gQOjurGKjEn90GGFjSBE6ejbjsb3XqUp86rkNg+VWyipI+Bz+9ScCe6L2LXesWOR8EvHcwXFKKp8H/nL8FP6NHEHFT/BPAArWGPgAp94l/tvhzgnchH+DB4Vef+JHo/h5Xv8Vd6b/JuCv9WpQCcMhiMIs3IawiefLPxxwMY0FYKlu9cDgRr5eeg9KnIkkQdYYLQTs0k4+57Nsvln++yBCLHy56MIYcBCpX3hVWGz0IgUEX9Y+eMDbLx+OBrYUuQFYti47uE/g2AhKTtVn8s/XxfLPuxeWGDz4txD1m73+jM74Iw7ir+cCjOkYPwOGdsHh5WAn8ZegGmpf4K/B1AeWQ++F+qfjKndx/yV2tk8Sv1Y5i5ml9OCsUFpvANW1F7yI6GRzFj8jmBxzrc2ftaf7RvlnjLwK4b8vRoxRl+uGYR71jI2HIocRbL+c5HByXBw/79PMoz5fUvadA21om3I8xjyP/7Z69E9vi5eXtPRcs1QjjahJhI4DQGvNjBADvPTdzrosa9zL9e87Oc4o/muymMIRf86Km2euEfFneTL8tdLU1n96fGH+NQlWKAqFPiqWahwhFZb/Vu/4yXHx8JeLPz0F+UW/fP864HJXsjamHadegNUkdQcAqQCFdBkQs3CGnDJaaU6Row/pGj49cZzL5Ir+3P3zs06YG384eb6zyYmp4TFR2yjxVwKyyzFz44Dj+BFT/UJt2PZKrM1oV3KnAfbPTfgs/nmUurh98/Cvo1jTJ+gEFkXNOKYP+EsHYxb+NACUa9zKf9sz/lkLjbYL3AU+fv1hI/4bb7l7av/07JlWiJ97/j8l/of4HY3xZL2Wz7gvianJFf0U8euAsxlly5oK1yeeREw3ARoKkq2xTIrW1A6kkZFSnmEsj3bZEPM19a/pY6pstTC8sCPbGSoj8HtmoKGQl+N6Q4IDqIM2G8dAGS9+HMAyo8WvSOoDvFCibWnRJsywyDdX77n8xxotcvapQWieYhVz6tY8yNKwNfZ1W3/OjFh5hmhFc+L4aRDZg0bpmUYN4IW7TjPq679AAenhhT+H04fX3wdArz/4z+Nfn3+bzukbP6pk2NZZv274c5qc6Iy/Zm9R1ysGsRBgxphQxK39pPHrgLMhW5xmDCxsWmTjUh5aIq1AsiUHPZ913to99YrgTfLPXM9noVaIWEDsHN6BdfxI/Dzn4Zj7+jueM34wocNNoD3CkewDQ9nVGG4UH3zUoUB7jVqh5fDZ/ZdZNLYpc2SivA3rz3i06XmyiWJkRBg/BBX4uwf5xJ8ifKdKUhyE1GHV+Lsr2FTBvv9RE7aoW8/5XpR/7SFNhLFUEWl/JFty0Htb9p8XoqMc+JtsScWvA05M7cKgFvDWyduSttCc4VNWLTjoOb/CrNaoe1HeEP+66Aeeao0lt0LtEPCtV3ggXH2bQSBwIVb8HXYRQUims7HCRPu8/j2j5Z9+1OuJyLOr+B+sTH2yHD85FS/JzJk0yue6/pjLxL8nx/zD/8fGP2K5jj+NMHZdhhSv9chDeRH+y9QRV5qXyEGw6zLmTMbniv/n6L8/B7ftHCJWAAW3ubAEzMWKC0sfiKsfvTIXAYb17X9UpoPX2P/f+bt/u2bMYB7e++f/17/Y3k3jF6kpYQhNkJfY0fI9iUd4C+4BXof6/gG69f0u3ePxsOGlp2xx35TYdmkbxn2g5t1b8x7n/+/9Pcx/+JcpDc0E0eHkq6tmzr8HkLDiGvn6rf83vvF1z5iTxHR/9KM/V8v80+/WUwyQBWAGfhP+JXLcXDsAiYXNGzK8cIEj6IhME8QvfbboP6n/v8T5czx9ywgNpNBLXy5FmxP5aq/5nyNXgmLMMKJx5X9ZC/X6+9cdXKYr4NkJkFzo2Xdv1QNxa+YlWKnUcAGmqrezliXiNgiGeK+z/5qbtjLjrzkzsRnduiUGg/nP4BiU7pCgoQDBx9iHdQdLFW0S2ULFQWykjI7d2I4MkkVlC0BpYz25f2/K6Z9zkEm25WNNlswr5Q1Yf4VCgIJ/haHDSPhL+OT4azxHL/zJspXK/+DHpGChkBX8iUTv+fzTHsobgL/nqclywlv8wUI6pSJe8OvN0ho78QTx+4CLJxhu2zTVtx1RAG+QrUxV6k/G7ErIisu61Hp/xyaEkkNFrNfRfyWtsM1kK6RKe01+xsmgFDnu2MJn21/VgjG9hJIeBCiM38/6QAUoDnoh/r0Rl396RDn4f5vWf+FPPPW/8EeHd9LE+BD/Vfy5MChqoJ9CsrK7hGJYLLuotP7Lj/E3/2n9yzCdVjE5GOSnq5ZVzbD4Save0+CX6PXdf4W/ws5kO9TBoAK6PuAOfK7QzkIvhndB8SOE0SabaNbilFpspeWkVF5v/5pugsHhpKs55i1W+BU1u+unhfrwboOMTEuyGYo8njYavFJLzlPV/xfOL8R/+enm9ca/p0lCkC5cC/YIBvZUpZ4R1ns+JsECv0yYdYifuFM+8c+AC/xtKDmBUdC05+fxP9efNrvIXU2ezCabaNbilFrH39aKOMRPzDI4YzJE/AhfP/94FeS/jJqbJU71WgzkTVnotIn3sp0ak44mlp1JUk6va3hOUxY6baxdtlNj0tF8Pv8//FP8DQYhxlur+/f4NxlSyP/lp5+ILx6y9JF2FnuZi/3nERDvGvLupSHhcx0kHDp6lSVDazRdT//8mwwp5H/zW7+KboEL/9/8K9+KuNrniz9RHIyO7tSYdFRerf+PP/5EaHAmLB999JHyL/hrFeulUaF2K/6OiJpefxlFhajqGd/g6yDdnwp5XfEcFSZo6/0vfXFb/y+8/7749DDRC502fi/bqTHpaL5a/DsX4x5Rvcz9D7SxDbSSDB49NaY9hzrNwZKaYA69Wuteqz3KknFdgz17ecP9KwgGkzjTkkUh+mRRjh/H7L6kAN/JbYn/qrxpD8Enqzge+8QPs70eHMPS6/XU/jEdW7jT688vzb94/LlGWOtb19/4P84/tbTUWCwveVZNi1c809frSpRaa49GB0Qsvc37f1xOsmOIxNiIA8IAQo08/xPNquDaSA3gtWyVXiQQE/ruifkG+UcSM777/cVE9MRAILx4oyOsfBI5ZtBMKoZKGdX3+PFMiEz9AAu00uVqYSDZD3Mn+Cz+aaH8w1QVekBR8wbhjykTj9QbKcFl/vHgebn4F7jPsP78BTP8RGVNHeHUunSE7is/FGwiNwpPEr9G1BTLBJryo+btWf8+4PY0QLgTQaJwBKQ2bIkWQGIU2NLhtaxK1qDvNsIg5Iu2ib3/+vp3fLzN7sINxOmP+CmtLk6nJFDFiIbxd8R6+lxX7jJL8/f1+ZLSgo6vvE/pn5PsubbH6Z0a8LVkZoAnoioFY9r8IY1sxC/NmPw8/RO0/CUzIe5JDfRroZ4Pf2E84ic67tp/vOqwgSz+ydcBDPwHogJ/7wfMrMuQvs74MxFe4fpjzxyRNOSBy7/Y0T1CGj7nOcuF7MA4dDVUvCuCyTr9I9F9kmk7nvjPrFv0zJmVXLfIITrzL4fuwonUxPJN33/5fndFyNDmIbY2F8O+2FxWvxhDhg9pKJTONrbuDsTbBRe2srlP/yf+W6ooyZQuFzkjkZTP/Lvr+w+vRFT6LqFPpBxnPKDqVrvOqkjqpJdCZdqki6Vsq6ruRIZE5LxKnP4PKAtS43qQnPgje/xiP0efcTrmlzc5ZGf+XUBDxtu8/3TAeaesTZSX8H2SXYVlZ26bb+vseuxdiOVa1ZoKFZO3pB9TNptb53LghViuVZ3+Ade5/pUzZ/5dbp4bONue2jqXAy7E2nqqXvj+w6cStsfjmI0deVpjKsWeUuq4f4PQRqSkB6d9YsUKH62ONyGkH1mss0Wm3eDC7BuEsocK4rvqn5/z4oH1UN99vX/v3/673zMguJvhGwl/8ZOf+caGdzfo/8Zv/FXjLcDv3fvud3/D/RsgNvsGIUaqQPyy8P+zP/tzzH/5//GHP5ZLnk18TPKF994Hsfx/+9vfrBPc8b/z3hc6K3uyzaFdljP/3tT9h48AeRFVq2JqpJAujWJPKbXcv0FYZphofYzRR7+LQu7pnzC9LPy5MvxECT9DRx88Cx7hK0Ps6Kle3a7xZYonUWuplSX9mq+/ptvZhfm6MFbGQ/HMP4XLd1EZLg95B+1agxI/DbwB8XOamudqxBrVjF+B3qH9p0/dEItcBAcuTfZHBpgUzX0ygvpOmXoj3DkzBlt6+m+gBjYmnwd/fhTL2x/4A2olex1qXEzKtCRZKLQkWdI+j/+YpTXZe9HrD6O068Na007CqaNvgTBCHOCJ38meADkhDFkTVX9Wr3X8c6JX6BXWS8L/is/J+rz998dTleXbzJw2YuXhLHLB6eCkmuobnaFoo09q0VRAQVPUVCwZJSU9/RuTZ8A/H3TUQdZgNyGE1ePi1I/WCQdC7m764fwz+Jctzf4lrX/PCVEkLJ7qoHnXav+IhXdr5HEu44DPkFLUTFXxjjYGz/wzLo11I7PwmlSgC96SZS3YKdTRFFULM4y8KPz5XdS2Tm/OiPa0s6oXZtrWDmFBxGkjVVTtZ0gHGd2dVb0w00a5WwsiTnsQV3dIBxndnVW9MNNGuVsLIk57EFd3SAcZ3Z1VvTDTRhntT3/6Uz2T4pNViv/p7/zT8S3J+/d+9vOfa+Pr1ywwibjZeWvDMkgmwgPI/v4/+PuWlcL/+N3vOis5BPrHfLGyBRGntew4bkgHGd2d9ejen/8IfycU89aU0f6X//Jfo9otn8klfh7wvoul+P69L3zhPcdLAcb/5vf+mvsUw9n7X8Qzu1GO/hVwmGmHvkkLIk7bahtjdAYZ3Z1VvTDTRrlbCyJOexBXd0gHGd2dVb0w00a5WwsiTnsQV3dIBxndnVW9MNNGuVsLWOMObiW3SHJHKWlx3PN+gOIu7FGxGXHfCUQjV1D0o9ub5fQflNQGQzOfDP+HfMYGVd54EM6FP9AWA1uehxukj/KpfnY5DC296GUZeejxLLBn15/n+vMlJ/0zpvt4gpxni5xpym3xS4ffFFH8bBgdSsWv1hzVjjiMzz9+zuTzxP9N85/vbCeD0SqrCWP9KCR3i/Qyr21D9lTYk4KyxbF19EX08bZUTv8EDOV58OdBFoxpK/hjzYCvXix4IXS3JzFVdKsTAQ4S/OMq8x//y0paSWg7pcZBMd4iWf6TJdCQ+tDNoMesP8VUZQw8o2jGryA1S/Q8Z50CjEeljZf+9N8GyxgtsrAd9CBt7cz/QCK4BlZB23zWi+MxE//Sispj1p9urPpk+M9v9R49jYnBWE+g1CRNiGwvFfTOnNSTfKUFddvDGJmIHSpPO4s+/QvIBY+QCm5sjZWeNaHHgyz4MxWMHzf/g3t8KKFf5li3eE4VjKcJ8HzsqAMGy+u0/o6Zc9S8uSF00rGff5wyc8661Fvxo8cbOMbOb7ZDRXZQu8x20Wf+HeAhxIWvQLzAj8ti/CkPJUTRMZ7oSRApfSzMJ/2s+OOViKcRs3KYWbSzCu6GhtPjEMajPVNtq0ehGTuxibvTxK58pRfNu+j/pz/9GZIF2x0g8LnT7/zO72od/CuA7t/7xS9+7myKDhWxWlqvwjL4JQt97pn7rW99c+li0D/+R//wYgUy/lXg/x/+w39s/4zhw7/46Ra/gXAeVlYe4vfwxP/ee++tlIfoe7/5N5zDxX0fv4/tceVVxn9tLqf/WmkAcTx/9ACCi53ikzKQmcsesqQ61bqnOuNpnCWte9AvvkaiOlrIeOqf/oUCqoWK8SrU+qpIPRYfblTnmwIsPtxAqA9e8fUblgBw7m3oQYcSB7HwhgZMX2+phw7+85UeeTZX89AAV7TDknVPay79N0VD/L+VjCfzydYfIzhIA/f4xRafcnqif3t0/PZPTquBVsHEO37e3ZWGR7sWYKWepu0U8fLjj2e3p//C4Qr+OuAWXEppdKFZ60nC41zr1r4GZK9JtfWXNVMcZ6EsoLKlox77w1fbGzxqjOw5/RtDIaSXXem7Nexc4sKf2POn3oTgZh5wgj+wxhC9BCleHuZ/7vjrqbHn+ZAnr6JDIBX/SBufzHqL5Bg/A2cueXxq/joqs1DzdbxwG5iQMwA788/ICd0GPmimJaKFP1noGuPIZzuwbnuDB9Wnxf9wwCml7RGzGNPqWazJwXHpiLcErbuI2O1Z2/bqlmr00C3bRziWm9N/8NeD1HWOLdhF5W+to5MdiTsakv6jJ0s9H61QBm74o1PAf97484ObnAMfrCh+9VEhfsUEUoVKmiw3SB41l/AYfwVFTWnUWB+AJRxmTZ75l/wTQjtMhVaa7OssTp0tq9voNgv2TO+GV+/J8O9f4E9jHLwMhNaLk1r6kkqZNFNijqh5amo73z2PoWWFTISqnP6fDP+f/uynuLsAfoCOf5fzd3/nn2FjB9d7eOb2ERDF7YwUjK+xNc2PWfh3ZGFd9TLMUq0yVKjFV3RZj6985cs14nCLqLW7XP//+l//ePP/h3/4h7RYP/Ri/2x5Kv3Gb/y6ZPIP6q/+VfZdPGNLvEXu33vvC/5uKd9MYfwPdLBBE3dcmpKqGT/Hr3ke4//lL38JZ7RlnT/4/f+g2XJ2LN/73l+HhIjBJmo9kxM4nN2yS91Vgt7iOBaPoZ0z/4GR1soYBTHjZJ7prEw0IBNpLB93/jA9ZK0Nu1tWKIqJ1iBLhcu7CieSAv7qgIlO9b0ZqZexFqQXvR5w+i+kCiHCxTsQ/cM2EXyswGkQQXA/lo42k25vwMfL07UGHkc96aCt//JBC1wnyzA29qu9df2fw7/9KrDy73mwFpdh6N+IX5hQgwUK7Z89xoUfbqiOn0HQmn/YEw0QydEpzxajef+XXVAsNbfGLyNSQ4VO9Rf29hhBetELn/4taw2yTv9CdWAC4Bbk4FcHB1yUitPgGURqroHhueWVfpUsRNmOWSgoEcqnf/ND+4c0iqd/Yfk4/AMXlPfv2WEjCkJv/cBKdb1I5QGATf6Ar0t1GGDpVYZBDqquD052sv5Tr0ZeXf8X5N8uhv/yOaZxEb9Uar6lx6x0/Ihkiz+G0ib/2ObgpAz3iWj2w6zmcjV+6sqElVCf+Q8AhSGaOjQWdMSYpTjVXfLkn7Vm/STnj7I8yTxN6YOisrZPQI7jXSJ0bOA4R08a4lhwO2tP9/RPHHjnEGDR69uxoGeZ7gAow3+rEH/drvQy8J7Di0GZ8ecmoyW2tFT3KaDAI0P3KSLY0Q1MNKmdl2jSiJqmhs7F+r8I/zLOmWg+CgSUXD02/jEGAzh7Tpnc6/FTwvs0B8ZNSPx7lOj5LBPqLHJzLX6LNWeIMxu3s7ae4aM3+5dpL26coLVMddRO/8blIv+IIAvXkZe1a4XcrIzkk8GlQAJMVtsoGfstb6J4o9/jDsSFymTcHf/8bqmL4//t3/6n6Dp+3sH87ONfrGVCn9uEW1FHTCDjEud5h0iP92LQ+lroL3/5S+rzHVW+Y/V//B/fpwKKjX3xi18UnfX/8Cd/IakqqPzL//tfXvpPItANbyCROBy/+UeX+fT3/8H/Aj5zy/6//vWvynT8+5mZxzP+3/uDPyi5zf3yk48v/Sv+OnQxZvlfQ3cKkynM3nsvj6kxEPP63vf+hhxx/vT/hcN3VzlPYUODHjKJ4rWAWtfLhcpklI/Jaiun/4k/V70K0TL+IrjGIsJkQq6iHisprbFtnKo6AUW0LV+YdlvUiLf2CZWmRexj1GMlmTVZv23+eR9BGNnykAoKOq+wenonlJvR/7W5cy/gjaxhjSXxJ0a06EPPKaAxklGCTQJ2vtY1/WOgCi3IDG8e4Z86+L/8yzw5dqN1p458cLQU0PotDx9otjH9c7wnzzF2qZZdTv2q/7KDSXEGfkPCc9n9yxIrxwxQpa/DjXN1Ns34PQvaxCD6l9myre5aozP/jYvRBTjERwAGRfNcLwzVh0pGm9jHtBkprbHH/a/sttgWpxkm3WOdxRNUSfZ4De1erbW3Vk+9zLuBbtmwU9g6/QMS/AM03Mc8SAyJsRItiNnnxuI/olnyOjy06MqsiT/0aLQOAemgT3NaD64F3pk8+rdQTqGJIhJeYZ9HVfuHLb77yELZ/fqUrUfSg/3zEOY0NLMr/jmePjQn6okwY8a//K8BfvfTY/2S/7b4MXu+E0sfnuTV+G/yzwlyWA2tCXfvzH+t28SfQHOt0gCrwtBcYGmwt/X3mIWrAV9jWyLbfiVjHRprabmoK1ocqj3qgFm2Qln9oOf9FWa1vDSiqHf6vxn/AZvuHGqheJyw8BDyDuJR4WI940s13o1w5w7EPYZDOaTwjytxs/5hsg1tN6plUwdlnVBUk569Tf8ckHnrcH0S//Li6nr8NEoUniX+mg2fY3LONWVtxSvx3+yf86vBJA84nflPeAJKta9g/+OQzDHJVanCdcpcyDr2S+2a4EbVHmN7uf2f7KaPRo79GxWvzaiVFwF7r6t/frdUh41e/ty/99u//bsKihuL+fGLn/1Cm1kPxfnJ+/5elpeMW7yXjgSxO5aK/wHusL74JT5TQynd73//H2/+P/jgK7bRRq3u+tG9P+TvYysfVPn3f/Afr/vPXNhiko/wAOsBP7IxB8POb+K7oCv+e/ic3P9wq/+PP/kEZ9sy/nu//web/19+ws+5HcqI/+hfQHBLFP5yjm7wf+9d/D45FQfyvd/6zc3/e+8f/8bDwTe75b8P+qMK5CsI62/91j8q3gJVj7G91zX/Nc1jWMd+x3IpOHL8GiIDIKVCg5mzj2t5rfSJXOMwelOVMQxUy6rTCXq5mxiGoSLVGLmT/oEA42ejd0fRwX/hwkrYGD1tEPLwwyZ/w5vLwn7f0KiDSnc5FNAM3hetK6j6NUgrRB9Srzsi+aTWocQRdOmC/pVQ0a+bIgm5lvRPRRQeSvZPBvLmqv8oa8hl1WMcKu/gjv41SGZQdfyMPv5t9rr/ulxMPCs2Ze8V/wl9+QUV/yAqIvkP7RlYT7wYabBaYyfov4ptnftvIQJgAIoPuCANaRQM9NYzlNFlL+ImB2PKxWalLdnjen/FJlRi4fSP9dHrISARoAhOYWV8CDJK4fbAr5+kLhwLTO4DIY87Jm3M0u+vakFBL2GLT5O0v773V04jYMtS9qd/aaKSaJOjc9W/+c/lH7OlK8a4+/cE9vipWPp1fvPW+Gb/OJQKf77xkosGbTpItMM/e13sfoBx5r8gKVyS1l40oAZ+INM6Vj47GwtVCYqOsod2XVIZ8wE3FC08XAnoNoaPusmoWI1eD1hDWwRd0bGVNjYg3VnoZfAuKH6EMUxDixcqbUtjKy0FKp+ff08lj+czHWwMTt47tbCpaMCrba2I+cSBEvI63uJFQqt65p+4ueFL+ap/eoyxjKERloP/vkWrARxGv2mTwo/zv7t5Gv+cFEfbI3skl39xtvh1gFEBxX739c/dnVooSKf0L+O3HXs03aoRoRXPzuJ0k0ZkJnoxsguKH2EMc9TihUrb0thKS4HKHr8mmMFHXfEjxOAmm2jW4pRabKUt75TuLPQyeBcUP8JL//iQD5KPSVoDqVrXmeEOvPIR+9bDaDA2/Sj0FDlZM70RQ8f83fbP39emdwABCzH9P3/3n+Gw8YIRqY/w3VL9ZSjKwSaP0qDqu4vcWnAdqeEbDd+v4Tld8fiO5Ze++OW2Qb3vf/8fbv6//MEHtVqUutDfTev/6cPPbP/RZ9SyIiiNQd+fyvOc+OuclGs0qxgdzcy/X/KdTMlWkt/m/wtf3J95fe+3+Dk1F+bdv//930fH/hn/J598KmEOdM208p9+HiLQyGqUbtru45khLx7+HF7iu3fv9/H76QSv5nzv3m/hmVwK/b/73juoY8moUG4Oqbud/y87fuwMwC+0CT56akyLoa0ECiwvSulZOBaqGBfNWkpaaMsgYuku+7+PL7z7fYJCAxs8yPDi8QivI4UPn2eRUeuh3xqEXq+XZAQ/OsBaQvTFQgUde5EZ0Rf+pdBaUuRwKqstC6bN84E0ORx/8M/+5t9z4eF7W/yJ9zb/nN4qmQfD9Tw88aN/hQRsnwR/2LkJf0zsMn7Ppv335ByzujDJ2RGnu5z/Lzt+v0QtoFczFsLZIVEWhJ26YA2+pYNRK4grlJiuepOAWKlIWfXU3B3/xHHiyl/wwU/viMeKhwJawqJnQNgNZD/UazzCZnx5h+GClocdB+gZE+8QrEe57GAMN5VoqlOgXpqnwd8fzuDdkQsNlvHpf3jhxr/J/0X8mReMz3nenH/0zzgwhxv8E7Ob/Nsd8KcN/dyGPxGkGx5ScuZBR//ScuURUCiIlsgS+38a/IMLnVYJqfZu778+4HYYgP/MIOJ2XJBOaImsUPgygVTU5gYdnAa+FrMZFEWYoXv/7fXvOBM/ezoAgL9QKqh0ZvBd1axL7uygRRXeHXUh7h4AluWUejlA5S9pCfPdf2w86frT+jX/fl5F20f/YOVwHmu+x48jI/H3hJJnxUiOyQN5e/yO9Zp/x5+oAVT9zwxoitLgb7uG07r0hk8B41CzDo+jI/5H/xpjp16bjUFvEUqg+E1VjWmMCGuOpatmSOUcTE9ijYuLzpUw3l7/7wpXgbcAYth5bsPnDk2TLzDZhjJDY0omLRtpztatoUyPWoPN3l3y/6//1b8RXISEcf/8Z3gmFzTA5J+t1bM00nwXkoDhf9Yk6yfMiDYJvubjsyy0X/yiv1vKDUQf3/8n+ZsK2pb3PvjKB/LPoSmyxVsclMetfzam3MYAxnLe9O/zmF/VR19zh138pz5nlPWv93fpUDK650H/OP9xqTmj039DoRj+7qhjZUS/j9/35mLep/ycHAT8TGDHgrHEl+fAI/za4IU/5nvA/+OPP+l4aP+P/ugH6vPukXej3/3ub8idpkMFlmpn/HM/WddKTxt/O9gcEmu4vYP+uXajEIbGHxSTMgpcjkOxuphLZqYvEqBLZ8lp1kzxdsGFrbvgn2g0XkC5F6UuLnppqrXQlqgFwnbMqyKM577jXZOe+4DW5iTO5EPoZaxtRD55RPuF4k9j9in/RS//FZn827XmhWErfh42NamKn9Ok3W2qZknCasngH6XtPUH8tCzcOF+Uo//r+MPHFfw5T/1nTIU/ba75oUN+eLtg8UVx3aLw7PG3L9lEdYf86yWqFkLBE0yC7wXQsohkxSvekoBcScSOivVIellQt0kZslovmrt32z9w4UYWPAaLbywYQCyP+NQx/rwTsjI3JUgPtD5fNi3kTQNrbcR688JjMNAngBbgefD3rLyO9TRKc2Ekfpl6m38c0pi/7vYeFz+ioYrUyp1D2Dj0KmnXTxA/ATKM3A6c0zX8/VzU+HsCO/7wyHHDv9aCE9HExzzP/DeAVT9P/h0yYsOfa6EDzpvCC6DrBFcu66FMUaWlM+WZLW6tYS2uF3TEQMWxqFrvTUyFu+qf9wvYvHVQ6RNwfEaluwNgAtIfo/AqCUoBiD5lut/w5ufxplLr198U4CoHf4ylaWzjaKPluGfD/+hfVjh/EH1XdNV/HcZ82Y1/t8UvEBhC/aBRcbSu6bcjcqe00LnqP9r0Hv9EBcrCn3YxFo3xX/61VMB4x98fiJHTwj8xeeKeJ+Xb9NCnf3NZ0yF/qImiYapEmhoiK5TNkl46gJ018lJMmR2+bf7fZViO3QBoqzQYDlooS9EwLKjSJyzglk5h7lVgDT4X2wtJa1H0NrvL/n/84YeGiyDwTk4Pb4gwMXIhbrrKUQV62mCs+J8vN4ItyC/p97lpxbRPvv9P/pH0H+q7n/fvfQWfc7Nt+8CQ51x/WhjrzylrPuaqixM1/u1PNSfvTOBUdArBzrgL8jyjS7vmSJ1DUCwd/ikcCvkbCsk/PZMzgJjmo3u/9/v/0eqF/y9/yWdqNEDL/KG5I/7g34D/Rx/xb2J4CjynVKAe/+yf+U9cjbFWTjgZLGEj/ImU8ZduDclISlncv3n9+Ri4FU1mVcgmXRrFntJoWK/UyTwULnQON/nolVfqSFuzUDU9kL4j/nlQbfE7dj6pNpubH2jUoWCIzRvoNvIag4pWeEOi53OUUvAi8aeDrK5o9iuUK/51tvBdXMh0WDs6H9TU77nF6otd/8f5p1cXtvgR/mzxnz8b/uZRCNFWCHOFJrhbg4KO8cz/l33+INO8NHVR2xYpHS6qCpqiInpsS3178NVanS0bTv9EQPjzpdTAWNgBe+OPVMCd0MJfo1qf17ACerUwx5ej3lzAv4a0HmRRfub1rwnd7J8SOrZ/z6EHyb+mRZbPPRAuifVF5t/j/C/86+5S+BNFRHCBP5n6j+Y6/oyB8Sl+NgqWRIqlz4x/zNzQ3nX//fHQWoUFkw61SrHcMo41LMnSnxSF9ePlo7CvYSV003aWIpUxPkZAv+X+j5tDUHBjAUThg/jFQ8WWP/54rTuSUTNgcj+C5t0Qz0wWWtAmUq8UxxAZlayqJ8TfvjlmGLvw70OO/qWficAHZ8Kf+KdcOk/on0MvSozGnxSM4e7fvp8Of9upldFkZfOG+C3jBDzOc1XEG2SJ33LULyn+u+b/Xd8i1jIQ96xIHSqT5XSAAhOHervQ2LGuy1HEaVuBl1GOVzOkg8yhNlntEMy3xf+v//q3ERbBQEFcH35Yf+MAL4343U29+WmRan1ei8kPAPj8jX+3dJZ/wmduGMcH48SOz9zYlgervkD8aftY/L1NPk2sz5C1Qh3ZfIlaJ6/eBU788w4J8SsOjF1zr0jQPOv6f+F9/13VGP2t3/rrG/5/gO+WuuBAAo4f8XNuKI7Tb6no7MGkahmszhq8r33tqwP/jJox0BgUGZSaionjB+kAd1b3oPes8dPNXfKPOzgizaDxQ5LtKCUtjnvOR6I8FAcZmxF7qw0FHYDuR/fO+veHrIw7Nj2hIW56Waa18F2YsfQHZr0/gByeoM77gqzHQ9rEAG0C2rpY1LXIz4v/df90Tv/2vPzz1o4T4knGOfAgrpOOXZI9NRD477jBV3HvhebfY/xzBn6flxM44g8OJtNT9iRxUVrxe9RB48z/QopLXCtMiEgeoWpNEk+//tgiVUI0+PQUb2gHadXjwi6FmIrpTIx9a0FDRIe3VO6cfwBBwPhDTBI/Wv4jyvzH/1JLS4nZFpQOFTlGD+shd+FIF7PQF/H8+GtuMp/J2KbCuPDvaPTh1ZKR48AwP5KJHx3Z1rQhKH3piKeRDio61a5oI14cm5nx0yn0+EPy4N8z9q2l1HB4WR0S6NOeLySZbWFKQZ3nNo4+Ctnqi3h+/GVOlS3TA+e3l8W5a/7rLbqAQ1gChpfRQGExJ7vQWynG8ZcK6wN8WfzSgrrtYYxc323/xrHw010P6fwQ7Im/sWIaexzBJA/6GMvDgyP5sYRXhv9V/5yW58p5cj4svB/Sw3qeCvwBe8bvX7LJCPLjUS8z/272X3eXnCGno6k4jsafcemkI+75B0WFZl0GGUpmOESElKAcqRywQqGClNQu/5S5eN6kOX7pWgpu4U95PEjrDvl/1wvhTSFgGqsmxA58Ac+tuV5sAgqYwUrbXzPB6pDfBXR3qY9e99ttExrW8jZCwtyMj9+0b4L//+l//q0tPdnxvnf8f/zHP1CU7FHwdTzjYWGMvP3+O3/37+jw8D67f+/LX/5i4y9FKb9M/L355V+vPHmw1psbWXS8DORm5GrpzRHweWVlDGTyJV1vVtjws7cSVhBe6ep0Y+7zrP/7+Lum09Nv/Sb+xgLM+ki4r++W0gt1OFf+fr4U8r/6ta9t+H/r29/stXHEUDrzX5gGN+JI7FRAZP3U78VoImrW32pbyfjs+7Tc/7pEtTMMxlqwxs/ianG9xBC5R62UaCaf01oO/VLQSFRHCxlP/TvtH8Axfm0uPGQXcOj7GwpYRmIf/Kkn4Mi3Kt+UYHm1+B/9I6kUg+ekaGpeesWGSTO+mrLnq9r6K34GpwClSzsqid891dZacT9v/Jf4003FKf/w2NOb8fs16Yqfc8ZPTVARoFKrmbvK/NnLmvYg8qRWo15B/Pa4ZvUm+889uCBkYA4Lda/C4GkBRuDBnKNbv0x1Q30LNRLVstBKRQxfbW/waGlkb9Zaqq1/tPnm+OcfmTE2qOu7ozzUfPfDw88/jJALx5d6LEIItDeHeat+RfEP/70UIjRTTYdLpx/OHvRxvo6VqoyfLQ18Tutf+POCQgQ5J81GT63Nwy8aUVGYN8bP0dKwHXRtz2P3evmqIRob/9R9m/N/W2tD9tzxHw44LyKB5CqMZRGr2EVjMUpHC+BVaL2diN2etW2vbqlHD9275L+wY3oLEvYZvzDgy0vyyawNAKX+Nebg6kHqOkfAOZbgugAXtbo1IHroyjfZ9LvK6q31VxLd6N/fObW/OMQ9Ekh9K4umy+i1+FtYU7jmX7wlWJNtKnHFf+X26rZ1sWgLPz6Aq1Ma/OAoOXy+pfyvPs9svjS/Xp7SP43Qv4ztNldv4S/eElyZwt31j4smU81gXseIN+x5RlIaHCGyiQOoN/Gnp11n701zp//XGf///J//v9rYXMF79/7Tf/pD1Lid0e5nkkyaOtyY2HBKu5yK3ICM8t69v/bXvqvW1tx/neOvjYCZz3JzNq+dtuvsvd3WGf+znz+87gjNOrrSBc98LqBlrdFr6pTMYjBFU6C7OrZV/XWViz0L0lvjYuD0b2waodcK/3V5xPr3FEHo5RvXEOtHJf7oYMP9ZhT1bI46yKTQVGUa1XM7jWe/snCSZ/414IDl3H/KmyRIdXDABaTiVHcpT+A0uqvOwTK6WUoHMiUi+rSZzxkt+1E8/ReMahY+bwL+XEO8uaBJc74galnZ6EUqkoV3bQ8e8I6OGrm2lqLGgk43fVsTJsfqzL+JSG4EcoFYsru8//gaQRdXZpYSs3BZv9WhMo5JS92uQEgEji/jJewctTbEseB21jSW4af/Nxd/3a51GvjNeWYKDzWsP5acm4zJprs35QTlLk4ffXBEDOoz/5gRK3usrzpDlUronPlXQLrxDiNNbBaC5s+6hgnPt3P/6YBjQrGsa4D7qRdgBZauwJAWMMpgKktxbFO+FClebHmMBjbr9G8o3kj8+XGWB/jRqeRDiRmgWLL+dQDplak2XNafLXSZI8gpflqOCaO/PSGJ0tMphD6L0unMv7GNgMjaQEDo3H/JLj4zcQYpdcxuIXBrWoRSS5qsnGggJLMm60ptqkDJfGqHUpJvKWvVeIseVZoWcfoPUoI2lbAxUqxfOf68ecMBxqWm/7xnqrOt1p/7L4cbW85RGaSNWccabFjmbHmEj2Pk2w9OhHP9Adr/3961bUlu5Mad0b7a1rvXx///WXu8/g2tEQACCCTJbk15NZrpBo+UiUskQAaRWSyS1VObs4HGT703Ln738/+D5/cFLugxtkzQMvKbw6A0XEGugwXlYgAglufARa1HaedZObqOEYksFr96hGvzg4GD1yC8ufuz+MdXz/hROnbQ9sIWPr/Phl023xf81U2zxP4BY//jdpwVhq+ROSZQ4f7CP6ViRj9sM4cQUaD+KMeP/cJe1Z75DpeWn/V6/AbOg4rOsBkDh4Vt6z8JCmqCFDc1r++df1/gHI7FRMYFw33lFdHBekkldM7cIXgOHD6d42NcnPyEh2nzXzjDVw9hFCxdMWb68/m3PbBzGT/D8r3Mb02593bu/WrMiwCHkMWBMRiKISmkp4JkhNDRDkCYHRNBHnFbf0ZN8l8kfoL5119R+T0eJSJVxbq5qasCtu9mQiKebY4h0OLHnQIaABB58ztnxZvxIeyUjyeqfd+f/1/++vUvf/3ll7/88kv0fAXETyF3DPsPOf/HWoYFb9wh8V8I2O08xLJ7eoiLmB7iBz7+Okd+Vr4//5tf58aV/17gwBQKTxlDJaoeWrf1icCpxkvwhOTwCAolljV443Z04tgZxIfUxMgA1Iljv/nJRPBm7aAq6QsnlD+A/wjrKX6zeumvBJYOX0Gxh46xJq/YYMJT0vpXvwzAP+/ke4hBDsdA28ZBhcnbPf9FRjD1J5z/3IMfNX8scFlHKCTWkpvqqooAOxoRC2zmGMfRedRUvUeTX07SnlfIHdPs6Yo0mz+JFNJFLLL+bP7zvH218+W7Z42fR55M91uTf1UETrjip1ph96+wacdBI07/7lIOWsQf5vhxLNhp3SFV3Ylm67+oABs8l+zN6X7zuelfMP9jgWNUnBTfjk8CpJWdICqh1tGpYtsoscc4l5mXPRy+bf5JyY/Mf1+L+znlVX/WBGy4KmPPEvZnDjxIfF31wfTu+Sc1MR9+5POPPcyTN8S2UWJfMB4kezh8+9ed/796+dmlPhdL7ER+zmSy2H34w8ddiGLEt4SBr52lgJ0NOT7fKTO8Ff/m/2n5//df/yP2nQtbFhLrCA8eeP7x55z8XOPUOx61MM//v/36qy12MRW6gqzGTNn6iznn9Fnj7FlDfmHPqSbC555/dgVn9HglZVF5F7ITZmVFt/deZs1j2AJ53ypCbgJaisy4+UkwyvKn49/qoxYrVAAOBgdh59oPxnQ/PtPtgyzOOSAh+x8lNH9c4xmUf6YoIB7Lh9tA76tqzGVb2EK+bxWh+bf+4lx87PkfX1G9MrIQvJNCkBIiIYDzA9tlH1+ly8rJnqXroC5Sy6OlV9rmN6J+Lv7jt6Z4mw2b1UFc1vtDBuhRK109/gQ1zz987bEj949c/wNQ6egqUdzWX7CdjAfvNAVRyd/nnn+1wE0arNC0gkBcFiQ5zEsNV6MEuxDLl5/g5SniaaHBp0GFhrD5mxuSTNZCb3/YxRuXgSARTPYHCYdgAfKNhtf5RyQsx3w9xMNaXn8qKvkdF7tjC99zfkB8AbT6IypiIo9sPEYzhV289El+H8nD/RceP+Ju/mbBef6B+Lc/IntWUiz8LBf8BQh8jcDG+nTlaC6+w3CoPtptNw41bf6fi/9//M//xp8bxisi9vH597//w861L4HecjlAAeA8//d//c1NqDDof/vbf4462/P/c51/O4Wx6SQ2y6E6xm03DjX9f89/vkmZO+W7MUuQixt2kYse0Ql3tX3YPUO7weRQ59i8OnRID8QoH9umPrmb/+fg3++74bTbSURx4pTi51hxTqPc3G5n2m3Aab3Q7pWw53/nX1QOqoSSlwYaFE5u7Qsj1x//isqCi5LzcuthjkcT94VieLgZJMHWBQ56JLQWAsy5qMGXTxVcRLP5yWqRldyY7q7g1Wks1swFuJ7lH4B/fiHGrrlsV//+b0f4+bevsuaISYtjyyOyPr7VYJQeJTA8xq0/ZcZZAV0/2PmPCS9tnVI/kdhhFED02f6R899eE8HOcC9QRKZxX2D2fYkdijb3iq4AJM1Z3joecIkB9eoGANbN/7Pzj/MbK6+9IOJ/AdPOKz5GYzX20xzn3x5NeKHjqg4Ln1kN87Mfv5d6HGDWvR371j9JsN5LwHunxaQ/cv2xp/Lj9nCmZ2o5UxDNnJ3vIJrQH5xEmdtvHMeZrlEY7QVNnPeaATK2TqxeeEJP6+kEAJvZN78yTaKWf2WlimXUKaxbfznR2AVV1kYlZT2xrMqbgtn/rPlnDyvx4hE+Oa192MEH83kYj/oYDwUb11ClaAADhvbB3IB3pDF+8wdby39WTVSHt6NQuqgezA14RxrjoWBb/oOHP3j+25eHYPppcfNzwftndnJ4fnLv3u365OJqwTakq5NLg5kaCOPY6pURw3iM4X1b6bCb37lb/rf+PtH8u/mKmgsGFjUnYrBRq0kvHGVqwWdSqrfDc7R1ftO5R7a0+Zf/rT+bD7cTKK97eroMaedf0YE/DF2KivGkY3gNl1jrnHYZ2kFMwuWYAeS+8nCXwzAjg8bzG9DDu/mX/6ijrb+df6gEXS+iMqKV9aev4ADGqsVeBxxyQJ6BV89pab0kCuyPnKoG5Bl49ZyW1kuiwF4THnJAnoFXz2lpvSQK7I+cqgbkGXj1nJbWS6LAXhMeckCegVfPaWm9JArsj5yqBuQZePWcltZLosBeEx5yQJ6BV89pab0kCuyPnKoG5Bl49ZyW1kuiwF4THnJAnoFXz2lpvSQK7I+cqgbkGaie/DuqNtwvydDDjQ29yCIG9OHqysYwlIfxpi0RxnQXBEvI5k/aQJCQLmJQtfyTkiCMmtRUMtnFTUa3/j7L/MufaqE4uMJUVQzhHkEr+zHEX+CNd52O1xEMXvfefOj9eI12j6CVvY6wHHiB1L/qbn5M+zrDRtfynxXvpXNfP1pN9wha2euIrb8fYv7ZTvgzUi3+mAn3J22ewtCI9OcC+HA0w3hZmYC7wWYb7lJKeBjVZiKZl30hCCjDFIa7lBIm+EYjknnZF5SAMkxhuEspYYJvNCKZl31BCSjDFIa7lBIm+EYjknnZF5SAMkxhuEspYYJvNCKZl31BCSjDFIa7lBIm+EYjknnZF5SAMkxhuEspYYJvNCKZl31BCSjDFIa7lBIm+EYjknnZF5SAMkxhuEspYYJvNCKZlz2g/lOtWtzMEA8GOCSiQYtlCF1obsqG47mosQ+34RPgI605I3A88JvfWbCmWQm+krXlHwSNjUyx7tgHyHjb+nMqvIKsyUoqDskfDB9t/tkrZjpjcOhSDS6KDQQ0oq7U3KYOw8ztTadABVdiCY5TjSu129QhEUN80ylowZVYwuY3BpSN5d9mi80R50SJkYoK8U2noAVXYgmOU235f5//Y4E7Ctgo1dVdzoSJQbUSPv1TO9Gu3wxWk8ozGrTwvo3pUSfa9ZvBalK5I1EK79sYYq976+NuBqtJ5Y5EKbxvY4jd/Cdbrt+QpyaVm0lK4X0bQ+zyf7Ll+g15alK5maQU3rcx+RUVQwDEpgtayPkLgEIYyMHw3j2xQhRGgxxbxIoxsPgzwDA6gCPElPuy+YMbMmR0uRhcKl9O5GCzLYGLMbAu/0aikEd2xbT1l7UU3JAhM7oYtaR8OTzHtBxS4GIMLN+r/uweXOx47WgdBwU+fStEFcZc3rgQxe7PNc5iZbj+aT/jhYMacTXAqAhfITZ/UrH8S01Y4bBivUBasYI0JfWtP3LGPoihRp6KsJ98/tVvUeuA8ki7PrRwsHj1Vq+suYkLUUYqxqCbYv8hJv74IbaOT2BaUm3/5m8unLpqlv+iwoStvzGTqBgzn3n++VPUeMyAi8aeSv439b1+yFT4vCXMXaZEgFq1OMIN5qYevbZRoJsfPCz/W3+cWFYN8TjT6yJniXeOIMynkik7/5SiWm+w/sRrIrkC9Wdg4Nmm21WX7dKhiTYLn8u7U8oUJyltjCUDy9TDHVx2Cmp1efMLjcZIE2iULf+c//Nt5qymLlyWl9CnlVZumTBZzlt/P039+QIXpzLKoorDznXJLsyT7xoa9wUSLS6HC1nfofyWoqeJD6ZCROrwSGuiQSKqyS7MMa6hcV8g0W7+5b8qZevPZgS2zzv/4itqkoDFoooDtPDS14yxhJjRBUG5GACI5TlwUWt+N4BBKmjE7hgG8G3zJ+tBTZBy8BqEN3fLfxbPwdPWH3j5fPOv34PDYsavOlkjQUksWqiXmjziV0ysWPcoH38JIobNv/xv/R0zq2eUzJRHTKMvEL8u8UV+TE+J+kHnXy9wyokct5tPvbBXx9VS4BYMNP9Ge7tcOoOcesGvjqulwC0YaPOPL/PNDaSTxFMv9NVxtRS4BQMt/8u/3Ezp2oB0FtGpF/rqOC1yDy4CA1CXavIVtWKqUE96Yp/QXj4ggPegaPoGOA7OzSNeQhlk8wc75EO5grz8FyNRS1t/o1Q4wbxH8/nmX1zB4dgHM7HQtEkAIlZ1vSowFnuJM02iiSjw10TGYi9Rpkk0EQX+mshY7CXKNIkmosBfExmLvUSZJtFEFPhrImOxlyjTJJqIAn9NZCz2EmWaRBNR4K+JjMVeokyTaCIK/DWRsdhLlGkSTUSBvyYyFnuJMk2iiSjwRzGu4HolS+DxSYjVD4GxnVi302n+EksoU1sSxljsPQGazT8pMY3kTUfa6Vz+i6cWShKWwkYu2W/9JQMfZ/7ZAmeXrXLmQ5xn3G1mEljJl9c+aiiFJku/lNK7+Zf/rb9aWXNe9eyAZ+efkWCUvLL+yEMGDM8o43GL2kn3PAGw/t4to/neYnHsSJqnUBZW7ciivt+btXE12oTNv/xv/XFu6DyrWdLzrUwlcOA39TXahO8x/+QhQ55q756utXAsgbt+6mLXc6Pofd/YhDdHu5AZc1Bq3m1+UkjGQFLYksEGpP1iyAHLvzCz9eezzRixMsoZ96HnXy1wcxrYwesKBgpOQuLNSScniBK66MsrwfKw0uJ7rY2lAVLLnm7zO7fVLP9zQrLGjKCtP58xVSr1D0ft/DMqfrOVpFag4AhLDU34g7/xD7fEckR7s3kd4xYNYoZDbciNQ02bf/nf+otZp/MiZl23F99hONRPM/++1kpWh9yLG5YlFpfLzWdIYC23XvjCGBdpJiem/TYgr87cNh0erU2bf/lnNVgtsNjYb/2RCeFm5x9I4frjDxn0KqlWJFIGvvJSl/XEQnPXuDYLS7FOwQdac/NTHEA2/1zIg7Zk2SkNXp1Gcy7/wVCzMhkJr7ROnDVbf0JKix95/smLvlIuXhBGAOumuXiUxpChXIdc3DDIIlq3Vzb/lbwHy+B0KNcBF/fyv/X3QeffVy92X0hiNfHnlxBdhTenw+xq1oQ5vj6MhSnCBc5A+hABOcKdVlfCsvmNLFDhdIDdYPjolv9kINjZ+vOSyVLp+mmSPuv8syu434yWeC0jF/GaPBTAWyw/tHxbP8brSfAw4fV2ADvHg7kB70hjPBRsdUDh9XYAA4b2wdyAd6QxHgq2zR88JLvO0SAq3dY9mBvwjjTGQ8G2/AcPH5x/e00kzvTT4ua1wFc2rDhYH8nOu10Xl1ytVXF5dI+x+Y2GwUtTW6/sLP9bf10Wv0v67PPvi70lUm+lDcawqPmEu591TdwYFQqc3G6H52jrkPweYk533Hrf/lTf/GT/iVzzG6/L/9aflcHtDPsg8/9rfDnN+TAWBhz28JqeAOucFMVnCO9wOWYArpwXGB2GGRkU6E+8hnfzL/9RZVFeVY5aelt/xsDOv1p/+goOiwtWLfZeKfdNQJ6BV89pab0kCuzvU7s1IM/Aq+e0tF4SBfab/5GBoOiZqKvntLReEgX2j9lZos/Aq+e0tF4SBfab/5GBoOiZqKvntLReEgX2j9m/7fzbFVxuFPxmGGzIhP+xWS9iQB+urgzIUDEWbVsijOkuCJaQzZ+0gSAhXcSgavknJUEYNampZHLrj5OLFfV55l/+VAvF0SRUXYhwj6CVvQwwsV8gxAMG+QPFBq97bz70frxGu0fQyl5HbP7l36rOb3Vs/X3a+WeTwJ+R1vJWa0UJc9W40Yj0+5L4cDDDeGmcgJuxMA13KSU8jGozkczLvhAElGEKw11KCRN8oxHJvOwLSkAZpjDcpZQwwTcakczLvqAElGEKw11K4v2KGAAADW1JREFUCRN8oxHJvOwLSkAZpjDcpZQwwTcakczLvqAElGEKw11KCRN8oxHJvOwLSkAZpjDcpZQwwTcakczLvqAElGEKw11KCRN8oxHJvOwLSkAZpjDcpZQwwTcakczLHlD/ayK1uJkh7v9zSESDFssQutDclA3Hc1FjH27DJ8BHWnNG4HjgN7+zYE2zEnwla8s/CBobmWLdsQ+Q8bb151R4BVmTlVQckj8YPtr8i59q1aHi0KUaXBQbCGhEXam5TR0Vj8KbToKsF1yJJThONa7UblOHRAzxTaegBVdiCZvfGFA2ln+bLTZHnBMlRioqxDedghZciSU4TrXl/33+jwXuKGCjVFd3ORMmBtVK+PRP7US7fjNYTSrPaNDC+zamR51o128Gq0nljkQpvG9jiL3urY+7GawmlTsSpfC+jSF2859suX5DnppUbiYphfdtDLHL/8mW6zfkqUnlZpJSeN/G5FdUDAEQmy5oIfNXbEQYyEV4755YIYpgodoWsWJM6IYJo/s5Qkzp3vzBDRkyulwMLpUvJ3Kw2ZbAxRhY/RmsDGZ0MS3/yeXyDyJYIRSjlrRenC5vBJvGwMUYmL5X/dk9uNiZ2tHaNwp8+lmIWpjm8saFKHZf+fAcGa5/N8F4mz8ZQ8fTIcLyH5XCejFqUtz6E05swnHGOkGtRC190vlXv0WtmVXFY7z4psTRFn29suYqJ2JGEu69EE0Hx19yUPNPYFo2v7PZ/Cz/zUXUHdutPzKBfuffWElS8aeo8WAOF41dSl/icYoTFzSGz1vCPIgpEeBcI20YfPWBmx+8kZk7g9ibHyws/1t/nFhWDTv/MCls40oR3HhLmn7H+hOviWSM/gyI0GyZotLZR2cnMi+fy2dC5p9v82a0HsjwMlwzlbsOcfPn6V7+t/4wGXwu7fyTBcRJ0fXHFzhwlWwFZ1CNtwamAV1uvhShkQULIr6Oug+4+g7htxRhyfdsCuG2aCJb5TRIyS7MMa6hcV8g0W7+5b8qZesv59fnnX/xFdVpsLKwFaKKw2z1d8jCFWT5WiIoFwMAsTwHLmqNt4XdWStYaB0jEm3+5T/rJEpj6w8MHPMqJlzPnZ1/uXokT/0eHN8aTD874EAae9q1b19L6ofsnotbDJvfiK7yLPrIEPtyiNC+lsTtonsubjEs/8v/B6y/XuB0Rkjd9+xQAOUT+PZCyFFY7f5pl3TyZapcLpxhT73QV8fVUuAWDLT5l/+tv+sH6kebf3IPzg4NEx9HyOOOx5ut+9FLU096cpyN5lBHeTCTvEfTz8lQXHRXRDO4jUE2f1BDPoqoFJb/YiRqaetvlAonmPdoPt/8iys4HPtgJhaaNglAxKquVwXGYi9xpkk0EQX+mshY7CXKNIkmosBfExmLvUSZJtFEFPhrImOxlyjTJJqIAn9NZCz2EmWaRBNR4K+JjMVeokyTaCIK/DWRsdhLlGkSTUSBvyYyFnuJMk2iiSjw10TGYi9Rpkk0EQX+KMYVXK9kCTw+CbH6ITC2E+t2Os1fYgllakvCGIu9J0Cz+SclppG86Ug7nct/8dRCScJS2Mgl+62/ZODjzD9b4OyyVc58iPOMu81MAis5viUJvkQKTZZ+KaV38y//W3+1sua86tkBz84/I8EoeWX9kYcMGJ5R/J0Okqx20k0f9G/bMprvLRbHjqR5CmXB1Y5c6vu23GO0hdn8y//WH+eQzjOdY2ofM4gDv6mvyCZ8j/knDxnyVHv3dK2FYwnc9VMXu54bRe/7xia8OdqFzJiDUvNu85NCMgaSwpYMNiDtF0MOWP6Fma0/n23GiJVRzrgPPf9qgZvTwA5eVzBQcBJSb4mTKKGLvrwSLA8rLb7XWlAaILXs6TY/aOht+Z8TkjVmDEV9VZWheIO3rT9np5jhFPtE8y//0ZmeR5DAA0npf7hk2ueIG58GOWJyrEMOHHxq2vx2DzNfwFReyCH7i+8wHKoPc9uNQ03L//L/M9ff11rJquR7ccNSw4NzmbOJPWZCblwQY3my1g0GSEz7bUBenbltOjxamzb/8s9qsFpgsbHf+iMTwk2QsvMP1FjN2Cc0trGQBWtZTuArL/VZTyw0d83rLYBjuLY+0Jqbn4IAtvmXf13Io3S2/pwHn2Q902DjDGvrtAR/0gKIefoJ55+86Ct0OSHGCXkTrp7EMWQo1xEXNwyyiPIWyua/cvdkGZwO5Tri4l7+t/4+6Pz76sXuC1msZv78EqKr8OZ0mF3NmjDH14exMEW4wBlIHyIgR7jT6kpYNr+RBSqcDrAbDB/d8p8MBDtbf14yWSpdP03SZ51/dgX3m9ESr2XkIl6ThwJ4i+WHlm/rx3g9CR4mvN4OYOd4MDfgHWmMh4KtDii83g5gwNA+mBvwjjTGQ8G2+YOHZNc5GkSl27oHcwPekcZ4KNiW/+Dhg/Nvr4nEmX5a3LwW+MqGFQfrI9l5t+vikqu1Ki6P7jE2v9EweGlq65Wd5X/rr8vid0mfff59+c3u8N/OKyxq7rj1vv2pCla53Q5P2q1D8nvI5l/+UUS31bH198iMOXb+oXB8+xpfTlMbxKCwhtf0BHDtUXyG8A6XYzacK+cFRodhRgYF+hOf4d38y39UWZRXlaOW3tafMbDzr9afvoLD4oI1jb1Xyn0TkGfg1XNaWi+JAvv71G4NyDPw6jktrZdEgf3mf2QgKHom6uo5La2XRIH9Y3aW6DPw6jktrZdEgf3mf2QgKHom6uo5La2XRIH9Y/ZvO/92BZcbBb8ZBhsy4X9s1osY0IerKwMyVIxF25YIY7oLgiVk8ydtIEhIFzGoWv5JSRBGTWoqmdz64+RiRX2e+Zc/1UJxNAlVFyLcI2hlLwNM7Bd48YBB/kC0wevemw+9H6/R7hG0stcRm3/5t6rzWx1bf592/tkk8GektbzVWlHCXDVuNCL9uQQ+HMwwXpom4GYsTMNdSgkPo9pMJPOyLwQBZZjCcJdSwgTfaEQyL/uCElCGKQx3KSVM8I1GJPOyLygBZZjCcJdSwgTfaEQyL/uCElCGKQx3KSVM8I1GJPOyLygBZZjCcJdSwgTfaEQyL/uCElCGKQx3KSVM8I1GJPOyLygBZZjCcJdSwgTfaEQyL/uCElCGKQx3KSVM8I1GJPOyB9T/mkgtbmaI+/8cEtGgxTKELjQ3ZcPxXNTYh9vwCfCR1pwROB74ze8sWNOsBF/J2vIPgsZGplh37ANkvG39ORVeQdZkJRWH5A+Gjzb/4qdadag4dKkGF8UGAhpRV2puU0fFo/CmkyDrBVdiCY5TjSu129QhEUN80ylowZVYwuY3BpSN5d9mi80R50SJkYoK8U2noAVXYgmOU235f5//Y4E7Ctgo1dVdzoSJQbUSPv1TO9Gu3wxWk8ozGrTwvo3pUSfa9ZvBalK5I1EK79sYYq976+NuBqtJ5Y5EKbxvY4jd/Cdbrt+QpyaVm0lK4X0bQ+zyf7Ll+g15alK5maQU3rcx+RUVQwDEpgtayPwVGxEGchHeuydWiCJYqLZFrBgTumHC6H6OEFO6N39wQ4aMLheDS+XLiRxstiVwMQZWfwYrgxldTMt/crn8gwhWCMWoJa0Xp8sbwaYxcDEGpu9Vf3YPLnamdrT2jQKffhaiFqa5vHEhit1XPjxHhuvfTTDe5k/G0PF0iLD8R6WwXoyaFLf+hBObcJyxTlArUUufdP7Vb1FrZlXxGC++KXG0RV+vrLnKiZiRhHsvRNPB8Zcc1PwTmJbN72w2P8t/cxF1x3brj0yg3/k3VpJU/ClqPJjDRWOX0pd4nOLEBY3h85YwD2JKBDjXSBsGX33g5gdvZObOIPbmBwvL/9YfJ5ZVw84/TArbuFIEN96Spt+x/sRrIhmjPwMiNFumqHT20dmJzMvn8pmQ+efbvBmtBzK8DNdM5a5D3Px5upf/rT9MBp9LO/9kAXFSdP3xBQ5cJVvBGVTjrYFpQJebL0VoZMGCiK+j7gOuvkP4LUVY8j2bQrgtmshWOQ1SsgtzjGto3BdItJt/+a9K2frL+fV55198RXUarCxshajiMFv9HbJwBVm+lgjKxQBALM+Bi1rjbWF31goWWseIRJt/+c86idLY+gMDx7yKCddzZ+dfrh7JU78Hx7cG088OOJDGnnbt29eS+iG75+IWw+Y3oqs8iz4yxL4cIrSvJXG76J6LWwzL//L/AeuvFzidEVL3PTsUQPkEvr0QchRWu3/aJZ18mSqXC2fYUy/01XG1FLgFA23+5X/r7/qB+tHmn9yDs0PDxMcR8rjj8WbrfvTS1JOeHGejOdRRHswk79H0czIUF90V0QxuY5DNH9SQjyIqheW/GIla2vobpcIJ5j2azzf/4goOxz6YiYWmTQIQsarrVYGx2EucaRJNRIG/JjIWe4kyTaKJKPDXRMZiL1GmSTQRBf6ayFjsJco0iSaiwF8TGYu9RJkm0UQU+GsiY7GXKNMkmogCf01kLPYSZZpEE1Hgr4mMxV6iTJNoIgr8NZGx2EuUaRJNRIE/inEF1ytZAo9PQqx+CIztxLqdTvOXWEKZ2pIwxmLvCdBs/kmJaSRvOtJO5/JfPLVQkrAUNnLJfusvGfg48+//ALcXIy20xpIxAAAAAElFTkSuQmCC;" vertex="1" parent="1">
          <mxGeometry x="245.47000000000003" y="420" width="49.05" height="50" as="geometry" />
        </mxCell>
        <mxCell id="BkMy28ecUS5TTP7sYMBF-16" value="&lt;font style=&quot;font-size: 10px&quot;&gt;Launch View Controller&lt;/font&gt;" style="html=1;whiteSpace=wrap;container=1;recursiveResize=0;collapsible=0;" vertex="1" parent="1">
          <mxGeometry x="212.5" y="485" width="115" height="30" as="geometry" />
        </mxCell>
        <mxCell id="BkMy28ecUS5TTP7sYMBF-17" value="" style="rounded=1;whiteSpace=wrap;html=1;absoluteArcSize=1;arcSize=14;strokeWidth=2;" vertex="1" parent="1">
          <mxGeometry x="370" y="200" width="140" height="280" as="geometry" />
        </mxCell>
        <mxCell id="BkMy28ecUS5TTP7sYMBF-22" style="edgeStyle=orthogonalEdgeStyle;rounded=0;orthogonalLoop=1;jettySize=auto;html=1;exitX=0.5;exitY=0;exitDx=0;exitDy=0;entryX=-0.007;entryY=0.711;entryDx=0;entryDy=0;entryPerimeter=0;" edge="1" parent="1" target="BkMy28ecUS5TTP7sYMBF-17">
          <mxGeometry relative="1" as="geometry">
            <mxPoint x="354.44500000000016" y="538.01" as="sourcePoint" />
            <Array as="points">
              <mxPoint x="350" y="538" />
              <mxPoint x="350" y="399" />
            </Array>
          </mxGeometry>
        </mxCell>
        <mxCell id="BkMy28ecUS5TTP7sYMBF-23" style="edgeStyle=orthogonalEdgeStyle;rounded=0;orthogonalLoop=1;jettySize=auto;html=1;exitX=0.5;exitY=0;exitDx=0;exitDy=0;entryX=1;entryY=0.714;entryDx=0;entryDy=0;entryPerimeter=0;" edge="1" parent="1" target="BkMy28ecUS5TTP7sYMBF-17">
          <mxGeometry relative="1" as="geometry">
            <mxPoint x="524.875" y="538.01" as="sourcePoint" />
            <Array as="points">
              <mxPoint x="530" y="538" />
              <mxPoint x="530" y="400" />
            </Array>
          </mxGeometry>
        </mxCell>
        <mxCell id="BkMy28ecUS5TTP7sYMBF-20" value="&lt;font style=&quot;font-size: 10px&quot;&gt;Open Market View Controller&lt;/font&gt;" style="html=1;whiteSpace=wrap;container=1;recursiveResize=0;collapsible=0;" vertex="1" parent="1">
          <mxGeometry x="370" y="485" width="140" height="30" as="geometry" />
        </mxCell>
        <mxCell id="BkMy28ecUS5TTP7sYMBF-24" value="&lt;font size=&quot;1&quot;&gt;List View Controller&lt;/font&gt;" style="html=1;whiteSpace=wrap;container=1;recursiveResize=0;collapsible=0;" vertex="1" parent="1">
          <mxGeometry x="296.94" y="829" width="115" height="30" as="geometry" />
        </mxCell>
        <mxCell id="BkMy28ecUS5TTP7sYMBF-25" value="&lt;font style=&quot;font-size: 10px&quot;&gt;Grid View Controller&lt;/font&gt;" style="html=1;whiteSpace=wrap;container=1;recursiveResize=0;collapsible=0;" vertex="1" parent="1">
          <mxGeometry x="467.37" y="829" width="115" height="30" as="geometry" />
        </mxCell>
        <mxCell id="BkMy28ecUS5TTP7sYMBF-29" style="edgeStyle=orthogonalEdgeStyle;rounded=0;orthogonalLoop=1;jettySize=auto;html=1;entryX=-0.021;entryY=0.111;entryDx=0;entryDy=0;entryPerimeter=0;" edge="1" parent="1" source="BkMy28ecUS5TTP7sYMBF-26" target="BkMy28ecUS5TTP7sYMBF-27">
          <mxGeometry relative="1" as="geometry" />
        </mxCell>
        <mxCell id="BkMy28ecUS5TTP7sYMBF-26" value="" style="shape=image;verticalLabelPosition=bottom;labelBackgroundColor=#ffffff;verticalAlign=top;aspect=fixed;imageAspect=0;image=data:image/png,iVBORw0KGgoAAAANSUhEUgAAAjgAAABaCAYAAAC11iyOAAAMbGlDQ1BJQ0MgUHJvZmlsZQAASImVVwdYU8kWnluSkJDQAghICb0jnQBSQmgBpHcbIQkklBgTgoq9LCq4dhHFiq6KKFhWQOzYlUWx98WCirIu6mJD5U1IQNd95Xvn++beP2fO/Kfcmdx7AND8wJVIClAtAArFRdLEiBBGekYmg9QJcIABHeAEbLk8mYQVHx8DoAze/y7vbgBEcb/qrOD65/x/FR2+QMYDABkDcTZfxiuE+DgA+DqeRFoEAFGht5xUJFHgWRDrSmGAEK9U4Fwl3qHA2Up8eMAmOZEN8WUA1KhcrjQXAI17UM8o5uVCHo3PELuK+SIxAJpOEAfyhFw+xIrYnQoLJyhwJcR20F4CMYwHMLO/48z9G3/2ED+XmzuElXkNiFqoSCYp4E75P0vzv6WwQD7owwYOqlAamajIH9bwVv6EaAWmQtwtzo6NU9Qa4g8ivrLuAKAUoTwyRWmPGvNkbFg/oA+xK58bGg2xMcTh4oLYGJU+O0cUzoEY7hZ0sqiIkwyxAcQLBLKwJJXNJumERJUvtCFHymap9Oe40gG/Cl8P5PkpLBX/G6GAo+LHNEqEyWkQUyC2KhalxkKsAbGLLD8pWmUzskTIjh20kcoTFfFbQZwoEEeEKPmx4hxpeKLKvqxQNpgvtkko4sSq8L4iYXKksj7YKR53IH6YC3ZZIGalDPIIZOkxg7nwBaFhytyx5wJxSpKK54OkKCRRuRanSAriVfa4haAgQqG3gNhTVpykWounFsHNqeTHcyRF8cnKOPGSPG5UvDIefCmIAWwQChhADkc2mADygKitu7Eb/lLOhAMukIJcIADOKs3girSBGTG8JoES8AdEAiAbWhcyMCsAxVD/ZUirvDqDnIHZ4oEV+eApxIUgGhTA3/KBVeIhb6ngCdSI/uGdCwcPxlsAh2L+3+sHtd80LKiJUWnkgx4ZmoOWxDBiKDGSGE60x43wQNwfj4HXYDjccSbuO5jHN3vCU0I74RHhOqGDcHu8aI70hyhHgQ7IH66qRfb3tcBtIKcXHoIHQHbIjOvjRsAZ94R+WHgQ9OwFtWxV3IqqMH7g/lsG3z0NlR3ZlYySh5GDyXY/rtRw0PAaYlHU+vv6KGPNHqo3e2jmR//s76rPh/foHy2xBdh+7Cx2AjuPHcYaAQM7hjVhrdgRBR7aXU8Gdtegt8SBePIhj+gf/rgqn4pKylxrXbtcPyvnigSTixQHjz1BMkUqyhUWMVjw7SBgcMQ8FyeGu6u7GwCKd43y7+ttwsA7BNFv/aab+zsAAcf6+/sPfdNFHQNgrw88/ge/6eyYAGirA3DuIE8uLVbqcMWFAP8lNOFJMwSmwBLYwXzcgTfwB8EgDESBOJAMMsA4WGUh3OdSMAlMA7NBKSgHS8EqsBZsBFvADrAb7AON4DA4Ac6Ai+AyuA7uwt3TCV6CHvAO9CEIQkJoCB0xRMwQa8QRcUeYSCAShsQgiUgGkoXkImJEjkxD5iLlyHJkLbIZqUH2IgeRE8h5pB25jTxEupA3yCcUQ6moLmqC2qAjUCbKQqPRZHQsmotOREvQeehitBKtRnehDegJ9CJ6He1AX6K9GMDUMX3MHHPGmBgbi8MysRxMis3AyrAKrBqrw5rhc76KdWDd2EeciNNxBu4Md3AknoLz8In4DHwRvhbfgTfgp/Cr+EO8B/9KoBGMCY4EPwKHkE7IJUwilBIqCNsIBwin4VnqJLwjEon6RFuiDzyLGcQ84lTiIuJ6Yj3xOLGd+JjYSyKRDEmOpABSHIlLKiKVktaQdpGOka6QOkkf1NTVzNTc1cLVMtXEanPUKtR2qh1Vu6L2TK2PrEW2JvuR48h88hTyEvJWcjP5ErmT3EfRpthSAijJlDzKbEolpY5ymnKP8lZdXd1C3Vc9QV2kPku9Un2P+jn1h+ofqTpUByqbOoYqpy6mbqcep96mvqXRaDa0YFomrYi2mFZDO0l7QPugQddw0eBo8DVmalRpNGhc0XilSda01mRpjtMs0azQ3K95SbNbi6xlo8XW4mrN0KrSOqh1U6tXm67tph2nXai9SHun9nnt5zokHRudMB2+zjydLTondR7TMbolnU3n0efSt9JP0zt1ibq2uhzdPN1y3d26bbo9ejp6nnqpepP1qvSO6HXoY/o2+hz9Av0l+vv0b+h/GmYyjDVMMGzhsLphV4a9NxhuEGwgMCgzqDe4bvDJkGEYZphvuMyw0fC+EW7kYJRgNMlog9Fpo+7husP9h/OGlw3fN/yOMWrsYJxoPNV4i3Grca+JqUmEicRkjclJk25TfdNg0zzTlaZHTbvM6GaBZiKzlWbHzF4w9BgsRgGjknGK0WNubB5pLjffbN5m3mdha5FiMcei3uK+JcWSaZljudKyxbLHysxqlNU0q1qrO9Zka6a10Hq19Vnr9za2Nmk2820abZ7bGthybEtsa23v2dHsguwm2lXbXbMn2jPt8+3X2192QB28HIQOVQ6XHFFHb0eR43rHdieCk6+T2Kna6aYz1ZnlXOxc6/zQRd8lxmWOS6PLqxFWIzJHLBtxdsRXVy/XAtetrnfddNyi3Oa4Nbu9cXdw57lXuV/zoHmEe8z0aPJ47enoKfDc4HnLi+41ymu+V4vXF28fb6l3nXeXj5VPls86n5tMXWY8cxHznC/BN8R3pu9h349+3n5Ffvv8/vR39s/33+n/fKTtSMHIrSMfB1gEcAM2B3QEMgKzAjcFdgSZB3GDqoMeBVsG84O3BT9j2bPyWLtYr0JcQ6QhB0Les/3Y09nHQ7HQiNCy0LYwnbCUsLVhD8ItwnPDa8N7IrwipkYcjyRERkcui7zJMeHwODWcniifqOlRp6Kp0UnRa6MfxTjESGOaR6GjokatGHUv1jpWHNsYB+I4cSvi7sfbxk+MP5RATIhPqEp4muiWOC3xbBI9aXzSzqR3ySHJS5LvptilyFNaUjVTx6TWpL5PC01bntaRPiJ9evrFDKMMUUZTJikzNXNbZu/osNGrRneO8RpTOubGWNuxk8eeH2c0rmDckfGa47nj92cRstKydmZ95sZxq7m92Zzsddk9PDZvNe8lP5i/kt8lCBAsFzzLCchZnvM8NyB3RW6XMEhYIewWsUVrRa/zIvM25r3Pj8vfnt9fkFZQX6hWmFV4UKwjzhefmmA6YfKEdomjpFTSMdFv4qqJPdJo6TYZIhsrayrShR/1rXI7+U/yh8WBxVXFHyalTto/WXuyeHLrFIcpC6c8Kwkv+WUqPpU3tWWa+bTZ0x5OZ03fPAOZkT2jZablzHkzO2dFzNoxmzI7f/Zvc1znLJ/z19y0uc3zTObNmvf4p4ifaks1SqWlN+f7z9+4AF8gWtC20GPhmoVfy/hlF8pdyyvKPy/iLbrws9vPlT/3L85Z3LbEe8mGpcSl4qU3lgUt27Fce3nJ8scrRq1oWMlYWbbyr1XjV52v8KzYuJqyWr66ozKmsmmN1Zqlaz6vFa69XhVSVb/OeN3Cde/X89df2RC8oW6jycbyjZ82iTbd2hyxuaHaprpiC3FL8ZanW1O3nv2F+UvNNqNt5du+bBdv79iRuONUjU9NzU7jnUtq0Vp5bdeuMbsu7w7d3VTnXLe5Xr++fA/YI9/zYm/W3hv7ove17Gfur/vV+td1B+gHyhqQhikNPY3Cxo6mjKb2g1EHW5r9mw8ccjm0/bD54aojekeWHKUcnXe0/1jJsd7jkuPdJ3JPPG4Z33L3ZPrJa6cSTrWdjj597kz4mZNnWWePnQs4d/i83/mDF5gXGi96X2xo9Wo98JvXbwfavNsaLvlcarrse7m5fWT70StBV05cDb165hrn2sXrsdfbb6TcuHVzzM2OW/xbz28X3H59p/hO391Z9wj3yu5r3a94YPyg+nf73+s7vDuOPAx92Poo6dHdx7zHL5/InnzunPeU9rTimdmzmufuzw93hXddfjH6RedLycu+7tI/tP9Y98ru1a9/Bv/Z2pPe0/la+rr/zaK3hm+3/+X5V0tvfO+Dd4Xv+t6XfTD8sOMj8+PZT2mfnvVN+kz6XPnF/kvz1+iv9/oL+/slXCl34FMAgwPNyQHgzXYAaBkA0GHfRhmt7AUHBFH2rwMI/Ces7BcHxBuAOvj9ntANv25uArBnK2y/IL8m7FXjaQAk+wLUw2NoqESW4+Gu5KLCPoXwoL//LezZSCsA+LK0v7+vur//yxYYLOwdj4uVPahCiLBn2DTyS3ZhNvg3ouxPv8vxxztQROAJfrz/C2d/kMYqRsnzAAAAlmVYSWZNTQAqAAAACAAFARIAAwAAAAEAAQAAARoABQAAAAEAAABKARsABQAAAAEAAABSASgAAwAAAAEAAgAAh2kABAAAAAEAAABaAAAAAAAAAJAAAAABAAAAkAAAAAEAA5KGAAcAAAASAAAAhKACAAQAAAABAAACOKADAAQAAAABAAAAWgAAAABBU0NJSQAAAFNjcmVlbnNob3RpFc3yAAAACXBIWXMAABYlAAAWJQFJUiTwAAAC2mlUWHRYTUw6Y29tLmFkb2JlLnhtcAAAAAAAPHg6eG1wbWV0YSB4bWxuczp4PSJhZG9iZTpuczptZXRhLyIgeDp4bXB0az0iWE1QIENvcmUgNi4wLjAiPgogICA8cmRmOlJERiB4bWxuczpyZGY9Imh0dHA6Ly93d3cudzMub3JnLzE5OTkvMDIvMjItcmRmLXN5bnRheC1ucyMiPgogICAgICA8cmRmOkRlc2NyaXB0aW9uIHJkZjphYm91dD0iIgogICAgICAgICAgICB4bWxuczpleGlmPSJodHRwOi8vbnMuYWRvYmUuY29tL2V4aWYvMS4wLyIKICAgICAgICAgICAgeG1sbnM6dGlmZj0iaHR0cDovL25zLmFkb2JlLmNvbS90aWZmLzEuMC8iPgogICAgICAgICA8ZXhpZjpVc2VyQ29tbWVudD5TY3JlZW5zaG90PC9leGlmOlVzZXJDb21tZW50PgogICAgICAgICA8ZXhpZjpQaXhlbFhEaW1lbnNpb24+NTY4PC9leGlmOlBpeGVsWERpbWVuc2lvbj4KICAgICAgICAgPGV4aWY6UGl4ZWxZRGltZW5zaW9uPjkwPC9leGlmOlBpeGVsWURpbWVuc2lvbj4KICAgICAgICAgPHRpZmY6UmVzb2x1dGlvblVuaXQ+MjwvdGlmZjpSZXNvbHV0aW9uVW5pdD4KICAgICAgICAgPHRpZmY6WFJlc29sdXRpb24+MTQ0LzE8L3RpZmY6WFJlc29sdXRpb24+CiAgICAgICAgIDx0aWZmOllSZXNvbHV0aW9uPjE0NC8xPC90aWZmOllSZXNvbHV0aW9uPgogICAgICAgICA8dGlmZjpPcmllbnRhdGlvbj4xPC90aWZmOk9yaWVudGF0aW9uPgogICAgICA8L3JkZjpEZXNjcmlwdGlvbj4KICAgPC9yZGY6UkRGPgo8L3g6eG1wbWV0YT4K3Z+xnAAAQABJREFUeAHMvc2rrd+W37XOufcmt6y6FUoi0ZhGwBeCDY0SlCIQE+yJQe0opBnwH7AjAZsBe/bEdiCQliTRjkSIigqWHRsGkmpoECSUilU3pbfu+d2Xc/x+Pt8x5vOstfe5VTbUO/dez5xzvHy/Y4w5n5e19j77fPj06Zsvjw+Px4cvj7aP6b58eHz58uXxMXLEvD5k/uUIMo7Nh+jrmHGtIkjDIbZfPgc6wBIoH5LIPnz5GLnIaNKqEzPYn8PnGFUG8tPDGVMwy1l8eYgpGmLLIEbFvGzHWf56jyEkAhc//DKUCxX1MX/kGX/e/MfyY4RfkpPB5Wig8hPfR+NCbFt+KTnQGuvX+b88Pn8EB1NsLz9m5R9ZBQRp4M0fx2kxMx+ni8MES9otf+fYJ4/wq834yp/8PoQ/FaPu20jEOJvZTTPkWys0m8/FD+q9WfO4iINq19i6f4X/5P+2/vofgtk3mZ/6h8Oajg28n6OkDuycz1lrbTN+zn9yuecfZ+I/LZMPid80gtbR9JZj6+9Etzu/9XKvRUX+QXiqP8Bb3gzRc35ICNobfoQNcPPvDJ8Gj/vnnNPGijiv5o/nz+Invqn/pnPjDwrk04KkTfOvV4jSqHv3P+Twb72Kv/lb9s9x4Fp11h/baQ7CQ/2Ha1X0rRNZlrfxYR9OMCXnGExM2PfmH4/X8/89fkm+zk+g1jp2e4Ucl+f6wz8xEsae/0ZYwfv5Lz/e2EEozvQWEIkZjm5iYv3jw+p0/zNp3lt/EG3iQHAhjUaf5/obyM2tme3RasfkXv/r/O9158qfeJLLrD9hsB3I7rTEvOffpWkM2IN9+Yw8Ys9/asV3bNwrmOe1/FUGpEDVfsjJ2GJnnkYRiXG4zjxIr/xgUwddZv8x9vorFvvvY/hv118DijJJnPzlwiHtvfwlqH3zZ/2bGwkSwz3/E3/8qAX5V7b93XkuRgu4/Jn3PCYo2j3/G380e//HymuB9Xcy/EmW82/iaR15hgmJzgGnLi4EARgMBwf22PlC+fFzbJhn7OJh1/ZFeTzT409xOFkZteK3q6+ssRtboL5kscTGo4EAk4ayHKyesaOok7FVS1xjn84NMv3yF4ZjbbN8xqbE+Ik3zU2lszzg6rsxZvNiV2s11QvEoflj0xQz+kz+adZNQyZ5yZj8iamIHw5/cMwTO6y3RuPFOmzbIBVZdZEVU7TPa7vcnCTlFwb+YGFv+cFlAH8u2rWhXvWhvqywTWji7xQ/sYDAX/654ckZWeTkAytu5E/Ds+vvpJhVnT2Cg/z3/EHCjgPrk37zcWD9QS8YPexFKn91N37ham+uu/6RxyNfmz9Mm//ig9xwys+sjfOiLTeNDJi5/un1OQuAf9Yc4+TkOfJx8cN/z598nV96SyF2EG7rT568+KK5xWLMGxwqZFoGAj+4sXOecfqqbvyrW37XHyz8OWS0+1/OCME0+81/8oxUe/qcB93/TNKof0qeS6vyMgxUKMqFlDXErjLtwg9jeRmRfavv7J4/jjQx4q0jAvhBgx8oDKu0lgxRmL/uE1PsciE2DvMGk90HP3bxjp+3WDG6E8Wx/hjBFX5jKvauv2EYkGAejt2unfmDQYOEV/mpSa/rxED82MSCPCbeFn74Q9j9M/u/1s1Vf871whgWk7P/MA6H38TQSHAmf/1yUMME/p3c7j/lxwB1evyxy8EOEVMMOBz+aDXETuBS6L/561Wc5begW3/qQmi1Y1H2/G2wkVNTqDeY5d964p98Uftib3OuZ7KXfwEiw4C1QOn+8/6T6A//5Og8ckyHm95N83r+BbRfiV18uFvD+hAVO72y5jj5h4D6l6XxGxusJLCxYsEWY7781gXf7n/yYmb9Dn/sCQo/ZUQKNvzEs/zsP7zRYUGfmPF1UJEGyjDPCfzFQmMMPouHosAIB3KWBx1wkdv3QsLFnydOE45JWGeRhPXAJzpFA55ga++nQMEyKfjx90AgHcrHRN6kZoxM96Sr3/Gl8LJhmFfM8gzc8KJiH3ESm2tu6MLlwEgMvZBG1gKq005oR4GoDRxePipu/mJF0FAym1iZDwb8n6k/Ig70eTF0AWeeTnwfBmLgCYDN+Cw/GC548m8ua+BlOpg45zuGahLS5wTOuJgCaIOFNrNZekPUUGLrQgCjJ38xMufEPPwGBVYvhDEb/vgmzs8JAJ7mL2N554g9DX21mbB28LofLIj7UwwNYadmHLumrL+xxpwaeGWhTu5/8LErQ0cdY8rI/B0gKGb3JRhdf05cA4VqsLwwxe/kj0nsra78tYSH82jCrz4ymrRidL557/7H1/pja13AagwbcvNnFjlrztrd8l8SoiGN3a/gnIY7RFP33Y9YcwnTVn5mU0+wUo/iBSBzaxKY1msrBTivHq2PGADgs9oauMNmHSha91+wYsf1h7bIjM1foMhzA3Lt7vWXIzGnf82fUiHf1ryDbh2QLn+GBnrjjyOfTHj9SUSom3/Wmn2S/Z9uklt+IoeQGnIsOXFU0IFzRDEyf65H4HOnoY+uBxCKgajX6u419zWGqnOgD+Dai4FTBitj/bWZHo3rr3sx8CMuW0StP8J5RUJNP+f6S/41ra9Ze49YjHsdsMmLGE8BJn9QAKKuiUlMFxRRfHx1DYQQJpYYOs6Bb/MnKjDgKax0wXPdlUdhu/I3acQxJoYcHLv+jPPqNSG67FPyx5yj5z/mp/6ROY4Q+Q3PPTrrjcb1L3imPf9O4Pie+y/5Jzfio07gT42Iy+HJ33AnXwMIU32h2usPTqZmIhl5/W/EsZrIE71GwSRYruHys//rj21DoRr1s/6rvy1E1yXR8BQkbsDK0MXGPdk1+EwKNMmiQ5Li20e/wTmImIsTNwfACa/cJIGy/u0ZN/BGAn8bptxouLn0wpwlBg++OFuIsSXWxe1CwM8LA5zSgYOfhlskZi/8EGCDc8YUlSm+IDClHf7kSnzwahNb9fiPH97cUNHzKQh1mpCQWC9kjA8DZnjEMCrb9Rhw58cuLTb624NFTOjKxRG9VsvP1Bxrb0y1iG88Tv6JHh9PBNlu+Q+/UbDmBAywgThkahQR8dC0+ZvYsUfR9W/sd34i7xwb8WrO9NTHCbQaEG905oqgUbgsJ/+c7ORIrBhrFbsYYYcPJxqT1hGMNm6EtnS6ap9DyBs/ck4y4o54TtU9b8AmNpo3c2JIk64ImQVLmuFvYto1PumGH0P4kRFDcsvYU1sMD+oDW+x25fctFqdccbr+140OkrM3ia/hEqKtnxplKH9pGF91q3f9wErLgfOi+e/6D+AQkDKxgOj5gF+ab34YRF8PjiWvNePojBvDuVR63cKnXlbWdRj+iuPbGK+SZ56J8wD3/E8fe9wnu/jVhj2gHP7YgCZ0aDYmeuQnXqMkVmLHb7AgA6fkGJi/vd4IJnD4mXJI4z7Xm331xCQWSkUbL4Lul3gLYL3dkNTmZKDddf1jOmRqcq0LLpnx/cF32xAFLUFtXGAj3fw1NodKm7/Swb/nHxxCKizpTGNAPtSgQk04uP7pDKC5tFI9lokYZx47I9nz/6n+8BefkIU39gRlv3FHhx8Wial2xDL8E7j7f8ZaBbrn38J5luwOjn/O7Rs/iG044rPZD7/Es/8JGy77cTuB+Yii0HPO/RcsazF5qF3+i0fexEX+9+sZ+Zv4yX/mVgV/yYPaUfcq8WHXvbT3/+7/2l/5Y9s8RIN/YmTpCoTEhYkJT3hTECwx3xP7mKXUXPjD38bABWqPGB/1BLov1PNFVPAYKHoTJcQUCQDsHK6OZSVM8CgiNujShp/iWFBEUbVYjPEBe7c5zhhElo2i/g1/NoRxYVq+VGZ4IeC7uJnloZOHAISwoIMjFpnmM6yMpq7YNPh28sf0yEgajCAIRdwygTBmmVN/+WOaRt36bhg5ENSi/ASBLdRq5SrWPohel7aQSrz5EwQZpP7UcPLzxs/YGAPsDZJeQbtX/sTMBdckMIstX1f9UUVhnPBjy8FkfTacMvXBI5qrkR++5AoEsSRrN03k1qD84sZGy/mUSA6iEQPUqT/8uzbq0UWUp+1Tf+NlDidrjXcPuH9gjfGNqA8QWHY/dP9hnBzFZ/0ZZo4Dhzf8MjdfbTKXV1axX9dfnKrFA4F6tT7wGH2ku/9Sf2tXHdFzoWso8GFPbKtv3FD4Qp6BHUVglHnPSRQzJwDUJ//KnZ/FhimRjQ/WmkOkLwOChYBa0zGOGrFGrfcT/8i7H17qD4HY+JspKyY+EtSeT8u/9X/ijx8xz/rjho/v0jPW1f3HiKiRUUfms/+1aiz38w9zoqoXR64/6ZY/Q1rXlxqDm28DqBfzPf9ZTasMt2r4NQhK8yeV25IoNVQchjcWuvNmiIGfiCV/4nNJMNVi9lLi2vOfhyE3XWxO/oyD5fozVJd4hCcgbAEl//QESQwaxk7qyuSXu3bM+ZTMpn3s5sdfLjBuEsBvBhc/lEi1ycT6J7MWhHKkxQJ4C7f1Z157TPZTYvmGxb3l/iNArCS7XX+TfL5t8jDiurP86e/8psgBPZjY54BR8Ft/AE+VY9n9R6TgWivMEUCeCzlQQCjKIB4n/xre6h8efMGqjv0QZ+MGExRsDDbj5cdGBqOrT3ATAlIh0uPbc7v7D4MP33yTXzLWP13ZT8BNBLeBJ8AZCxHkcxEZhSHGMfQNAHma6knQSQ61ikfkfjQTP6WZmw4qnNMvj7ZUtcIYWC5OHSzT0ht4eswQb486bS27nFG+w4/d2QeMB+SCix+VvfEbFgbD7wKsA4CMr44tUhFyPpqK31ZFjGvl5G/1mw5HF/rGD7Yx+MlC8A7BxnpCwHTUX8k/4nvbKaEydoVu+RPbiR0La6phg8JRG/o2ToaKczTXa/2xOPUP3Jbilb8XsUHWIRZT/5P/AZLtcH7kY1BDyXFyMQdip03SwLE8tCvLCepW/z25vKCDPGvaggFWkIEa+MgR5KJ61v+Ff/2pTvljyuYa/KYdTQZWlIDv9SfwacsNaff08kfjd6Tv8FNnuOsHWGp3X3/HEZtm+Z/2/0UsCgfi1uEW63v1B/N5/Qk0/Jt/UIythXiDaUxQvcRw9p8KlLP/mFPDJb0NawVUhTXxUbU0Efd3PGK559+JiyDuDWNabAHKeesaUg+Lkx5tzJ73Hx4Bj8+df0KKRxyCcdWfuUgcTpvdUl32Xx+6dv3jU/BTikgCY+bys/6YFKcab+4EDOF0s9ARNR8DQB29aIiXCzTtosT/hlO4i1+fcK1cXA+RgHGvv1DukrEAp+sNhQX2FKy0SetkHNf+ZwpO648d/Nx/6I2XwgN6P//RTl5GgRrRyHlj6jNg5uA/tdj1Oofnxh0LCGOKx97/9D381bfQF2YjNQPRiMtfG0guohtn8dfL5ckB1XL0DR5BEAaWt9oxb4KNM7rmr/lYM54kRnLxR372BMPaNf+pG3rqD/RBDMLYskTzOzjw1NDgcQBPJxyaGClwArYBzjc6NRtPoOKzdlUVC44JyI8a6m2OHx7fEpalshYGXSbzkCd8/EsiMDP3O9z765nIjS4HSn0aGzdfK3EZnRj9OHG5owblx1iaAfGdK6zJofLl518U8OQcmLjaMiF/ZQjg39gy3R9ZNKoIsPdsrA6X21tnp60x/E7Nh0kzGH4C43Wrf2OYPMNCjZ74T2CclHG1iEMiWBz63dmu6xGC3cTPjTGSNbOm4ehTN6EhWT0X1YAb5J2fQLY6w78xLPDws/ZEYOsVApIbv1P5uyJLBylx13frf1//ggYrZkBj+YUrka0C3n2RvxUjl3x3/2OktEtJTM5zNL7WAQdrPut/+JcGGGCpIUP5g8s6+U0NW3+ekdqiKHUZscNlvrju7P4E13jGYc+/OhaNNdsaL7/z4PL21PV3zByfHOB3nGHi8mZ45+fdXwx2/RsbbjHGl5c4AeHbGMBx94inHAzXMea7/rjHn+WgyR8rIXNEdx5GAdGI859zY4pIfdVBXiwQns9/o4161h8c3GZ9mdoSF1/lb2wEQSZ1wCoLHgP5NVxd/OAfyy8fuE5iUGH3Zfld/407Jg5jSV2eYkRBEQZ19x+Sq/6HsTjQxaDrz+a8x4Xt8DlsrpUiD//sUSjlu+1v95/xwI/BgrEWwWqHxut/DVSJe9Y/orb4bHoR8Onp2pi6HGuALfHuvriv/xCnc58Gy/vfgs95cWpLgdBNN8F4mfE8Q8D5Rk7mT1zwo+gVyH+NxJQY50XM+CuJIz0cLohWt+u/5GDGQMOMyX9yrGvs5RSxWNl/1EB+dLrHl3hjNpaRV9nreTIxLom6T0pw448L/mf9408sdEE9dUleIF/8y7j8zT8GMLRJi5xBok+HtsvAKLJPn35YNpURVq6VASSSBiFaxthkfAODjeIMD1MbUDS2ieNCaFZjFGDBlOQ4DAwV8MSwoIijZIxNmvb0AKOiS7E7qBAbRoefeYRu0sspQnKsbT1vx9H1wle7cgSMVtOGtoT0o8JglqYy+HEiENrUUqCI2PjE4twYy+m2jlt16Mdi+ZfnzOGpzZv8l3/wLGuAu8Xqh6dQ2ASnv5z8Dj+BpGmrYSbpmbdd+SuLjtOxF9VY6FgOSnHyT1BdKzgT2wB+Pf9iLCt9XbhkW3FVLXc0kkUE4NP6s1p4kn/GR8dFoWshkBZxn7juDwHk7/MK0BkypWmaydP6qx0Q7Hf9zf/if3/9N9b4ERt3u4Fawqe4iAH+2BpVup7bZHpC1pWDVpNz+cl/OLY7UGCAcjVUtN1/zmNy8te3OeLqknwtf5Rp/ZSh46FWfsYMhpAhWXyOr9hM3+HHBkRt4rToZuQ8F/7Ju/sP5O6S2oJAbDlw41phhrXMYBocT/kjV1bbY88agUMX4Pf2vwZjd/yGZ4lf5fLf1t+glwu+E//t/I/cH1DHrvmXRGwOaeIaL7XObomgNO+cf0/89Zda/6ZN4q1/OffG/5Y/AUT4uv/HW5Sfff6Xf4+nXhlsreAkFss0MbI22o7D8QNobJDpKZCTYuKJTIP09/vf7v+ix+Z3yz+4QlmtYu4JB3uw3f8TYEO58zcuYwYnqnR45iuPbvgFr9fr4ahBI1zcdYRAzR4Xr2IeVnv93yAv0nUVPnh7/+81qqTvPn8A0WgItISpoyX+Zv4OjiCcRTEGauJ2v/tz7wnaS2qUXjhbrQN6FaH+gRksFskqIUobkk4O1zUYRbr7RiUubMihdxYl5QByK4Td7UyYpYqeohm8IWBGsybUezYX8NsYe9/QiIuxIUTaxeahwA3ETvAjSVQZ3/jrMfk35IV/t8+plFB6uzB2a3cPDpBZwYNHpJnQ0UZeS7fqxFV1i3aZu93wdTA26UQFZOCbf1FL0joQpzvqZguK0zixN96UfuTaUa/Zf5JhjwgMBnPnLz8W5WXkxVQikLCPdOPN3Nio4eKPrsYTG/5T4jiYCnp5du/eONCY3ZHhFI69uI+8JydZ5DKboD4mAVb2HsIZ3yFnTNf9N3QRgECw4FifzIznnI8KugWxp2j4TFdtpzumZjcwla0/bGyKFude/944BnT9jS75MY/KtZC4+SuviojUpDuxMqaBerbiGm5/LCrYepojdQnJ8jjmn6Vmbc75D3O+fZdrFMNPiiFl70xWMhW/lV7GLdYVJ06s/zjH05qm3/3Hv5bauAb4xCBuXPHx/I9ha+fOGYwL3n1p7ETQqARnuE080SLZ/G/KyV2E+J2H6zVJXx1KRsOk0IOyc3hHbjlm/3Uc6+PaLPC3Vi3xgSMVRRYCp5NpRj2PLpfoX8+/Y4/vLGxGkzajtKnkS/4bYrWzE2NjDirhG8Fr/dc56E97R5fxG8gTwS42gjTKvaL7+W/txPegLXVi5mGLTGij7e9CJZIYve4/fETCmGIa1/Puuu7/RRRWx+wtfqw6i8CPuSC58+DR60/2n/tftkLMsfyx5O+suREmJnzz4hrqmzLpw6kQHvgAiQBZJkTOt7Vj+OnTp/ii1VLjzmZutDjTOOluyWMYtN6AMloypOrQs8QbeAwiRzKDGUU4lV+M64EofBFSpJQoY/g75n5FI5neSK45Nnx7YcsKJMplncJg0Q8Xzd+KAIYbOe0JkRlB+Z1DcqnfwOMCD6p7s04RZNFREX9HTuqkgvkFUKrMX/ljRog0zNl0xIknTdXiZa7GeVipWexXvSNk/vGmBcFPoMEDWKQKN0/MOQ+6r3c2IONPkJXAxnhZg22SxMS4HEt88QOEkhcIG1P8YtQ9NxjR1QYWhxxjFy9t4ceC/TM4GFJQBNtq7mz39K43QrHTizH1r3xzjG7tXP94sPUjNdfDHzn6dDwXb3Q4I0PSh4qOIdz105qctMoBKMwuCTCdUVxv7Nmz2k0dJYnudpEVYhzXX1kOlihYy4qeHw36y9KDS1wnhMha1iIRHzm2SjFDTNNXz84jb5yjNJNi9Ih8qwVJfVnGQ+6YeXQEQa2o9UYf0ZqD2RIwqiMj2n39wbjiKj/XIvY/zXzirs2BKue1/lO96JffAfbE6V4ELFO6nZNvF0ATtDXfeDez9QOvOLXlOtbrLx6qONCiIvbFR3TyfOJXk9CCQC1jxE23+b/wLwa4NcdZDnIqfyNBf+rPBLt2T/krz6F1bl01k+Pix26bONatK4WVLT7W1kiOdQbRT8wMzo9UgkHMtCJc9e86oF3NjoTKJDqu/0I3Tn2wRxeF1+YC3fjBKSZ2qGnLwtys1qTqp+M96tfrPwnpmkU8/It+MDNwHOMWM1NkxHOii6r6a7sMOGKIuP7c7r8GGX90+EARqzmkG85z/RM/+iHwXIY/dq0LOEzW9wJjX+eXjD9FT9CAXEQMeYBgI58WIE+G9PB2dxbZZMawN6AuqJ9wKA+QTsbikIs2gdEx8CLOWbPzSUT3ycDHi4XCHf+GcAt/FiDBE69wgsSQGQKSMx+KBUBknG23q9aeyKjaWJi8Q5y4b4TlGbmZB1OaOPYkBgEk+KMLTx94e5WhfuAaimasCbE13MZw8WsHwQSnP7sjCn6Pg5xQk075d4YNijgG3PplLgyqODSN8rP+6HABkfwxgJ94e3GMcpr1BmDn6d/wg3hA84ElsSJqKdQRPx9L36DCzk2FjBjZFYfxNOrAWYIfNlf+GAwpZFG430Zk3JusWMUpkYKVNqZn4EWuTVzh5hnVMh/3IUM5J9yeK5jM8o31c/0rvNa/hAESZ1zW0/zhijpfXAx3ZmRx82+vpEj7sImlibW89QzOnv/6Z+67wfj5YGYe0pzD2nlOgZL4+jCOCVrI02tIXKylq9Y1QzVm9LskUqGLb88/+v7YECxrB0XaU02jJH/lGC6/eUauI/zRWQ8tnO/5p3M9s22KIaJBVUus7DnbYDL1ejX8IYtknBw+57+hgaFvbDZ/ZI11EPHviVVVjoOs3an/yGvU2pnr8G/+6CdsTYn1NX9tIrf+3hwSgIs1LmCAm0h6/eF8pf6g0XKExE+7Gd73X9QnAY3Fes4fn/D7lfgoeIHTVe40HOXv+Q/sIKYryR7vewXV2ZogBudp/8fgXP+zf27vQQu7LMPPlHie8l+SPc/ORS+GDWq65/qrsnzNU+TZr9QcnpYj+oPZMwt+wL12LwkONJzS3L9XoLW+5a8bUgxTFK4f3Zzp+y1OsVp/xzmU4TajyMl/188QwAg/qm3GFOfLP/wasAPSOGCvDzugbXeCav6rBhROzmANWRyXVH1BPephsvFeyQYEE2MbSis/4PcA4/lyyzKQ/ahUjwClziaxPBgJr44TyJ/qlW6NdIJb8Tk0LHh3NPWJnby3RZY/dmt5oFTgQGxsqIw7NVWwOTlOcwV7qquL8fKXvbbWrFC6PvEHb/YiVOfGCf/JX4dG26LFUGgOlRuqsXW+8QieTcsmY/PtyVs9MMEQv5Cs+rX+krjmvSDFcPN3vW9FDfwiOJy4lA3+dEPX+suPwyqNZ+qfCqgYHTH7cIR9Q2OUtnXYHtlx6tVw8hdej/Lje6Di0osz9UolfFItlFt9Yel14sAVbeuw/GCyL2iRTShOc+j0lv/oRds1ZP9JEmUX17l7CQz15b3glz+s0GKcwdn/c/Gt+MY/gdX7vfVPLMGh/mf/gx8/fGgdF4G5tqOdMBDbyOxzgqK8WC5GtZnFofndNa0HWGWd3Kz/VqoxFnPqTyFmiZ6uP0FpBWJtfYvqDwjhf1n/BhnOs/83Dnga50bxxH/LrjXaWsEeD4tTLFCQvXf+kQY3d39coDlou++KWd5mdTSA7hbd9Y9o1wf1fhKQIbOABePsP6fuJ2xb/5phTZuVOf1KxarBGV7TxtmaEUNwoJ6ayD/rUrzxXJl1I8smB1pXnx66ue3f1n/r0JIvf4zF7Fr0d7ISDOuPnDYL97X8azSxx7jmN6ep+2W3918kjbp9MOKGJwXZ2hhvyJ/XH5sI/fHPrrYR4p1W/ieTWxxYducOSwzrnWMIr/pnHCh0YN7P/0pHr0ERqCef7kg39b8/5BDZz3r++Co/oU0O6ZgRk8zTT9KGS0LRJQCfuNxhCTZhEZNe8e12KQ5QJF4lHXi0WYyphLTRng2CBW6C4gcB+iwM/OjBni/OW2yYj7U9xb3zRzit7yZuK6Gnc3mD5NX0GQ/+CSk4GAI3+V+KiZtbVuPUTv3icVmkMacxy2um5r0qNdXLz96kpa48POOG/ZV/dd0Sr/kTURtvnnphhJbaDb+FjzL5c4JYaF1gsNBy4oUp6887cyLMZOJhJYrZ+o+iFdHQeGf9Cwi/KE6PClzR4+H6K/CCgo2kcdt389oS9/BTJ9y7N8aeNcOzANqOkeYc9ufIyBtV+fXjIEfxrP+miCh6zhFEZ/8xMX+cb/xM06z/MOlfscdGUH5LNPyGnzi6/oKEu5/asf5s4YsfJyOSxZl3cCgSa4NtuVTmYI7hZR4b6l8E5r0hkAsPs5qYY8Zx4Ms9wEZTebfh/IOzlx005r/+2Wacu+MGmfXc808zYvN7zj+NOOCFxcTKNDHoY93Jo9U2aUm6X0NSVyFip+6Ko/wRKp/zD2ROixLIv36+O0ChfVSuP9Nef678h/8Ydt5THX4AciQ+wZmXv+ffiI0hdpjli4d7XHTnwMeyVuJ+/aMWRHRUtccUXw9Y5As8zIwhI79zkA/bts2/tjk2kdHCN9e/Of+wE6QD7btCCMptP+c/Uve19t1DhjowjZLjLbAE1Ssylv1bXtRfv+DIRLE6cP+pzLwRkD8LvZi7p1JLRPjxwikTfBTN+vdcRa8RVhle+18/jFDHp1YYgYSYfgtZDq7/1OEWEg6zRcL/tP6AwAcaeRMfi7wtcvA4NxhOHPD3xbH57/0fWyONCVadNV4kPvxt/qIAesV73X/wjN+t/t242IPUtdz932srwfJ9rf+gx7pelpPrT5r3SqAMGIkZOkANVlrCiJyY+2RGUCpQzcbXTA8gCMqbT8SWlSTgAWcque9KCtVjcVfCQiSynKC9OAWjKiO+ihF5HFEZfsbgUCDjY5S5Cx8b/66Tu8SQYpIFrGNxI9bxkA2p3W62Wng3mbBc+IMD9p0/Y9Cj743BgEwh0Q4fFlrlSJuNaPCV4ABsV2z9mDUF65vxvf7kt5vILYV/HPgnn/odfiqGhEZU13iH3eTwNwJGfKMndfhp/OL1npgXf3y4uFBC6x/b+L7mL1hMDj/BTimwJf/aZBCcpwtv+M1x9h95q09P7bb++hOr/JkZ93P+5SCQRsh9wlF8iM0xuBNNQHItIf9okHehMusDMvbL70e8ni1wg4GfVGd8koa/6toOP1GQU/cZN77iAyU/eJjEzou0yJlFKN7Jv9lETTB2jSdjbZIBmGjwPRaM8oKEFlt+L8fK8JSFGIgMtCA+rgY5Acx/uGRkLEf9gcPatvXXpLiF5hgr+VFmLH+kuGaOCn6hMkHv/pMvRqtfLvSOBTj81sEZD5ITW/AFSD5GDbcvNkq5gTJ/YhM5R4NCAQcdQTCOjz3jfSHGc0TYyI9FBqkz/wyYGa79I5K65KBX5FzfMjaGrGWmPvOw/xCLDt+2cvNgoDT8e9XTNj6tEfiTF8MEcNWfXIpn50NybGND/fVCsfwEn+/mjx/KeQGkDjlE92Pm1D96LhHg27AveORc/9DBGn7rgh2vyM689ceqDWtMcpzrj/JQEqe1oIDUPzaNoT57/kejvB+NN77d//6T+xi0uo0FqsbFIK+Z+9jONHy7/tXBTQ714/qDizjmBcTkT65JxLpgRQ7ye4jT+AElylfu/8E9NZJM8ssDGXEOk4zuwaLu9d830jLhL9CFG0ll6XLx8f6PSSyuY0Z1U8aQiBV5/UmU/m/i2JGpvjGIRWH0i0NCpWJ4Mm5ncdyQVhcnbNi9Jak9LjjiFV+H6C8c3cCcVmtK2MTYgN1QaxGkwLHnsOLirS0UFPam0yIEvdFlBnheJ118aMjpmAfYk8DAbrE2MO3W9s4PeDd2IGKLjmNJM1OmZzSTP1MCRum4ww0LUVFy1AS8CMel68LlJ4jh3xPgXX44xSCnwqSbBq7KiROSmavK2CnymIbS+ht3+fWf+jcdHJI3dalXMDKK8tRfOQdIoCgP9vWeXkF1x1aXyPZmSvzZC9SBCz0uhz+EcgKaRld9V0Jx1mH5J6M3tpcA22DIGSQmPAXIT22CaxEmf/i1zwGzsCshB+eR04DKvLsDD81ry5S9UqRzLFJtE4QmFz8+dSlnxvG8xoU0VDRj+5YfJYFhkJbOmxXDqa2JZC24gJdfy2BSi8m/oom9OE5GTmeaBt1Z5zkyQM53Xsux/Gf/x8otoX3c5B9fujQxg7FsQ4pg3vCqVK8tBnyHmPUyf+KI0D94NuMGF/7YHAT4QUoNKrvVX11QrsK3zCKPX8ZW715/IwuHuW1tg8v+yz703DSI6JaDsIk9bVJwTC1d/+0jbZyqybD8T16Lsdr0+LP+9AAAyrp7gyKO6CS65T9c2uMC5V5/O3thxaCtOYQXjvA9rX9MIp0jsWUWI8KanTPjjV9TtZZZrdH8P+cPiaUvfWLbGMkfCvK/4pN0D/Fd/lapNTFuFc2A8GoXJJMnR6BzyHf5o0M4i978NQo/tSCKa2QIUS8/Oprrht2hilEukHd+Yy10+ceeSXWzGoVEW/4FlSmHw78CooitdqhjYD6556f/2c8fPQ/IgDSsCr6CED2yfPP40I/posN0yNiInpgEpXUfNHBdd9DEj8xU8UeWhg8He8ekghYfnvvQMGuPeFZRJ/NM7G4XcTAgKXAiNa/42/f+A4ZrriUHHZ2Ze+b7DmuLR1bEUbhyyM1VZPh958I4pufmOrybPzdN+XMoCoK0OMFAL+6MI/C7/Dka+HhGhW1zdBBedN3cDjKXyTixD0+csDr8dQlTjHJWYIOPH6Mvv3HBH0ffraQPZV+D5LxgnFw2HfI5Dj0XPsKEP9NaxmoGViA/J8Zmdawh38x7g8xo3i0pj86gIvadm3zJZHJowPUlHj81GHA63ImF3nbPP1JtorT+k8u8/az98o/7roW1O7rmjYkPTZG7JsHH5CJnHIl6hrNozrG8r//lByda2kRsLajjLJi1h3X33xVBbMhfgBwy4BntzfoLHp7b/utPPagQcgyWn23UddzAPP/E9QClLTOc+krXvbf8KHImp6P+RC8P609Lefzdp+WPXfMfuME1Qsax6/5j1Jd5A6ovmEGIsO/wW39sWuFUL/lTggKlwyT7uvlzBrlTZv9FN7zUFCPrnyGIwKjOAQ53A9wZoyNBeMsPUXm8UeOZ774aHXb+aGB90A/SqX/BIi0DJu5/4Gnkn+6KLhb5LgPHaOt6+M/+S35ef6IXDnAKQ80Yp/H7VIpuDOBpagKT/wQlb5StKrNMXIDGqWMAwGR8rn+ZIKoiLhgsjsFcGWrGgeb6kyL2ZBGn9YMHmwLbMTR/zDEdnsDULEe/cEQGZviFULSjTGgF0efc/+J38if3yd/9r9PmT/1rCUwb+InAuLgOh2L4p5rqpTXX1l/fCI0Ofsfl8Rf7UWx5wNaw+UMN3nKCdeqPYtrhv0Q6sjzU7P5JnP/d7PKESxewEoM1VwZiUaXBKD7+M3E4vUGneJzgQlBIkSILq+lGBznfmPWjXp2DVftSgLgNEC/t6WMDkh2HtOkYFr38w3RkhgI/QRPP8gORSfktTX2oVMAbOQuPbzjC59Mgb/Foy6+OCcwcV7WzCMSAP6MY8FEvvdYkxaIPL9I2mPOuCkS/gw8kLPg6XsvG7wy59recuHHEGTfzP76RAIqCRj+6t/k3P5PAdjHiQw1BR2Qq6ZnJOEK6nEc5/8ijzuif17/ymGI9GA6VnIVgdjO9hV05MQ3/6s76x5V7nfVHaUxxe1P/khgFePExHwZVtc9xudAASVuZ/CHzBEeetfB/+kWxi6ERXmkHBOHs/ww1IYYZv59/lGc9C6Qf/ER/ci2P+x95cmr+I0/XCwUYTPgmB8Yg2aGxWRuIbu05/0krjphNVjC7/l6/8R26Etws5Sc1BhjlxZghF6vZf6JP/ssPLHXug0744tbzL84QsxmuTVvMOuUIQdrQPq8/uijmWEtiygj7+Jpf9D78MENFLNgQc84F01kUC+kk/kU4KuaDrayE5UpB3b4okP9MfqkPBBlYE2JTuoenCNQ95792+DVXEYgxzT0VDZjP+W/9NZr6x8envvrqL+pcfxGIRIcN9hNturP+Z39g/bX6x1WaHNx4gwc+kOeUY95PdVUFW79z/cevPl7DMtb1iMMfH2r7tfzH9Ko//BG6zHEUkf0C0/K7iWqXY0PAx8kc6qDSLcU1N1+6hsPrH6az8G/OP2EajMccxCFfmKbTDBjZN84wmfTWv/M7/2wR+cEVHFBwb/Xvo33lUt7WV0oCQB1A96YAWwnWjo8sauOdlNAjOKf8xOk5WTOsW3//mXjcLZ3EdSbAE0fAusgI9U3HgCuKsRFdbY5AVQ7YBV2/hj8QLXYhOsaaRPOFw2FIAuvjNSwTb3TIM461rRyZW20hRmN2x64e3SjwqRiCJ35iScpbuCAeDAudHfX+A8cdEx9/CmwsxM/aQ3r+OioxbIInmYp2ukHuvNXpjKN5iMHJyFrAQWOw9SMWrKnb/IQdWwGwHevZMNZC9xikF2Vw9UGcZHzHcsMAZyAYykjOjYJj9xvL5PUQHeP0cqZncvhFqBA7Rwy+Uv+XUIaNijXn1j9xDwfwhz/gxP7EbzIoEjn8+jFoRu7JzO6tEHvcR9z6YMfIa2xMGG/T4lb/2oRHo1oaq4HUWXOGUbu+GixiZe7XMKHvWphO175h3h0mx9r0Zh71E+6sIpxwLwbzFMRIPWSeL2qPtOPqrT/FSxM6Jj4sYMt3ME+NdjMUJrpiYSc1h1trCRFyc+35d+28GsKJ84k9U0W3+mNzHmZia5xrB8wb/ptRI/O4D+NEBAcv80ewwgxtM9+Ur/onF4Pd+0frevYfoLSpqSSZds1Tr2yQvZYtP9zLs3Fhw2biBrf/Wsj9R82Hw/Xk/EtimJ+GnjmvsT38EXT9q7SWL7Eai0F1x2B/Htyf+MvRPX/j22QiahDs9lOhExah3etvLLjQJvaFel1/TEwtie/1f2XWB/9bY/pm/QNg6jmI5aFj65k5/MZoQAHJzWjXf+vPOhluDqcWyw1m5Ft/DPrp9uyb4SjAOtWHoJp/QcBm8c0vQ6eb/wTsMwIwBGRrUNRvrz9VvuXf+suJ7+HPGDwIV5i+u6ObR7oAWInYGQ7madm/BJHv9CgwNokZM9mHG5LEnAMXDRx9mMBRGVFo0M5xRDTEscPfEwiXvTNGyDYkQM2sZl02FVcvFufmhKULBnhaqP0lS8dNvwjwDXLB40mcsbES4FSCK6o+ydNnnkM5WSJNrYf/uC13d1KIkeEJn/GFVgkYq+PCjI9LTj2wl39sIYEwOiTG6WiiUIhu649FhFHXXpeZIMnLb3xqYT0SB2sBnQONavEhebVi2MdOo8mfE9LYcE4uzPE9/MsCMP7tKm3MfPguLvV3SDUynpwTmmJP5jFpUSIffi8P9/rf+PWGGvwyMcm0zK1/rEZP7Pkem1iab/tGii4WxEU8eVF/dG7hzbNRO8PGhn2+prI4GhYrD3+pNFKB276TbB2y/zA6QRlGYKhl2tY/NvjS9HcykvguP7F0z5KHbLHfOHBeKjzQlx8/g1VUnXnd+OEmOT+h6MSjsQ+XPnBEIz9xL38C8yYs1XAk9s8WM/uPRcIxh/17SD5MiT2qidl4MWU++XujShJCpG/94dQwdhlj7r9CwI1JVl69QZ190veUwcodqHUcDDpOGEkKzLHXvNTGWFCvH/waY9Xvup24PP94pxU7f4SYnhsVe7L7L0MaInLoCTsCYpn1j86UpNn8YxbhVkWI8QeHr7P/AoV/1ey/nv8lzpRmXB2uHIxEFSHnTMbEk9fz+stszhs/EnLs+kO+/NUQB9cfeTLWoKqlri5c2xiVKdZ7IqSoWkzsh38w7+tv/mYTn2xIXdYPEsdxDMnWtDWfmEe6+VtLF1Vn3TdceuplGF5/uv6A+yPs4ffaWcrJbiYT166/n7rDH2Ci6b6d/SdJYyw/cvjzUtfJOWeC7cOdeWJDTLE5+evUOsgHdl6O4Z/1RxrfRlROYLCtPHboEwRxcP6o48SfXJCgE+XwR5jW/4sKsOYGQjXxB8vkHMRdFXBpdGMabwWKuANpX33NGiQcXKTsAajbYC0gRuiYcxmhpy1/3fBtUtUCQnz+Qhs+utcIDIrE1WD5NYhoEhwQ/CZ+ATAo30ZRQXFP/JphgZwJOOm8+sxiRs4Gu36sFQNNx2/cDu3UHD5UNCxPi9D8x88cM/ZfnMVS9xd+4zk3ia/xD+B5e/PMb7RjYr17mGASnR/JxArDlJIYvazd8jcsDMTBkMDx5cUgjQv6ZD4S1eruBzcTWFnjyD+G35sI94Ofkf/W66z/nV9C0Nre8o/x+pw+Pps/rhPb6/57yp+orWHsodzxWf/GsRTALi4a5LYMej7I1nd+qT+Yr/yENYr2y3n4dWosAXjixvW1acD5lz3OxZq9w/LBn+aNMhzv7v9384c/L2sJwvsxGDYHMHwx3nmG0zZ/L/BnW8ERA4rGYOu9tZgHisXYXuuhqOfyDR7/LcQt/7P/w+EDVvjdFsSLK/1w9oHiFK0pLXGDPbPxLIQhTP1PPbCIwryGg403/IBreuNn6As8MT3cmLu3kNIMG59pnddHnPBxY3o6/2PfbZmBQOl1nFCX7ax/1x4KqHilkjnum7AMbS/511Doj3lC8WZO4Wf9zeSFvwQRIn9Zf0TP/MHEDG6VzIlsaoTy5frT/c8bDGx2IWI4+QsoGJj9tGY56F/b6iof/l2Um3IiipnRpifSqQmk8XFPSjKZ7vkAuHIGmGI/46C4W5GpI+xI1mbo5CIu9kPStizv5F+3dbrylxB/OCCfYGG14qrUOB9DiT7s/0XVq+OADxDOhexorqC9JgAuA+GXs9bNf07TaPZax5KC0x3mts3mXx+80IJF2FpzgWOj+TYNjqYkQw0RZpqXOnz7jsN3OFxd2EzwxIQncU82SfvwtKyzPW780YibEynOfZcFnhQQGQZzMdJ3gUAqKiabE3mTP58y+UQa3dYI63Pm4XTmWOyJXCTXeXKXT/56eAFNrqhBpOEFwpxr1hA+n7iNs3brU+iNB/7Bm1qUoz6HP7rzrkCPi58RmNadPk7UYflBgq0s5ask657151+F+N9JcOOEsMa43YY3oZpLi4Ydd5ARpPGusJF1TgRFbOeeiZfrdl9/zWt7sV6j4gSJT4vYf7JwkZ84yAHZWcj17Z5BG+ccuk/44UrPm7XDoK0SjrTuIvypZXc3OXYHUf/df8tP/vKNFXJbOqM0xtn/qT9rfMLGUCMGcYiO1BCBWuaIk8ued64DGNjf6n9FDhYtkXmD4XOaxC38rBeukNCe+PVSd8QxiXnzBidj92Fiov6Ma3GvQ2Q4STL73/nalzYWh99sY1O3YjGm0Tfv9IG+zv/mU7tadZcQU6CtZ3fN/frD1tj8rbfzrs17579YOdzXn3iv82/qimFa2dkZu+uoPyTN/77+r/wCTHy4AAa6159MWqf2Fz9eGLs7dTI+rAkmhyv/2Lh2kVdFWIzyauTMkMFLoe78u//FjxFZ3ptQI2DNxCD6cL53/d/8y49j8QzbmoUpPX8v7PX8f//60/1mjmBNscUznhWNZBUm3Fyp7oqJ6A0/emPbmm3/5BXHVMA3GKwetWwlHWIKdl4dRsdkGhG0dhFEwX71uj89a7/RFgXHVrwQgHnWBGeuf+aILJw3fuewHf4n9tSdDRQHfsMb1TYWrz57REewhB4ZYoI31HpyAgPR5JDla3A8XTJhqTHrga42PMQwtoWcDXV95AVVdBYG35Dnjs3iFSiLADbuG1+Re1VJROhm+8Sofi4cBQTauBzIZf4cbGRkBsGJL2bpeO5iwo90IGAj0zb/GlYGlx+K4Dg2yNAa+/KrQ9oY2+fIhkMmP+QdwtF/PZH8XQBU6EUGPL52ioz/iYMSEUcvRFGZP4E1OiXyc4nzxDT5G7+xtdShGn4GAVn+mX7mpLljGxtMvQTD1tjTxZ+4XFNPOFzJLjLEHHL0bQF+GbaNHH+4tNUl83Dd+LGsZvbfYBA6UTHterLGW5HkUEe9yx9LfVDsXkaWKIff/Tf8J1hrFAP3f1whJMC8FgXEXf/WQ4qJoXsPR5Zf2/VMzXxQSwD4XfyQ4IF1c+zZgTQycAK22T7xs/a8aDw1g+L+z6iwMtUiAnGEPPzgI1kG/SiSilQ7NeGToOYf43ybv8PYUUPM58XOhZx/Hk3b/cEY7Kf644RMLoypW4EywqX+kdUmxmk8aNKYqRluCLSTf7UoIckLHCh3Chf5RY8Vdnjd9z/2Xv/U45z5nGPY6oBYAHASG/OptfkPKiH0htn1b66Yi2RPbNz0zFD7YJr/RJlxf4spdughg9tTefgXb/XpYx376INNfkqCVQwNtKnrrLa8YBJ3D40l0UW3MdZAxMiVQmfDXpLMyo+KHOKvbvzoUiDiISFWosyKlSDvV4zie2wn/yLzEDA4Met9iZgiY00IJ7Oef1xDywZrwNVVyz1mWtyJiCa/CvhxyIu5MiJu/k/3Hxc+/vIXCXPzi/jKdEZz/xUW33BcXonuw08lxN/61nAQwchXw42FmSa+WG/+0SG1/vHFnQaHfrf7f+/1o9MSh+RI/TPnS3H8oST/ix9kXmhi3f+LKqKswuSlgR+XYpfWuHMULcJExNAbNg8azFzF2hBEPzGILaDoCW6nmSNdlwwzyXdzUEFhfNIUO3ocYhSzdPh3LCYy9fQ88d3+/POS6IghfhQEgVHY+bCSaWGa02WD39gyzJgTlgcLP5FTpjiovWBCe0s4kwioBRs3w/LgeOFuRMZIjVtEjNIuO8bWOCIfsledHv5eTFAigAzSXkAIYR8cLr7LzLLE56n+CgHbJnD3S69bVYAdUjaxH8Oyc5eEnpefBEz9V4d3xsQGMpPmsQbbq8xh8meEKk0LnKlb4u/FJFJBiWNOujg0f93qmPLgsPytbXCe6o/9xjH8xDuwrTOem7+hxCU+U/8M/FYkPQGDeSE7iew5/0rXlk30s9a/j+Lrc/Wymf/uf3TElBjIf88/+L+6/1qDq0bFVxqoK+7AMqc+XuR6i+z+kzW27YvQ7Iix2Ilx10wDNHhs2xh3nn74e/6zDpHFhZjOAnv+df1OrKu+5d/gb9hiLD/+nP+h5LAtQzDv+9/9mUL4OxPR9ebwUv/J69Rjzj8/uZQXAngufvLRXtHEMPzUTx3kKbjZzhq/vf4UmlL7nCDee/vvmb9rRP46EGAmSDd/p+FHzwnWVej6t/6xUE6nGRB5YXvff7UaW/X1b/3HPp0PM/DHf09LzXMgI/5cBXv8+foXXOsU+QybWzgMCl7aM3/rj021MJhH2A8/LrP/PREgoBQaHscDvfzFiu0LP3HV6yV/TVNf+snfamdeBwYJZPLf32Mhkqd27Kf+w19xOBnYikcsm/9mAy/nBvOzy2f/o8GBh3VyOYlH/Gb/ZTP2n9XHS/D6dpFAmjXejRM06sfatv6tB1lLBRk369hkHgDGAUbLZtMqYHD5Ajg2OJh4Dr47xmZxSGQw9md3DTbCDLwAFVmOPVm6uRsxaXRTCtQ1xwceRARcIONgUxo/OpWJPWcCZgTOyOIaSAQIpzU2JLFR1byJR7vI6lHu7plIrA/YeCberZ389Tn5T21KEFiIDA5O0Ief2ooYruibFceJAVtsOGHQ1zVThDqYP/B9B2XWcpSHWGnF5+Jg/bF3rErerv/O8UmDT/4MJn/E1h8ROAkcjt0PTKhDH8AAaDO/YPTvLQBNLaKLwvVffNc2ctJTzzjWkICdjidrdI2jOF0PtcNfP3OI/1DJiRUPrn1w3PUnprQc7Du86o8On3TelFKX5o8iPolp/5Iw8kYCUl/FjHQW0frreOePld9dx5O/6x9ZdPLHaHVd4a1H2coPY/FMlOHJGU3rtu++u/4YUSv44Qvb2X8ZQ57GxcUWWz6WpjX/xn34M2AMm8fYsmZ4tP6M8eELqxzl79yTYra675KH33XHM+bce+OSF1wxGM5GAn6U4qZL/p9ZJyQZX6rYMBVoxYkBV++w9cUGXyNOXP5YLZxE+9FA0BJHbTIpWIrYKGb/Z+Ja0BetwFiFtLbja04Ql5yu9W8te/2jDvGiVmnUp8SNhTES929sJsqJs/Fbj1g5i7EIHMgLh9yM0DL05oI4L6jEy8B59Pic899YIosdlrv+YhnL1C8gRNlZx7qSE4UmcZnKD1xtcYxnBD7cGEyUOhMTlgFJp8+sv28F4Z/1u/Z/7aSi9jjt9Vfh1D1jxMJjBq5rBSbx4Ajp9pniM/xkSljyYy8VFeBL0/bmP4KpQetOHMDHER9pMs53P+TEEQN8Fzc+cCIJVu//4w+2w/L3GMHk1PrHJCL3X+TE3rfUMUsAz9c/A0JRfnoobvm7F4KB72v9jVjfuHPvDzE1y0h+x/pGvv+buMnGYv205jCCPh0vTJCmWSPHGWHL2wB+tR3io8yYivnkhjFzbCPKRYJ3PJq6KgSrqnrMFMRmFfSvbXxJ1o0r/zpc/AS10vJPqIA/+YSAFcM63x0xIOhXcuaLOz7aYTjFn/xbI2zYTdGZPxc5ZNvqpz5xoRlUB6Y6pmMZefgDSQ7m/xIn7xy7yeKRxcdeUB7+8CUpfMCAjEZ8w38FcKnhPg0MISdS+bEo2BP/OkVFzGerjOuq75wdT4zydBkOw/KbQ6S3teyutTiBXo9JNLXo31kIufyrJ/QJcHIwrtcYFcYHU7rNe/vxveffeMbn5K9zwxOTA3vn7fqbwrGZweYv32KlH37Xu+8UCDLy8s82LOSb3C7BprNb55UeGvfKGm4vU/eY71RgWhDgd/9RvNuaib/0pLF3DHHVPh+Sf6Hv+x9HQKC89v9z/ff6c9nqwGFziOrQisO6vLThb6BZ1PXd+sfjzSfHgThpA2c9pnceAQYjcmgdavoaQ/dK8+16r+eV/2VDUpGf/bck+EwDakhuw9Xao5Yx+ftGYvO+raUQW/8k4Q0UYPlv9T9FHorM9/pT2LJZaklvoYAV7KBFuPVHX5/7+t/338mf4p4L0eJCgv+t3hF5KV+hWgySV0w9/0NPGD7MJCIjMOhZPCuGcdDv9V+s7beWO6e/QrpJJW7+3H+7EOlhpuWxI0Gf6/8N5Eq7GNf1HyIaGJy/15jRNilWJ90EON36tz7BiePz+Rf09TffRU5/y3+vq+wd3zzoM+gJgktKF4D8yaXzvFnKJFocJxc7jWIojoFnjKn8e2yPHAw3F+Ngmbi2MrW4GmI6/lzc8rHRoIihu35gujSX/uDVANvaEzv8txxQNProMmkF6jhHP9lJLHz1nzdhZsaxYMM2Z0nwoU4xvZKuIOIAAEAASURBVCwGaHQ9uSpr/rU8T6PhQiIfIy/uyZ/YajpUmRjzvf46VhwrzIsTV+NK9sQeTJTlJxYmSU+ODBS1Ly95ImRj5Ju104gJl2Q71545Oo4daRiG8p76Z17MyLGPk/x64z/pJiYfrhBMnIRpKxFIdZg5U0w6bR10AYsTGUUEd/5mNF7RN3aM8sqa8E7j8Ds2gmAsWLTrHtFVoUWiduW/139W7+TvvgfS6HOMz15T/T0WYzta7aAdcwfNC+RrBTydlp+c0MozeQGAHMN0x3NkTVOFVLoqbGUYXjICoiFRCqT3FD6cr6j8Z3Vi5h410JhM31qx/+PvhRl30TJIlPgNxx13SCIafvKYvOExR1UdA1Q5dx5a/Xr+LQo7Hc0wxqTrX+koR4//+knX8878o+MckqK5YOm5kbyR6JmB0si0ZYPh40aDLZOCjF7AEYGwX8OP66k/mDD1BYz5xwdJieg4/5aGwdHUCj/MjhzOqzFDb27B8ndA4GUbaIg2DZzIucm2xc+843mu/907i+8WCYgIEYpHj9+BrfXaNA5kW3/Yuq7yT/Rn/8W0b+4wKz8etiEEu7kw6Fj/KMpObuhgDwYpmhv6Btr4yB8AvuvJGvF7Y85m3asxgxhe+Qe1vhpwwK++5h3e7TUtaIbUIj8etv5F18tY4mEeke/5N3H4Jjn4jX340i3C8sPlp0Lmj/VYtJMfG+sjmBNFmJ76H/5BoOj3/DNeyFDZKiHGfClkDTOf+pN7PhSSu4uE2wFtsILWT1CxeScYOha0dYpVFCxgynnZOeq89hynObh9chFebehL7dzw4ZcPkkXo+6Hy98SRn+QC0DiH6+DVvWsYoSccfV6tRPIZfBdsihr+PTXJD3xjpY85EurbW2X9sTgNXXAbK1LGbPjJH2Pc8rJ+Oq8w8uFHogpfMLIpilnOyjIWZzBnYlocMD3Q4V/QGgQvNzX1NdL85N+69rEnOI0mtfHsCjQxXRS7VsrEb0wgN1OqmplUje3UPxrwgmj+xLF8jKuJLpOPrvnKagekSgxOG5TYX/Uf1KmN/Dib0viS/wxR9eZBZK0/q4ja9SeWFBU71gZp8995+iirm/pjMwTw41vAG7+y2dfhReMsgyt/1q4+B2MsXYuBY/f0gnCr//KjGy67+Hjt0TeM9AcnhckYFPbR7Gbcmr+jHlyv5EaZN//e8OIIofWHGwN8ymU0mUu5qjrkOPyeR9hgddV/phL6sFI14KB7/jnhAL/97P+MjQVxnkLP+othgGLAAS/50+/FVYuBFCljaofINeKNiJVL73CNqWJaAMGjUa/DX8kcd/85jbWb9mbBcNazJk0zgTSWsYff/LEN58ztojrrP/u6UNju+jdmjwHe/T/hG7+w5rSBgB4PCkdz/aEuP5lv/kMTyX3/3flriY/nmpYAFCUjwJoWYxM72SFpgY1hDMdaTM7/WildJPYQuM/nH4Zq1M1B713/QuML6sSx558xRzV1gf/Kv9b9JJTxrn/yN5TUBJIn/sxSFGBV0YOZe3jvP0zS4FfXTDNM63HXn6zq69EZI/JHwSpUsxyC9GBti9jzv/sbD33MP7P06IvQdZV/JKhaIjzJP+dm+C1X+uo3zth++uZTr3VzshEraZlarHvDYRBhDugZH71rlJlyCrnjscu0n1YKMAtQrFa98kmFtTybST5OgkKlL3FLk/EGO0Psfcjh4uFj5VpmTksVvADp11zApjhYcrx3VPpL/5JddcBgNp0LMW48K/npBw8I4GD7ZAd2F69P8sMfkOaODj42TN3B44GDvA9XMIG27AyMR4tMRj4xYchyHN/38gcjhl4c09/r348Fh79mQ8Ak7fDvEIGFUA2Y/M4aDLGc/CM3fPvJYWKvPHm7/vTPTTOEGtaXI7XcjzCLsflDHHs3cLFmGzjB7039YfWB78YuxtBGXLiJfaONTfPEPTpPgIvfPcpapDj7iaH88YeJtaW5bvF3H1Q0Odz5S2Yuemc+MeLCkCaycvAa98/KX8esnzGKC0baYLuubJbB9IExFuSx9ddhNqA3vdhy/p0dNSD4AGT9M+wMMjiZ0Tqy3lPKSlHViQd+f7k9U+sfFd7GjX/4uhTYD4hKsHmwYU3qA7Z1z/lvvQaFkMFwjdJzvp6EwYKQF+O8Jn3ARh6lJDuHu06sEW7MaN1V4cfFzaCw2AxjbD30YEKO+249Bncwg8Hkqv8VBoa9bq0sglv+jQvZUhnTrj9Cgtnz3Xgres2/19/oYrP7JEOB35x/rgcFJr5pg+39MOKbJgazjiuN8l3+k4QuArMG9/U3pq/wA9+Y42o8zIika+madFpDxrP+m79+cTM78bramG7Gu/5PWQ6V3TGuJUfzuMJJ/pGyd+78Rj97nT3jvHZ7/0kY9fP+F3+4ctjcoFC2DyQj8Nx+4gcntnd+58gGw7iv84/8bdCygCUXSP5IpJv9Rwbix/7p+QO7T998093rQ8EYiH4dMLBwEAl6AZ4dlEAkHTfGEudIPruQ8zRlPJgaMDt97+rDdM4djFIcL0AgxcGcSxAdIH4P/0wUn6jHLMYUOo3OEf5P/EB2w2g4xr0pYZsXPrxognDgQpRcM7xUF1Jlwb3x646CIpyAMl9ZwUeHTXR3fmi17eBiG3GUzzGRVwBYK1zS3tZ/5OmAphEzT8m6LKe81TeGi3OKolKzHEzPPJvAcWfwUn+QuueAwDk++mJb0XK2T1CTU9PaSmwvStZmAhFiGN7jj8wL0al//APsBfld/gCCqV+5ODaWjYiqSIZltVH5yc1L/uB4IxYV83jmyuPekR+c4q4JvdIciJUGH+t/bsiwosw3tmxWLyDU5Zx/kWcKxOI4eFN/jIYIrLTn/MGY+se0WF1X8PtgtzUag4F7L/9r/cc2nUHK3MPyM6t61//qdwOhN3/ulO/U/54aNetDeXy2/lNHYLbdQ3KcgPbhtBFg2STvtub2McDUmPakZB6fr9X/ZrvDQekaZrLXJNYDLOY8zoB5HtBc/1mxxM1NcXHkz4zI58P7tzG+hI3voDV0nMXIoMrWxkWL4JY/ov5epk6xT/+UfwxO/QHrScloPIYiVZ981YmBxeyHDos9+VdX0QWWTKjVRRWzTK7CBrMifA4sPPCj45B5Z4xqh1Tg2/nXB/Hn+r/lvwMAMjk5Yg7+yELWcp1B+YmJG7P7/9p/je0Woc6NfS/F5m9mMJW9ox4XYzPeuWuV2rUejREY/jXiXhMIbksr2o2fWLtlcJK4uZjrPQLGeWqQKIB7Apc4ZEQ0jSHyY2NEoEeWuuzTNHOfgqEUqDZEy4jXiqlp5xmkyHDQWhDetzvhWF5OuJyNxKUtV20QSJieKRKGG3zIEHOsGqUC1xR754uZKWj+LkFZSsbOHj/Ewu88fengMLL405eVWIwpknygdnC4sADhIXFal0xFOAoMaESVI3FsrbSJ0PyxKWNHN35OzArLD1IErX/HkONBa7+fm0QQW3lXG4OT/8i6MZuKyQYFHHh9ef1JHCY5DHZj95p/IuWdAM2VI0eBIut3FAgwiA5Tzk/nHLZ13Vv/8HMRmdZ/gpuJNY18nGWNw7X/IkGd16k/RtgTN7EZXG0wbDVJWiOPjHiZQI7+i7EEjishyDtaziHzXyFrSAAsGt8tBmC2XWFw+Di3PBwTC0JHlAgMp3Ke8+R+cdU4/AXRmLzNHVlDCPQYoNv8o0a6+19+ZBFSE/kzJ4b9kRxTHyD0bB2afxQNHYMOySVciicWjMif6QlJCyUjrzHHBXX/8+koQpOtPdhFw7bt/AhC/vJtHeXf/Oscp0FJQEUF87nBb1705lQfjiTinmZMI3+BovU7Bxaadt9/mcLYCg13/Dqix6C17P7rnPybguyxYQXLhcvy+6MIxJiJO7oiD35kwhiwst2TGwd4lHL3H+NGVdeuv9EGLI2YhdOw+23V1KpWYnYTYDf86ToC5jiVe4qsXFWjME7mN2D31sgUK4gN9YeB73YbjTEoG/nZ/3WbnKnFGKQD208iQbnxMzXByLb+iGDXJwHEvXEcg8ii3Li0uJ3/AO01TUPwCCWHp3MKYGILWNeKOSdxZJP/lqNcBFmn64g5s+ji6v438ohysfV6mzm5ELDPFAyZE3MGXof2XFVR/iZYAXuH6F0T8vj06Ye4JlcqkW9uoPTBXFJ+eYyLGDwNgAH2WKX3e8Z6agVqZuuFvi7HtZLA8KTVkrLp94a5KCKHvwjogxOlb74Cz48BesLj0QSJrfz1gooc9oIvNYETXwkUlZ8h/j2SZn8hGYwINyXMxsrhy+E1/87feoBvCum58L/mX7rmDz3NkO2pXeauhaocNvJ7/ZE2/1zXx752166N3PqD0/zxkt/aFRny3SdKhCGi6jti3DVNB1y3TMCo4do4ymL6UeoxurCIjZOhawdmm6tLTJxgbNRZb/Dw5sVDwrX/FoOoNB+w1sQaIk9w/n0j/XMAQ7DisvcAt04ZMB3EGVWWyeN3fvTh8T/+7z95/Pr/+vnxv/02fygLx6HFl00MILLwpmPg+jO+cmW8uEafWVl1esl/rTcuYm19pNJzIzc5woAB0mBNSJ7/iIyFWjOI3aIwq/IaNM7aHP7xMQzXv3rhAGD93ZMMW385B7a0G3F8CQSwi/YmK14EMeFj79ysY4u3rLqSK6iNAxhtxtU1jso+NjKTvx5RfI0/tu5TcGPj374Jv/Vffjk/PL77nQ+PP/oHv/34Y//wx8cf+uWPj29v/tmIr/uP84+/IjSPHYQr2l7PLMVLPgR78j4hJwfPtabQ/IPuPqzRe9cf8u6maAXkjzn1cR9mbE1Q2BAQLZ8TET3zHKkhXC8NVLYwljEKroz1ir0u+g4SvNgRABcHnMcHiFoZWcRBtUDtMGNac2LJ+oTg/CTmlT9R+Glqbqz6Ai//nWWEdNNikrDYO/f8I0RxdWeya2Ve2nS/wtKdV9fX6r1f/xIspoUM5tb/yr+RgGEJcYvyaf+lNjyY4XsyCZY+s57gGR0LxZoY8+ZvMhhMJlk3Z82HY+ufPFPg5n/zufEfqRRB6SKSmGPy3YYJ9c8/E/+GsEyCnaTJBPkUiWC1dEdh0+/Bj87vtekcG9uyJIi6VmFQwbaI2sT6lX9FEuD3gm0g8xG+2m7GK/EIg81GwfucD+HpRahyldEffsY06LK6FJ9KeeLiG7CJJj26a4abIs4vCZefGteRdLmx0s4FV4jFUZNDjCI6GxYJImR5tWzFB72juu2uRApIkTcW+Au0mhrUKg76wF+eYshwPqtEC/LX+UsRK0DAIg7WI/P3+HsyNWKQ3/IrumqWqesbvHrhk9bAOr6lZAQpXusfI8bD88b4xg+g77ZgCRf1p23+xPqbv/Pl8Tf/9o8ef/m/+ubxm9//6aZsfOg3jHF1Tbmgs//NU0TsqBeTkXt1QTCXmZJqXasKTv6Z6ln3nzP+1oG42dP3/A36nmMFt/Nv1vjd+m85kjTl4HDyZ966not55t1/1YyTdlgXw9H/S/yPx7e/9fHxx//Jbz/+iTzo/Bt/4hcef/CXEl1yk9wcOuZ046Rnp7jGpEaaY+p+Ocne9gjDuf5sMXr+ZRYMrz/BAMYm3oDe+cdg7eayoaNjizV+izZGwGx89IbDOSd/DoyH3sEmdedPHu9ef+NYmhgfvwjvoYDju6Ty+OChPtFMjGoIKM1zm3ycFqj1B5YMqnuqP77LD7m+OWgUULHLr2rs3+O/cAiGiNLd8kdIjGAKL00OkRFbWXDKq+EffrEQ1/35+muM+I2T/pMxDgfweYjYB1dC8GsieOKPTxoo1/n3u9x/8KfhxIs2edNvaQ8/atZzjTPOJzh5wIlsC4UxHwX5wIHp5MVFqBsMfZMWSMJsmS2K4IDk5aPv2kYkdaPdj7vklbRkjYVFwv5k5fiVv8k0Ut4rtMjpfaqPbzYFcd3f+RhEbOUPx9UanaGc/K/NYnq+zZ+Y2AwI05HD/h8zg6L8hH+RdBS/i/94RNeN682fGLVuDFD13RXC5mp9oshlOvypw25QQiTW1L/5972EcBzgzxdmPTBoQ863SwdPxMThTYhfuMSM9Q8Xa0WRQdv8BbQ2KPHOy0XFdtrmr8narQ6urXt1oPQaPbbCMk4j/8w/+g5rZOi7kdI3CmNFTlv+zp6OdQs/mLHr3smEnM2fMVMrVf6Q/DT/zPSv/LffPP7Lv/Ojx//8G58f3/wosPFpJhPXMj3xo8NumtPLK1S2isd2+OuEBWvhFVBbYnf9f+74J5t38nerUIemyKnb2jU999/r+e9CBIsL/V7wqQn5X8vPHu5elV28SNyjY2vV5gA/zNZOBhWGNcFJCRFB/57479dH4OMHv237x+NP/tO/7/HP/2PfefzZf+a7jzz3yDBGjvtjVXz5Zv/Bn3G6Pf+MKnPXf66/z0jRhf+6/sCgF4Opf/efgjlgIb+UOS+25onh3evPLgD6jPE/bfmX1r6Tlrj3n70R4nddfxIA+S3iXPc2fzTqA+QaUuu1VVmDqd7oTGr84Lruf+viPY+PeQD3e3Mi//i4plwf5zo811+Mv5q/4FsZUNKmFmKKXBnwb9cfXfAT73vX//2vO9hqywIFPtf63zWRZwoeWbVGjctPdbo4uKu1ELpvNZk0cgk9iZnfV/KF3+DGB9QJ5/wOFrEYb5BH51roBxbXvdSd6z+f5k89/KkO9z9+yViH2BadxNLC6ScV/MwLfrolcrrvfhoA1iSOM8Xhnw5ze1BQ53qRQcQW8uijwoZCCEKwnKOxzasbFeDYINN6+RFX3l4l0QRxAkqvV6b8aIWneQsxeij9OwFYFT78+OQr9sIXdsCTWwK83v1FjB9008q/+Q+s/DEEWx4ixBJXnDd/OJOfi1ttjxcN9hd/fAEEQsPBUtCAEDPlr2WyJ57yVzXOxzB2QPKKirJhYYviOf/xRYl/ps1/5ff6x+Bl/an/fjJS/BytEZ/KwT/+RgABFM2fk1FCpTk4xX723y4gKni88Mxkfewn1sKfGCmCj3Co07qrir31/+1PXx5/8T/+wePv/C8/efzW38fw4u/q6mqYy+8F0Sxq0fVvzbFuzgnGWm/+xWkokblAwjbtofn55U+WU/+Tf5LpCpJVR8T/nfwI5w/9g99+/JF/6NuPP/CLHx7f+/0fH9/5NtcEStJVwBofa2UtCtbzdbCQB8+NRL2nZoqR01YdLJAVpeN25f6LbFdJdZxZr987/3AE88d55T3l4/s/+OnjN77/k8ff/Xs/efz4R8RFJj3//7U/+d3Hv/Wn/oHHLydnr1fxmSzSw8x5MW/bojMBfM+JipAz9mvXn1FjP635lF+R5xxBhdFxWe727H8geLWeqyXeRrqS1iq2GO71Z5MyJ3yIGbB0e43A/sZfF7DnX8zh4bUCzTTs58eT+7MntcRqWXqeeX8SH9ZZ44HZ+4/XpQlpbTLVvuf/LU8U4+8DhPeyyhwe/pjFDvNtYOOM3Gb+mWA3+SNfO/q9/oiDH/jpiMjrX5L4kIey44/+aVvUWtwE6J9tmJipqfs/9udBSexyHH7YjI9YGx1BfLT+GSCe2MqTydz/NhflOMWH2GWY/Nkv4iOOjg48fm3G/Jcfocqx8YRKTvu/iZMX+r3ReEITMMEAskFGtounCCdaCJgLMkXk3hL3Q4zOi1OCyyjTYlGY8VYGjG04SZsPZfCHRB6GGQh1qTKqmUVkcfCJB1yENVMHwm0hBhU7fMDmRfw+48EVG5DaMqY+2EawHxqpRRDc1WOPHLEqBCKRP8Nmr++xjC7Gu3ngVpVg8Mn6u8C7eQem+UoCP/HrGVd6FHkBsAuqY8SL34AQNH43I+ufl5sOh7bGp6dwwqKCBtvcjYivEXBBXiUmz++S0N0j5UaG5HP4vZBm3k9NYjXhLz+WtDPHV/7Wqe9WQD/JYp0XQOleNoY8Ue/6yacNwuAE222T6e9883j8h//F7zz+k1/70ePzT8i10PhAwf5YrkxtVRFNczGUiUfz8dD/1D/C3asxEmPwwS1me/x+vvhJm/q3bY7nwkW80VOrP/KPfOvxq3/sFx6/+o///scf/pVv+WDzve/md1S+1f3MGi/OwNlt/kf2IniZXj7vKO4iY4Q07S5XcDu80b0ImALA9eTHP/3y+EEecv7+D3/6+PW/9+PHf/c/ffP4m//9Dx+f8qDMwnGl+pf/he8+/sK/8ovW5DxooWb/pc/3td8L/byNb+dfKxaBbaqXnJ7rX8wxqmVMr/MPe5C6jhzP+RFrrn/uOQLLucI5Qv+8/93xUdSob5iJZzBNCp/cnqmDKvINq9eS4G7+iV+150d84Ce6BikFy0a9xzI8jFGVqEccMyrZaPHIV+QnfzWV9XoSt7haQ3U7Hzzrjx6+snJsu/EzpF7kaOyJLmOw62alDc/rr9chUGrzxB8pcPrd+BFs5VEXt7ak7ryHTLY6GGaWmMJ0leeWTfMfONLWPr0xtlakNBoGaVpd/fDLoZ78YzX5nwetzMVy/cmnNtpm3PVnkG/riT6o/FcNe4U3GYQkJMRVFiUSl0n9QSowfjIE4wSQQvPJHhuNdn1a5KxzOePJE6cYy1+bbsAm1CdTAolOEmzwXVEWBP5L0GJpM5nhNxtFmNjb4tPR8o+hJ0DJ7rW5qlp3Nqm/CsjTa76sAps1XHgT4cm/Lj2afyvuhtOzHhoY5CI0cGccJnTsjC019F0SM64yfFq1/MRCZPgJ03k/+ozsVn8ibkQxNH8YStdIMtlBQyq/wtbPssbG8I0zfCEXF+XGs4Zjuyzlj50AkBGvk1JXRFi2S3PVn1XgYcmc9Q4q6+wFs/m76u+u8SJf/cUPzofHX/pvfvj4S//5p8dPf9LofFc4m6s3gHjAD8Tme/gntRh0XYiELDaTSTBT6lb56sCLJFOx1YKSNf+54+9K3vOfFE2C+L/1rcfjX/rnvvv4c7/6vcc/9Y/+vkhom/PrWOWzekQrrGeOqblcR58BtXTP3YWM73yv81fdO+a4DEatc/w98v/6b/z48R/8Z99//Nr/8E3C5ROaL49/+1//xce/+s/+gqG6PZNK/1zD1jN0bIdpDOcHxomCvdQorj2S3ZXcfdPjSYF7LHtHsi67/4ZB5M1cKsFe+FHEqLv42n9eN969/mgcp75jB78bGV9QjAppWsBfzk3I9PFQk1re/ZDHwHPOzvO1VwasDRn02OXo+cUExiZU+I7X+kkXg6u29WtkjYOj/Fx/AVseJlN/cPdvnY2R/MXB6fX6e4staiERpXT9ZPN3r/9Zf5jYD4YWEJ6gZN86EgXgkcauWxm7RqfcQ2XE6kPr+LT+IMZFmPLpPYHvNdI6wOPrLT96ITgu/y1/7r3o3f97/43AP/THOlCcNiaMCCYDE4sscwMzy8z5jpqfzemgfy/QSGjAGJY2LYo8dY/WVQkF71nAx6OyDCRAWqCMdsPORyobirYeWKDebaEkZWORPyrgG9Q1CCbr6qcEKuGPmkMIoOQjHG5m5Y9GjM49YQhkfOVUX8mV/5hEZxriB9zNf8+fwCGNofy1Ybz/3QKbgsSw6s+eM7CCvbwNvRFd/NQ/0Z3zZa2CAwV0ePjWC10aeUmSB888zJK/dUUNf3qXQiMyb8OFZi0Y3OuvFRZYd619Sk9R65fj7kX5M3dJhxQ8h6/1xy22Eydg9chR/hdclPJX/bz/hiT8ntgmOSdvYATO4df+7o8e/95f/cHjt74/tQUP5VBCYc0t2thUOCAN0k9JzZ+K8YAKRPIb/hbZnRa/yxUe4sNanp9L/omRvWNWCTcxE3U/Eszez+b7N//0Lz3+/J/6A49f/gUUNAqVZnqbY0WjqWqO1dSu49uxZIFcz5suw31jV6nGGf5/z//px4/Hv/+f/tbjr/3X/9dU6uPjr/87v/L4lV9KLN0UbmXTSJiI2BUMrO18bGJ1I+75h37ynZTosF+F2zPTfnKw1z/UOStYq73elqWlKW1PTfHDdrt2iHnnWZJDOwN48+73uv4GjPOY+EhQP+Y9/8il+b+e/z13do2tB7GLs5jATk7Kk2v23p5/cnL+RbccJ//8lxKtA/zBo+YJz7OSgT7BY0zYSLBJ76wCnC/55Ebdz/UXj8EH6PBzXRu0J/6Yl4OY5/oDIzD5qo4jr8YmPOPVxviq/2CoJhGAwmxeGZ/+wHWQ450D6Hf5x/rsPyi6DHHBg/pjhOLiZ7z3/9anap4/zht6PeOT7/K7vICOhPjZsnzeCGDsHI7F2lGghk/PHRNbvqafwDQDJSYEYcwGhB/a8njzRCQG/BlC7Jxjxv1uj2teWNCIq6JuAhcjgpYqg0D6Ssd6YTuo6bi1kUOVJ3/eecTSm3pGqDnP6Zv/uuA/eU8dqB0kTWGcLgrT47m5D3vxdvECnGauOFID+YViMvyxMIHYQBNf3/HFwR8CjQx+wtCbfupvXEhTCNU5ui6CJt/UQ+7hL9lYyrX5V0Yo5W++7IIJzNrJT/1rDnNeHNcOfoqzcvhj3OLVLyrcF+L9+sfFOmbV8Y2PJwQD+dcbILhIMAov4tGhZm8iO/xgIKfGrX863f+P//Pz42/8rR/l4UZJDvjOPsRJfmDLj24okOTFkQH5R7P1X345YyUUng3RPq5FY2Zy6X/++YmWfUfl/ee79h8ef+7PfO/x5//F7+XhhmqRsEljPklf+Xd0U1lVsuc12k5qxBExNZ72Vo0O6WD8/8T/3e88Hn/hz/7K44/+4QwM8vPj3/2Pfvvxmz9gkhV3T2TkRWz307X+7n8cZ/9/9oYXV0x4TRP6VGt3UqrnHoyh+x+H7j/XIzOvk/QAEE+Ovf60fpw7hjb1A6aJYD41jq/uflqMGpxeP3E+669zLHGLr91OAZjxE7/v3KMy/okdQ3MXIcrZf1wtiWn4TUp+ruehhCONVAgCU67/kUSnBZOTP5ETCyp6Nvm5/uCMC4dgcKU2CmXhow9hvzIx96kKLsGjQqShi3G0JtRrLHv9i05+epPIQCeLID/u3n/So9R/bGXB4Hb9lyMYrQn5109gEyY6MCVq/BE881dXO/wFwaj5DwJ/AQ1ZaxCbDMVNT5zOdN1ZftvXGMYOHOqXDnEegLDOyyoDwsITACvELbMJ8SMmbPu0hD62QXBRwMj4JJ6Bv+QlTgy3WNj4FUF04w1QXg3Yp1D8PDkjlz8sYqhAgrOctfDWfuOPOo/EkxIQxr7snsj4N/oYk0Ux+W10sdMjxeZDku9XZk+gBqGOUU+Ayjx5oGCatv7GEFn14aB22qzf8ter/DlSe3Bu/D3Rii0uBjTr3+FM4zdK6ODnLcOJCl1PgKv+yPqiJOVPDDd+39gNCmj80acclWz+zNxK9KexP4i4EfSoZeTkT5Dphx+39/JPMIPg6iWDzNljm7/7rVCYljEu4jObVcENX77l/7+pexNo/dKqzO/UPDNVFVLIIFCM4gTStgJCFDVx7NbWtJ1EwDbqcohR26W2bRLj0Mt2aZyysrSXrUjb2g4N4myroJhEMUaDIIPMSAFFjdZEzXl+v2e/5/vuv6psdSVanHu/c953D8+z936Hc+53J2zgXzEc+GMQ+bb99htv237n1bcPAnYDa4v8bPREGaf+iO8x/7SajTW8+DYyosor/hMpzlrTP8g/MPhXSdhjqDX1feKHnLV99GPP2R5wbr5HlYN81amncLzucalsF1OnuI3pwX/MIqde67CmdkYql6f7Bf+//m8fmvl+pzH/yZ/dtv3Zu/PWjus/8Tr+ibWDH/ncLJOPGZBmlnKnSWd89+nRT94zjVoXHPkiw2PGxmIC1hfblFVcjsj9POJnGk4Qa33jhcil6s0r4YE9+48giz9X159OEuLpJ99W4ShOGpM/0j6yRORNqroV5oSj31TDMe7+VO/aUrQD/7AFLEc6a/851Knrr+rD/ceyRXjM7/0DbCuRc5StT8YzeRljd6+0Q6Zg3X/abaTNvzgExWfrjwvcxQrmBLDk3c/saeQXlQAMHw+vahdIrq4OMOHhhfVKjJ6fWDHwqx4RxkEzHHLoH/CykztCTkf5885aJM4N9Tj3tfPTPeLv/S/sGMCJHhTaYOSYe0LKOhMIYe2iwoqnYi7j5FtmGA35RO1FceTFLqGLC3+kKkgqkykkFGsFYl/Yejc0Jt0ZtevTQyCMrlQpLNYHRlrlVRrT6odfXYR5uxEY+WnEyInm6jmVn//tQvTBjeqQP27xlV+Io55iH3jqiV9x11dfGBOtNzswZgb5k+x1zxnC4ad5b/yFxVLzCUIEBlx+/Wro2SdcJuYe3T7+jROH1OiYn6EQB78eRWi76EtDbrG3i5OfGipz/OOtvD5OvzSJqAdTEwPelUuLJq8Yjkek60aJ39RwvA+XjJJ+SIIUZ/6DMSDKG+RR/THGFn6Shj8HYuThz8+Ibldce+d2W35QVFmUunDCDvscA63/Gn95+Q/KgBZQ/b7+ElRVYBL7feUvxQcA/+RDXqmd45f2GsePeuzZ+YHic825p1U9K0iRToiPtctir/ipypZo5tkoKS4D72GFbSE+QTT6vwv+B55/+nb5o89pjTJH3nBlvuZPyEwX56+xzck51Lli/Bj4BVlmsEnxGDnzPi7Ou9l/ARz3w/xfsxcdbecff4bC5oxbOh7Mf9pahiWEs5Dbrsbnnikw1l1/rH9Ada8fNifGBl3nv/xj3rTKiXtZWCt2guHnnCpr3Tr/eNdWG2NPEz/mJqY7SPEpEBpDjYHzdni8zInLHn6wjNFapP5RHvMf3mEGt7aujWBMSLT82PlHVxzVxtsHlRVrY4g2/ORKi/HP0SQb/9H+vzy6/wwO9u5/1HTdf4KXsvktIZmJNQRTmHoOYS7T0vLk/EtkxMI7FvFd+fsAu5ygtxAULuOv3YjMDAOOOFD4HPKbcMmFysnde8kxZjBRrg2Ia9uRJzAdBV12ha9cT2u55sld+R8jPuQ46JYdcJwaX5rCMRkm2GqxhTuFQAc3l3rmjPE4cEGRq/FzrUsXdxVONOM64seJLi++x4qfRwTlbwziEgpKab29ro68S146vJnceDZAuFuXnUQdWviX3xDo3/ozRZpThVgMv7MXXVAEWjiNtZ4oEk8uTJb1veQ6cCNPi8TRr9CmsfOT+8o/9hozCWNvbDgLVBUWlXNG0Yv5m2z6wdu/coCPfQdzj9ZPfkcxuskVdX8miLHrPDT/+MtFWEN5z/xjAT88vjo6htR9r/Io+UBubTCHP/3r88e/r7whvHCAAV9O9AfyxBUG0dDjs+48YPtxjJO2xyF/iKmLr9GKCdb9nr/z3w00xTR/rkmGX/t+QH5DisP6k8+9HKv+5Eq6f51jyhOX1jPldrwOGCW9v/F/zsfkN6jyQe6/n3dxrsu3qbr+VgUS91G9zI5ScvPmGh3TlZcP19QuslX/iJ1P5N1XGvGbKa4Spupm/4kSWc+QA6ggWGk7r0c+FzzLnwgxR77s0kFn7YEJP3BCRshVXWqgPCfWwDpWU9wl5Er+HOHiXl7iWMuf09H6Q1iOmuFW3L4v4f4jf9bwnj9WrGmMIcAHXBsH/sh8uEEHBpe83H/qFA0f9VO/koqIscCPeyD48HvgEOPyVyS/QO1zRo/LMJzkH55jfgrR+iKd+sMMP3zkL0dRT/CnY/x4rvovfgUxiG/9x9h8Gh119rlT0L264cYW/lw8mZA5gbWPHfqorNMRv01JCTwvBDT7RDcJ8wSFd04tiBY1jFh2DBq974b5PyrS7/8viZ83w3iLgVMPcgR1TUqQGxSE1eFbPy3TRt42NlLTN0PioB2fzC7fB4AzPuqXA9fY6aISQQ9i4KsgDs/w0wHHS4ffNv28RKqLswouYlhrCQRlsfWIE4Nn/vDPoIDlQQ6iYjj8KPSDojlJrjyELeZc4SN/XWA3FjB54edVjhj5lnFkSx7+yUoh8vo0FiPHxNhqm94hBigYA4W4poVMHOx7UDerGsWSLgYsKhscB5B2bPkW0jgA6d8FsZ/T1AHzKas+q/5uMDrFLzb7V5INqeej/J1/SI19227KH/F703vnrxQjHl6vacvjdcWNaz6QCaOD8bcVXQKlPRQGRkWUWeOlK6ZVG5gPDP4kZ7w5zU593jmnbU96+PzGFIkfH1N/RU6atGKzzCb1Y49DG+W8lj2eh/Z45zKtA/BC+Tvmf9TFefpLDOzD77n2ru2qGzOpzZ88yKTzf80GwzaZnJj/2fv6kT5+mV/OP1w7YXLp/lMDFF0vrpnJ33k28w+9mDFVbh9pDtdjMSwq4RLD8PFOw5r/e9XJb5DG0/Uq/3y7Cb3v3pRlclorw8gnHXeRWpE/aefq/kvuBEJ9CILcIDzit486r5W/LOxh+AvItZES1zQB6osLh/yxTL+/hBPT4/yn/rspQMbTy2KQEyPrv/iWtmS7zcwHzBtO7Nz/saM2jUc9ECQZ1ZRKYixR8WLeLezef6vono5m8UdOOzm97apte+Wb7vaPnJLivv+nY912ApTgFaX7L4IR0/D+W/0xPxbGN/xJsQccC3aNfyz54elRpBFQdCXPhIxyARAbh/NE8thHqB4MnPLpQeB5rR9yw7cPTLgEEyeA8CKqBZQFgUouJoQmwUqx+wN05Zn9MXLZtHcCx2EVQxyxW6uaApgjPIAvW4EgS/L1i438Y5/LUBGx8VibWSARKRcb3EwecHgI4WCYFr9XlODE1u85LvBcHRvVrf9i1iT5RNpwAXawaOQoZJtMXvjNn3d6GFdiiC8Wk3+NPeeEw4qb64z/GC1+aAqSlkJOVEVNmrnCm+vib/61c8x8oscOM0H09md4ImPumClYcxB77REcsKysqskNF/LPQZo4lR+vvuvlW+TGGS07oEElA+qJj6+VvwwyIkfFDxi/96pUFNf0G83h6sKNYT1zdZ7QX/Xv267imSsIwab+g+cP+03+u2xqpTF2USwdcdHmev/iT858BUZc5G/ArcMF552+PeIh/dkb1TWy6Txa9aok5zHIxTyP7XebNKgT9ddo9zpYLEX0MyLVHeNZ+xPa2IxB4ffuAXha/x/wX/bgPPiRQz6uzr/8uP79mRzGO7TElziMKG26+fTVr2Q667su067h3DeyQOLA/oPPmqesf9ZMTdf8b9+5Oxzuv/jPvC5xlcbBmhInXqk1eOWYeq79R2NqNhHM/HfdEtus433dQDG4EKz5D4L7sde0h7/rP+gx7AzUOYJ+2wsC8OAHz/ynZ22idC+KmhjWGXMqt+5DA1KMmJU/OYlNzv3ACybfqijxwRV8eQwjRof668Iph5CAtBDFg3PHo24xsAb8CEc5W+G2GROR9BOsePv+Q+x4TuyMM2brSFu+XBcutt/9G3dv3/yT2/ZTf5hqB7t/jLJOgc6BMJc1/uYIiIDKUfs6uv/YnwBMu4WdQpEEn5zabu6os4v61hOgQ+IeWkSZmmZ9idqExEnxuA6Z/sHhcDLINwVFYsFyDY/vxhhwiLzZlb83m2JI3kwNPnAG4U+gyx8l69TElg84vAxMIRC+zcWVGcyRJJGhcyTAwHHccllA2uxPojHAq/DJP19ayF8gvPQrf+ASn/yeVUIRBTMpMUR+l/nHitDIJ02/b4gPzmWgkX4fVlry+K/81cWSNGLPw6A52m+ujVRA6w+/FShY+IsHJzE6crbNEAb59/wxPOJHDr9m/IwLNV782Hrw7UoaJFsZseJGz/GfIXI8GJNo+xGb2K5Nlfj2/AuFaWM0/3ThJ47honqY+IOMU39/HiwyIrAU4W+M6Qd3cdek9b81P4Rzx22Mf/X1BheUvBhTifSSv11iyZHxX3MSW2Sm2rLVBiTzOuRPgNYfiLQ+UPibB4mvvLnetZ13zrY95IL8xhAHuVoIe/vJep3Sc5xwOKncrabKu3qN/27QAba7bO9v/A84N8nxhWQ+77o9W/Wsi96oEzUTZqaZayJdEuay5t+aj80784i1gAHrzwnnqlXtXI8/W1PLyvynOnwgw3fmXwS8M+H+x2BIWj9wFj/xlQEDcMCjqVEacCgpxsx/7s0emKUxFraO1z9/X63Rxc4EuPKKB5951X/lMfz+2AQajAd9/AkNidLIDvlHmB754OlcnvrbzYn6ln8UR/y1KT+7SCPLWX7iyCtugC/u1V45ktD+qLbba607HIjd/+nEHia87OZa6xl/4mOvRr/jaTp2tPn5q4kgsfrAFz/mH/Wt5u7thvw84pXXb9ud+Z/C77hGhfwt74E3Gpzls5re/yIFj4FvqPYJqfXPGbL0Os7gYV8oILFdV3/GiRDyyi06hvjqzGUsvXY4HVLIsMvTF2RSRIZ1k2y7i2JgBmqfxPrFwfC4YlB+sFnEIPeojngoqnbYzg1By4jRVG2U6WXzVGZSadFhELHto4Pxx7FcNEDpgcxiwZsPUI6/HcKC8G0vvOMmq1RgaI1HINNeIuUadcLt8UwMqHRNJTPIHSyc++pNuibwax6M2f+Wwj5T2iwXf1BmgIkqr2DCzwXdapDvLqtcWzzmrQXtwfUzp9gXb+zt8yfUD/nrM0wsFh/ep4+OV8c31/j79B0OMI7517zCw3mYa+s/IODg7/gf+IkRXo7mn8bkT5+K5LQfblLpNzacyR9LDnDnq74IFj/xWFm5yuJDsf3y6q5VWvs6qO2AN37zLh6evqg/br7umf/9m58cWj2zspYdO/6D9nnrb/rtJlO0lTuJ0z4S19SRU9vTwWBBHZQHSa3St7HGNZbLJPEd8I7aR82a/v/Lf97ZzqiEwvzrDYnQ+jhMhM2BsLojxM4YmaO8Vo6rdOgj45MJE9uc82qjIuZW7NRUX/4DdoLhpuHh/lOQmOHHwXnxj6Hrr3pmMn/Gv8Yw7YFElt5SAZUDBPOnY4LlR37q/nfAxBaD+JOYKDJFBGdJKkl/mWCZNhac9ys1aXHFxcaah2OJtTcVvPI6qv/af/DyARUAYjOy4/wj8+kOAvhJIsgZf2xX/vI30IJoVlv3PyDpLpHjvrKNHF+O6NdvLWkaO8Z/HeU/xKFXN3BNyB3rVYv6ncwfuNYRw+z/9Nb4R2mthhO8FVoTwBcG5j885ZIvvTX+lccSU/CxI+e4ZaQ5IB1wC7dcZjnFGHvJEkxJcYgrryBDymTquxoRYV/GyJcPHMFKZIYBl8dkho8yG7FhItJecowTtUfTrDICuL3ER3eclmXKilLW8IsHZvNTNbHs/IKs8qSYhCJ+Ys+TWDNWEkWvQFiD+HJTVBxVeul3RhMlf/6beKEAFL197BSiQAp/2gmerM1hnwy1FEDoIFMD8yj2Xv/lC3pytv6xI/+IZPSmDyfUSmhM/pnU1CWmUeXsJ3okuSZRb+ix6cNfRLtd0Q71rxfR8wKlyLQ4ekVX/lxxXvzxcvyiX5aGofXUIBrrD5x2a/zbM3+/sQ82sskj1o5/+JC0/gp9MEsrxtEkAMd2rNoZ7sTJUX5Qin/IP9gMJvmshX4qv5mBM/Xf4wHtkD9tXwZzf+dv3aiGvzGR9Ej/TO+WrRPZoe/B9dBu/Y5ENpcf14NtOh5r/luzkWlFKDZyEmLhYHSMc2j/bfOfQV1WWFzpKqqw62MZNO61/rnu+09UziJTiT068bCJEhHunjO3Zv4iOZ7/ayti/uO/1q7rYeazKONffhQgd/2hYtU6/q6/RHYKP/bN7XAlUGWTw4GfRHCIlmRC0P0vImzzYg7QXA9J7H/uv+F3/19F0Gr8wLSPZw74p+kDwOSvLg8kbAnN7JifOjW5lX+Agpr9F//Eumpd6J4bbfFOrP+ogyglFzCQEGarQ4Pq9tq0ak/deeeHI819/8F+yXzoi1VjqnznhwEMEnX/Ay8CzOw3atkVJ+PIyZ8I/IIb2/TNf+5/vb8TAbiCyTPAKKTgLL9oCxc2/HCHJX24PYG4uDFDz4lr6tCnOIURtF/6giiM8XpKLXnceXCJGxPYWkwBeSwnnHLEIPO67zIEKV2/sjCIcMGPMABceblAI0LTQtBGxxELDQY+cic1Qbl5Yhl+cbFnoDucxANs/hF0nXNBIH8a1AEOX8iTD7CNAR2duLSyThzGzscf+CZ/+eNIDGg1J998AuFbipP/Pet/iEFy+XdXAfpVTxRAwp9T30KcwhBp5EaLgfVPMLRxy8Xg9UOkAGFe6cemsslYIL6qsGH+zgEgY08NbCx6co9srIHsVw4xIru+w2dxKE/4FkCvy2/xCaAnrWi1ZxsJbVysv3x4psH8s499rMgfQ14x6Vu6aY/aXCWtjGYpjiNY4x/rFAhLHlyEHXsXM5jMv4GPxdH4Rxjw5j9c5B+bzkw4jo6ZT5V9IPF3/MmdAnX+zzut5H+c5VGdjjI/tjgSHyqBkNofX9f6Y92crKNlr/H9lH9fA9SLl9FOFlyUT7+ZdP6lzbfxKfVMl0hit2owRXLGxgyV6xUfusy/TNY1/5Rxsrap41Cid07zFf2sc+axNzVjC47/fRvfmf9idJDIaQ1YQ6ocnt4Q6VcGZVfYkHuhJmnEhFaoXdqsfWJYb4REGgPmX2KwHevcFxa/D2LkMFyUobVfnFz7Ivn1UFLWYjfKIpCLZc3V+Wd8p+w/Qez9r57dL9smjOZK30775BB+c2giaacRE/6MidYhtg7WdviDAmLzxypHxmvPP919/KE7ZfybexTo+KggXjP+IYTTF2Z5MQb5LqB1hs4btP50JAjSGBP7cgYTNTpf2Ke/+4bomJ8OMCt/ITv+mPHFtvPAqIk8icslOLM2snyyFTFpOLxglE/QCaZfvSOin+sQLhuf/LCGg6NQVVeSM5g8+YGCAVMgbWTqkjliA8BmHfC3XSmDsDBA0sncgkAQI5NRzJjnKL8mdnk7LbYRlx+eYDEb9vzxGv7oWBhAsZQwMTDMjSFXSio/suE/upK/gwUPX96Khi2x8Rn58AO/ZM2fOIrafNDTX+zkoYslBFOMyHqkl4VvzggWf8Tre7rYOw8C20xjRs7Q5PARI+31Lk6l4R8D+S1MZLErf52NJgLUTeOU+bcYNY8RdnLmPJin+9aIQ61mBXbgL8Gay+lpR71sVz0VQ1KF4w9/am9s8O3q5i/G5InKwz7156Px0qDNgZ3tgev4owlm6p+zRl7phZzYl7xq5DHDdPi50911522xyz/Iyrkfw/W3wE9eHkf50zfXPQdSU2Id6hAbnZHvKGNV2w7Asu4Vy1tvu3W79f23KNjnv734DZQIOQ1SnXM+MP3N+QFbvOtagr8ZP+vBOBNc1+Ta/4JKkVgevFY2Ea3xx9ecPB1GHxz26pX/ilMzwNIAmjnmtxEQ5NN9M17OPzvBiVx+xnhkfTDJTSXKcnAO/8xLzYacCxA9TWP8iLibZfmd78Pv+BMkzrx4BwX3HLD2XrT4K/fPYhAHNkAnP4765bwAQCAG9JGJnOu+/pH7NDA+XoqF/dp/GRalkZW1ZOTf+vMIAEXjjJl8FNWHRPugqAk/Y5Mo4mRsQ1k1OWNK3TGgWT/KhKBsuUaubfLgo1ZEAVPO7P+5NP3hT9/9X8foSOKIv/s/3nw4wom2dYQd49a/dcSq7yYNv1hEkCPxyS/BET8x5cP0sHf8VxC55pOUQQZpPX8w7/hdRD+xWAOEmW2sky1B7ccuQxVNQMoHS63SalMRgTq0uSKIUS5r0teDcxNoHxudm1SETAxAV2wsIt+pGJlxpt0jvhpjTbkzxMaKltyGf7dHHmEm7ypOawEvWFwZtAO/aSwaMRnIwjAYfubSm71bS1MCw1xaN4Xxl4PFYzNAexsS+OMXUl0nTvOPbtXEDWfqZtiW3elGOJaeBuNpjHAVPg04Ok6IeIdDn8FDb/6JgVgc1Vwn8ihjzztmMaonDnh1/OEc48gjy8YkmzY1Bbch5WyOYIxBNOWPzegoEQe8Pnzkam0ljlI84mlebgB6sBWrjH2qV9NcrWQ05ccU717TAn8+jDOwzoNYwd/6NxedpGj+ZoaTjsGBlCOXt7/827fbb7lqe8xzv3k787yHRESNl77X1u+07Zo3/dp2zRt/dbvkSZ+2Pegxz9v5+W+f7/mjH92ufdsrtztvuzH/2fzW7azzLt7Ov+QJ23kXP3Z76FM/L8+s+Y2l8N/07ldv745t+cGPkM9wmnslhLad+4DLtkc885+FJ3mQbD4ZEy9/xfzzpxHjVFcw5jnU8VSxn8y8lhMWBTJ3GdNj/o39W97ylu2b/vk/39575fvyLmz+8GIech522cO3pzzlydsLvuAF2+WPv7xYZnLadtX7rtz+1b/6ru3qq65x/gkTnnPOOXe75JKLt8se9kHb5/+T/2p78IMf7LiU6O7txS968faKV7xie/wTHr99wzd+o+Krr756+67v+q7tyiuvbISMV0p09tn5q8wPuGh7wuVP2P7R537u9qAHPTA0Tca4c1rxTxpHl6NccQGTV+aK+x8i2rnyQsVhTTL/WB/rWDr2vzX/jx+AjuefWGShE3M8kllc9GBb8891Ezv339g4/x0T4owp65+5zZLT9eT+Aw5icvLqKV18glt9gCYBrGm6L0MGx8Q2riOLC0sNGPBzMM+82achLrC2coVPo2UNzGrHOs2VK238GV9rTZzJk/3XLQ9t2vCvh6cFRf1B4pPwOZQFlI8VhvJ8K2Hdf8wx9uLia12J4YDFdx6Mef036+jWvQW+bntmLqv0BiGwJqvOxkJdl96ix41ckYEHwKRjnNhwIF96IjKpCFRTFCbDxCF15uSe+AGj8w+3zlo18Cd3QvCNNviQwaM8kUfpPs5VplJDceaKvX4ENzmCYzA5cWAotT0BkQlIolHPpaY1j57J1R8u0rge2jpW2O22E9hwwY/5GnTYWC5ygTvBuzgiJu2BNwbiYZTxUmGYU5BIeBvNRYEZtuQDZw58y9/iOnEiBKk0gNXY2yVNMFDSiKGT0vx5xKpGi1Qe/OYf+3GBD4i1EdH3vwcjFzsZMqm1m8UgFTl13edyOOzoqMxJIFlNwDJH7GJG/ejbpU87p8NkDifCpZuyOgvSNkboABAEHlDnh8ti4BgBEbv7Hn9AOqF3fgRZKGv8+3DbAHwYW7EsfuzDvOYfzCv/icJaGqe2jXTlj+iQf3Weg29qSYC3usnjRP6yDqAXApoHKnzqDVRqWeNr3/Ib223ve/32iI/5yu2MPOA4rUZHEK1/ea59469s1/7Jv8+DUP4J4+Oe15rfdcf2hpd9yXbju/5wu+vma7YzH/jB21kXXLrddsMV241v/a3trAd9SB6grts++BlfEqzTtxve/UfbNa/5mZ0fqrzlwzmh8hA0A5RYL3jEx2yPiLiR56xx+n+N/MmZ8SJYa8X8Zx6zKE4caq0Qp5aAah+O1fve7/ve7fu/7/u3P3/Xu7bbb7st/7CTGscnu/5L/sO2/cxP//T2Az/wg9szP+7jtgsuvFDde97znu1Hf/TfbFdfnQecHGCZzjSo88t+8Ze27/me796e8uSn7PwveelLt5e+9CXbp3/6pzW2+L33yvduP/pjP7Zd+d73AnUE1u4Z+ffoP/7jP759zdd+9fbsZz17e8gll8S3GWFh69Ct07FFYlpz0fAYk9TN9YA/9eShk5rSnvm/NppRhYeaZ/1hgwtg+nf94RexGDM6zjekyKOxjzsyaYiNh4YBm9lNKD0EnLYBTXDuNzUy5DTX/rt815ojV9rO/1ln8Dv/ImdXX+uCfYTAvD+nSVjgNb7aqUMWv0QO1Ow/GoqbVg/UxBrME/tPnOSKlSghwseZtzgr2GPAkvlvNU0yhvgH36pw4oifN+qoa6Eoiozeyn/GX/Ngdf+JPu0+XMG0AsEKJLI97D9Ike/8mPACg8LRNqv215/uICFycP+nNeNPSs6/6Nc7/SAcDgrSOnnuoErBWNqVH9FwYm88YOO+7p/LIbaTwIFfyLHXRcGZPgUFo0SUpzcx9h7BTYbEAS9Zzk4eN7mo1s2f+vTAkKMCAm93ikSfz1U0yeAgSBTVAABAAElEQVSAhiLW4wS/UzqzgQnBo5xkDPIxPzzllMB2ZAFaefL9ad9VsYA4N7QYBBtf+MdbHb6SRpj40zSukXWR1W+QxDjEoducwA0+hjm1BdmqS8SRg8+0bB3K7xCbd50dqcRMyOLQFj2PAOZG8BanY5susbLQ+1ZmcClefMrfmKy/UvjRstKJOJ3w04RbyT7JDaI2KLDVYl0EssOT+75JOIY1b12CG73vxiQ2oYLF0FARMG0mCMZQH6gJKkbAlZnc6o3ArxbMAT12NazN7qH8kH/Y4sMPJ/ZXuct/SCvVnvwpimuBMDWILfHJCZ9BqDnwE2Pr300D19bVmOniZodc+i4kkEH0o+vvtO19r3/Z9hdv/q3tzIsu2x7/eT+4nXX+xduZ5z9ou+2mq/Nuz69sV/3pz25Xvebntgd88EdvF+V16ZM+w3d2upiK9saXfel2543v3R73mT+0nR1/qtIjrfy7lMVPEm76afxV88cHwK4V+HIkOctDOwd8yNUhyNG2FUt7WWzbS1/y89s3feM3bTffcvP20R/99O3bvu07tnPOPnu7487bt9e//o3bT/zbF2+/96rf3z77sz9n+8Vf/IXtuc997mAVhYePL//yL9ue9ayPd9yuu/ba7W1vf/v2Qz/8Q9uv/eqvbv9dHpj+42/8JsORwxGgMeOpKHhRzpx7wQteuD3nOc/R/sYbb97e9ta3bP/23/3E9srf/d3t//y9/2P75V/+le05ieHss/iV+OZhJCUAes/uvvJ3/jMF181O/uwSa551kaRoRNaYO7LUuS1Y+JA29nfzlf/4YcF6cP5H1tlONNkxM1DGm9BX9IDs72DMPCePHrGCZAZ4X39+RTOxMP6zP4HuA0uuMHb/aizg9cGl5EImOH4Ti/nv/oeQdmzNg5uf/HibcZExC5NhIDd/TFbFat91Dz997hiNUDsCjD0fIktd/qpoJ5vwN1NqEUt8UMXdWup9qD9Sju4/Pj7JgcfJ/Asi/8of37RBWPjWATykJEKN0u5vZNWyHqi9uyS+yMWZmglG7FS2M2KN5eJvTtx5mIsxy2HdpCiPMuPoWHbMCGn0+32NCPEHbXBybTTEgbByH9qItQGo6xsD1HTGP8b5FlWnVlzTbSGoxdqUkUKq1shhyTFk6mtQUZz1bz0ii7+Rxcdgxhjr4HWwIYwDjkqqW/3GksBj34kCeQNYNxF065COLuMSTPnT94k3vw7FwjCWlQ+82qYWPsHE7ygeuBxQwosr0JyRtoOkmEAq30fowL/yN00GAU786uqVkXVBdRVGv56/w7XoStJ+fOuY8xps4nTSqDT/1i3VrginHBDnxQUfdAmOSWx2M15rjIgbM+KmhvfIv9oYkHPhxMQyztSf/PTDQCNIoxM7mPIjwjBEyA26UWg9/Oiqgqy+8FmHuPdJqvXXTv70Y9Q+aHnFts8a9MtTftQ8TAmKZXnCq58BtC1mkmjeucJPRzX+aQx/hTmrp47HdkFCLhCxQoZe0jbtjyyXm658zXb3HbdsFz/ls7YHPvpZ4uF+1gUP2y649Mnb7Te+Z7v2Tb+x3XFr/lBFanpmvnX1wEd+LKkVO42zLrw0Dzjv2c6/ON/SuuTx8jNmPQ781I14q8kZlf1I7yN/xs8co+dvVKz1eIy9mMSzszhbgZX/Lfk5m5/+2Z/24ebjP/7j86Dy5dunfMonGwNRPe95n7R9zud89vaoRz5qu+mmG/3WEu/inHUWfziPeFvTz823j56Vd1aawGn5+x13xPvu7Tv+5b/cfvO3fmu77vprtgc/6CHRY2+SXSMEvccX76ge/ehHb89//hfEasW6bZ/1Wf8gDzXP2e644051v/5r/3F76oc9Nfax0d/Tzr96x/lXVn6RI3DvgicD7N439SePQ/0D65yOMp/WH7vJPy3lPakwJ36Gjf2P+Qc+c6g5cU7bEzIV+riO6CON3ocD4jua/zt/5Cv/Yo9fvAlNWfzk2fdfaLCrja3YcgtsVBMUkuHHg/z7JJNYmH9x5GZ4l3/3BTAQy++Fvdhu8yeBlQu373LhkyO+3f/SbtIIwl+uxT9fv6gjtzqmS5PDr/TSm72akODhxd/qqg9e9eAMrw+1yPj0gqwpt64xdPyr39db9h/Xn0Q5cY2DtUmzYLHZBwNhYrGY2NdWvxWT+VPsw0Gch/rTaawGacw5wS1G21ASB7Xo/IOumdfUsz7Gt/iB4SA2LprlREiRJeV8pRxp2kj85NTFk35YycGJ2Vi0ESwnBxqD+PTbBwJl8MCLNNguPEyC5cOKZIAiw3DaaVUIP22K21jt5kS/uS2fJlZNZJPoPNqL4Dc2QuNXHHxfKm0n0T34mVglkd+8YgtVTnDz8ojZpJguvOgZEEBzcDPL4aJCo3FY/fFyamoQCXdQdQNHqOKo68JVEamwi2LmlbnU1QgIoXxgMT3DH/3Kvw8wEXBMXg0bkAFHYJOthCbZzdHBaf7aoCnH7m89EMOfmUG6jH8WtX/rBzR9p4rROecUrvGPf+TyW4sp6/C7iRKSG0SjW/PLh6ngN/9j/myMhjv8PkTRNhgIQWwsNk/ykw8lQlVG2mmtfMef4qCnatZOCnJPNs7R4jD+cZ0jtta/AnHjTbxtS7OMxadz243vU3b66esdgnQXf959ecSzv3576j/JOzh5qLlXfrybdoMe5PviJ7q/Tv7MP+Yt4386g0Z7Txo0jglguisc5If2tr3q939/e9nPv9Rx/fx//I+3z/u8z6t7QBfSwy67bPvhf/3D2yd+widub3jDG7Y/e/Obyyl/0ODv7I1vvXhX54u/+EsGa9v+5E9eM+3Fj9MhEpqLr+IDP1bPfNYzt1942S+I/+53vyffSnuneTg/Iz0g7Sjlmy764pa/a6OczCg+vT/qhVNqLKinLhRKHZXrP0o+1vgfJl3XX+c0kyb+cYLvHuM/0Cv6nZ8JmgXevaxe+/AmLm/8zutU/Xj+Gzv88TdZcBSSXuU5A4+i9aDN0fWjUAPuP2C1Xmv9k0v3n6zjAMhv4PV31Ah25Tb5028m3V72wKCeQPZ6L/7B8ELMsQP/LmpjDuknf/e/LAipsv+sWpWvIJz7StyGJ0Bt4c+nJSWecHCseMRBRL7mH66Uht9yPj1G7jFD2t+uIkrY4mRQ9V3x9Bd/kEU9uJagSzlyhGBwtP5d8JWGVb+1/o1l2QdQdrBxn/qDQkQLj1jWjOyYxzT8Y6S2EfDgu8DyMzgAungauYZ4lQfTBs/G5KQvawMxMSwAhSy2fuZEBXBNUVvL0lsYwPWILO27MoL9qX0iroxRRdcIKFB8gg8bZxCKG4m8keXajyixkD8Dz6Cu7tiiAsNE0yhu+MEYrvIPVCZmv7qJC2EOpihNSg45OSmLHfl3d284PtDBJrsxGluS8S3/aNSZf+MyJm/z/CxL03Lc0tYiAKJ5s1Yolto4wA+HX4kkvzL33DpElsb6IWPrutcfC2JijDHKC1fGZq42EOtTfCazhkf8ZqaPkXEKTgz4qsoYZRC7/8eGvIbf+Tc/y2McQXechicXxx/z1KEVyfmI3+1v6m9sYjcvtkceZbg6/viZaqKeOeH8N2jibsOHNuuvsT4qlSV6wjvKDYzxnCtx06Ru8NOktjMPkNhOQMSof8dLVZwvvvyTt2tf+zPbFa/8ru2Chz4l7+I8ezvjrPOtAfxnX/jQLW/liF0uSCSlkRZ4VMeO+d83v+EllPr/VfK3jtRT+Nb5iN78/ULISFqfrmkCar/xnra95rV/mndmbskPED9u+4zP/MwGTCj7vKzHC1/4wu2FL3yBtVsQIFHhzqqj/NOE/3VveF0sCnXGqsc44wWyZ09Bg3OXplGTRbf9F5/6n2/nn3fednPedXrlK393e94nPm87029TgXQ4GJN7y3/gNewPyI8XPOw/oqSwAegD4xGqoJGzJjO0HU+uXRvNBOiAZU51WXSOIeOr/pZ0MDORGBMttMfP0HIihmCkTx4c+9pERj9nr7P+iL5HWvFl/0emTU6H9Q8va5L9F21euCZ/bXecRDH3mlVL1hGhdf9jZceVOMGXjQgWP2hd/weZrciJncwnf67UIxIsfIcoeYfemmEnN1pjgk1TrGnlvGdr3epYLfuP81+r+vWvr6/9T4DB4ltuxbI+xgUHwQz/7D+5JMaOg/qJ4lD/2f/wje59N9ydfxECtjvPoXYRML4g9Z61bTfk//M5/pHddGv+V9+V7KuG0BPzyahW5tWedebd28MuOm07+0zk8IuaQHMNBwfn/fkjbXGic86DGwOnBrllHPhw4HMOfA9EuLaPiT+tMpIm2XOt/FYOGVE1PXvqYE8QnROTebApCpHsATFpYxuR6yJJoV7f8zUWFNjLUu5OnsQY4V3h19fkYgRgojZp/OI+cxOxP1g8KEVc9hNbw8NplTtFD4FmkYHLiUnhgpE8IsNkEPFjQjSU8s9g4D8v39Uivrx8CzH+VJ0DKwZ3lQ+f48HEwklJLFP/ui5+b9ON2VQaEeZxjUv85Si/jCqP+MPed5lQYJ9DrOln02FhrfpTF3PFj9rEFo76dOKKEl23iWZbG9GntvHTnwXSeBa/URtD8gEHToiGptbFIlwVDkQXrptuXDtWqBs0fn2oASg5TYwn8w/78HTzjhNUR/zp5TjJjw9PWYyI899BxQbF0RFeKqK3ucGnc4ysnNfixwpgh/W07eInf/p2xR/+ve3mP3/V9qafe8F2xgMesV142Uds5z/0w7YLHvbU7QH5QeEzz77oL+GHe6od2M6te+c36qmbwf4n8yfW5msWaTZLZLyovRfzb+vkedQK38K7MfG75JJLt0svviTtaMfgqqvzTlYgrWRkQ7tdmt+QWkaEzpS4LT9nc/vt/Cp92u+/bfvt33lFfrbnpelt20d+1NO2pz71qbbXCbs1/p03CCKF+5AAwvKnhcPTn/H07ZW/88rtzW968/YXN964PeRB+Q0tglhB05r4uyJw7FGrKlkNRY5ur38kqf8eQuKhtrxj0f0nGhsDiGFuuGv9E6txBE+WxOvcTo/+2nM0E7dRd/7rMTVpmwcp//M0/mDtaYKfm3N4Tvcp4MALNvm7/vAh1FzpT1QIxNLLmqcVG41n/tEWZ2yJyHuUtVrrL0Lyx4YMMcoBq2MAbD7kpyUItWhc0bT0LDyVCKLbcdDXT1odouSrLMioT+5xfFHX3GJAN1qA9TGCPNANjqqclj029NYaZf/ZabRi/wpVuPb620jqhKA/CPCarbWG3F9oQZaE3n7NXdv/lDcgr2BJ6T+O0I+3MTK/5rj5xmL+3mtP2/74TbXqmeipEzkWZ+dPTM/78Du3r/vk9f4bfFinRj6ZF5wKgtWxiDc2weJ5mfoj7yfzf/oxO7NPivimN1VxAjBxAMTbL4MXgOIgxL4mlCRFSgIQ5trC5Ro9ZMDy9qAaYMSMQv/aw79+6K380WOCbfAxNpE07UVMcrwBYOFk1SyCFUcnknFY3JQtHfAlJwcrRGz4RBPf9VPpMPPVQ740SOOIP26+K4MPUINnO3ZguaSIEYw9//ZTEQtzF1+FgIUdzqfwgyy/CyQ2scN+HY7/yj9KVGQS9NY9xixn40kbX8sZSZDKmevy9K3UxNHFhU3RfGeH/PVCGu8JZF+w6IllNlznQQTdWpyuZQI2LQLx7yMY0HBmolj/MOBPSYjeRUGy+TS2gQDGRMVsE2zqSZCqB8OZkPYhf2wiGHwqNU9lM/7k2+ppB38A4Td1wCUAM7Kpj3iRixxbKlhd/eBvxWkgo2fTnNNMP34MIt44ECf4eWHLYY7YzPh/2H/989sV/9ePbFf+yU9ut1/7tu26N/zSdn1ed59+5nbRoz9ue/ATP2277CO+wPzvyR98Yh3wv4y/NSOAea35d5/5N9ZVf/f3EFGXguTiYcUiH2nUe9tGg7v5ppu05oeKzz43P1ejrpZf//XfsP1+frh4HZ3Hp2//6w/+wPbxz3muYnK8PT8X883f/D+EKH5T3+uvv3Z77etet1360IduX/xFX7Q98EEP2vmdfwt0XVf4QDA+OXo+jBH4l+ZBDNPb8wPQ77/llu3u/Ar6kYV+PeFNXQ75I9c2+FyZR+aEEesM4NTfPHJBrGV4Z8p0uFafusfHHSLGbRczrn6xggMPIc6/xbvv/8OPMQdYgMgafzCNtHPJecQKjok7QWwdfxzzMkbsaYDCHII/KOaSuL3pEgcgeR1sdQkwcljhKIY1AnceJNb6A9RwsTb5EZRefmz0z9pqLLGlHtDwwiU8xkPL+ldHFIZDveHPuTQjx9xYA0QM+GNg/thCCkf92FfIv3p8M3LaRsbnripOq0Devcm3jvRNYY89xIGMkKedXI0zTfDhguPaW/Lfwa84LT+3NySJDZdAE6Lk+q36R8fhGNxx93bTncElj6DLT0vf3p+KgeC07Z3X5C925U92nXkWXIRF/gC2iuafPvyV4RZDTWoHODnte2Tsie9MklzfWmAgwZVcfwLMAXhInSgIBrNNbOrkoMdunmiGbPB1Svr46p8T1Qj//rYZK4QAYAW8rcYEfz5Isq0qa44PhQyXfmCnzYSJNaLT/DZIbrdCK9n56xLbPX9IkHb2+vdPJnTBeGoukamYUALjmVC28PY3gYirMRE7eK0RYJF46cNQNx0raY7wMED6u9jST1dak15t7MAe/hhYH67LDgsnIo8bsW0RgM4zVfiNozHzEDGpTfq5NbWM2u/8xBJWscAkf32Rph9M6k8OSgBJwh2v8YM33/rrPxyNbK9/2nFigeiwcNMFq/m1DZ6yU/mxJdVoWxGSIP8c5M98QJ92wkgzfedf/QAt//QR5JPDuk63JQ5Q6ts2RvSpf/MvFmRr/AcIYtYfmPGBL1Y9NBm7CGkZz4iYf6s85Ttte/jTv2i77Gkv3N5//Tu2W973xu2G9/zxdv3bX7nd8Nbf2W664tXbORdetj3k8k8K2IAsfsGH5K/A77tm8Vlui//e8k8hGieDYf3x4nXy4ryMuBhV7+O/8o/4ggsuVHnddddt1157Xf9mDVWLLz/s+wevepUgV7zriu3qa67JnGStRiTlob7veMfbG0bq/+fvfFcwT9se+chHbt//Az+wfZbf+sJnApqgyOCQdOuP6N5iX3Z/8Rc32Lzsgy7bLrrowhlfgjkk1V77x/kTeB+eefCHKSeNse28wV4Va0nnNKg1pvZt8JiRfubfWswxsSas/8nBfGGJTlDzL06bMmmdU+saQ6TO313YtdT9d+z29b8CtgI5re8URM76j2tzRUX+AV0u5AxZN1p51xda8Cv2i8GCNH/GvzVY6w9IM2FPnPXnxDt1/cdKu92hsYFLrdC1/g1wldugpTwkc7z/9j6FT3CO6r8SlxPs4/wjJAxICbuBVUbu3Nz3/Zf48GVP07bv6a2RBsa6gcn+RxzjQxHx/MgPPn37H//RXdv1+duZxNP7f3nprwAWzi23nbb9+9/btquuvnt7yuNP2z6VN0BbHK0NpItwfJs/36J6zMWnb2flW1R7/sTMseefiCStwjmR/nEcvusjnwthfPNbVDzctAgx12CuLacgiDvTMIVMQdothk9TRlQInPTBFjnjnLso9isszTO4DjKJO7mKqO5U2woPm076C41wJpJdeII/eiI5Pbk6p2PtV5TwZuF1kFoYRQ5Eo+3iH7IWojEHb89fNQzBw2a/pIEuIt/Bsm5KkOaTKE7lByW6HR37HEDNfF2VxKqs9XASVLjCGMdcmpjDyFcFlLsLIip82OZW7HpFGB9oB9IWtXJB5dzb97LJdQ8AqMr3YuAV3lZEguJTf6T4NpADYfqtUOw50mfh7nYKhx++xW8qi79+6Pxq0LSYB5NFHnTYVNe7dELmxCamuO6WRwEJzDh2hoQHzOFnoziksmKjCof867d8GH9YyYvrOhb6pAsvem3aWBYn+DOo5z7oMdt5+ds3D3n8J2+3Pf0Lt3f89ndsV7/6J7cb3vkH+ds5nxSIEjXmo/oDbw2JYaGnhfniR2X+1K+KE/z3kj8Afq/em+udYjdfQCelQ9GUVdH50mgrftKTnqgHf2jvyvde6QOOocXo67/h67cv/4ovN74X//iLtq/+mq/ZHvKQi7dzzz13Qi7emWeeuX3rt35rfovqmb7r+KIXv2j79m/79u2d73zn9pxnPzvhDiNxQ3scwGon6VXH/avJ4yLF7t3vfvf26lf/P/pfnG+TXXjBRU1iAWbOoBTyXvJHvnIbx4mlmr3+oAiy1nA0zMdGr6tt93ozKhz8+/qr7+JkdHlgiHSwaeS1u+/ZN0bPUY4T8ez8+KW31n9hYIgFdSSOtf+nDmgk06/NVR5E3f+wEiESDrByKfG6KFcbDtc/HY8Y31v+ETu9jQHUPSUxjV2ORol+z3MFOTntcgdngAsQp/iHn2+jOcvG15Cw4TUxcGkXNg56+OcaP6TFSutE/rX3QQ++xEVueut0xH+i/nBs23Mfz3tAx/ZpB2ev/+TFHLk5P3fzkv+7c+iR+S7sP/wIswImR99LOj25+sCeCEi39efvbqUz7xLi1co2UM0mp0lbRORUDl/a1EPP2bTrwj0KNWyx1dBH6NhDKmLkidun4wU2Op8I48fEyUXCBsdtKX4IOYAP48nipkxseBrGBgJMsZPaE5LJndS74OrUUkBMTngbhaRN+iQ/2MQhZBpEOpPLhY+y/LFQ7yUn86dDLF5d9mkzoM0bWBdcDCYydXohq0FlgPDV1OIXFHL4pyZ2ccrReWNTV+sfWyfF8EfR/DFbcerS0/A7jkjm4XK3OAqw4cikemgS28KldjwkUYej+jOB1Yyd4ZuIeTse6RI+357a8xcEBY2cWl7biBa/eSFI7Xp0nq35t+cfG3MYKzqkt/id7tYwtTaYGFAYsevc2VbRvdXfsY7COcUJjoxnl1Lzl48YjvgtM7Lhd65E39y5EgTXg3Dlj8S1EUCsmH9wXPP6X96ufv0v3Sv/Wedfkr9kzF/0zc+a3HzVDn+CH+Xwrq+675MfU/k5/3Xyj705BcDUOlOg9lh500E/h9VIf6qyPeYxj81Dy4M3/mjfT/7Uv9Nq6c7JXxHmgebi6G/Mr4jj9KQnPXm79NJ+m4g+UfP5uMsft11++eP968T88O/5F14g1hd/SX6T6lR+1l+0R+LpV9Fv0+Auujg8UL/8FS/3Lx2ffeZZ22UPf3gepCdSQwBt+roetRdRaiKvNNVXVV/WP+PvRi9a+KMiigVhMKMDjDL7BWrG4h7rL3beDLGf+Sdr+Nlji8xlRVGew/478z/6E/x04DWAtNOvfvY6OrP+vCVhMhxpuh+UP/IkvH4ZYu1/1J84Oa/1Ib7Bi9C800dUnaR4HAyiXO9Orhy13/Ovb78IOFSZ+mN3D/4iJ6bFERsB48v+S1WXbuaG/OMHop6dZkrpMzbda2b89/ynnvHSDy4OO7mkvy8z2s6cUS7+SD2OLs4p+8Vdc8P/PRlj9l841v5H5wR/er3/OwMaz+z/q877/d+aBHTGX1ryp1GaNMChNsmf3H01js7tUmDvvBFkgjQ0BAacm3CQATfgEOGkziIDXh36/pzN2GDnwCQQbQgqIREMJrk6ielMXyyAIqPN1++STwBMLL/aFmGCATsvekykVQgwm0OvJiABUYAPf0wic8LYGSfwMdLwkD/uUucEChjLY5n7yFRx81/FG19i7ZN380cMUatCa3IgF4whXHjTjYn8KtLG2/Cz4Ym97OsNQYx08gsl/Hma5l2MegcpAPCtjaUq9ORPttjYzSntdPaYI+cZkbfAecSZssz4xxg/+aNLW88YGbM9cgUA5JyInwvGdIZfvTqYR1dTe0rQE+jCsIFRZUIig1+v6HJd/MicQ4Cpj+0p/Kqw4yMd+n3x0Jo2pxx7GNiEmJrJHwP4qDV+RLLzN0B9ebKT4wivK7bgi/9tL/+W7U0v/aLtqjf8wj35g3HL1W8hnO38Sy+/D/4oJ+hVE2K/N35qg4rz4tdUyb3nr4P5L9/WhjV74giQ2JNvg43F6qf59z/2Y7Yv/dL8UcJ80/4VL//t7Tu/8zt1WjHdkR8e/s08WHx//ooxvwn19Kc/bXvcYx8Xz1hY74IRe322/EDxh27f9z3fayi/8Iu/uL31rW+1fcyPrTWpxg4YgKDjxfnW979/e93rX7f9+q//+vbVX/XfGzp/5O+z/+E/UF87Ujrw61r34qx8M3Za2h+ipdPyJD9jx4a+5h8my5ybgfmvAPb5V8F9zT8RSpP1PIDxNfrBYiYQ6T350ajw5K+o45NJhNw4x2DnJ2hoeMWG8z7n9PXkWhLFPHSJG/tPvOpYHCBwYV3t9/94HvlhfoIfQcy930CeTyA8ocuxbvJjOvkf31DH7tjZ+Tdy+SHx8yQ/JhCyZvhIDPfgl7HBUEdWHvW3JhWLsZrtxCJAY6U9vhzmnysYHrl4P5BfhRDpFiq51LVncHjgPFF/plzRUAK41wnNfq+JzV7/w8DLLwIguHc5YH0Y/4m4NZiYFmns82viIcLRJ6qlST+H5gnMhwAQUM/bnIWCdVmO3q5ljh/K2njjtwle3GjnRRvMPtECtyNHEaWFAYaCRCI/KnS5cgQIRr5C6s+TAIp6DDKx5eIdI2Tg0MI4Pjz1+Y5CVbufsc3AuCAAnSKroy9FhbJKNPjGeMQXJ/LjQ359AcljwfJDFiW0GkGgLkKcVv1p70eB+uuQxUZla+HG2add8UbruEcOpl9RlGqFvfjX+MtiqmAR1wQQDurT7CRWtY+/9Y8xRZt3X3DlKwDnH3L+PoYYE3fiREzP8U3HPvxI19yiQ45c8rKFCwK+KrGQ9GmPBXMdQ16KUn/yj60LTTcUHMQxb28jgn/Fgn+ORDYNHNOfLvVXd5Q/feuJX+ww5baEjD/Yd8ct+TcCya1hD1BgL3zoU7fTzjq3/LLtrNtDP/y/9FfE3/GKb9tOP/Ps7cKHfVT+mvFD8hBw6/beP3pRvj31E0bywEfl2y/whYvrzm8+LSxyDplXjbFfOWMWo1VKbPdInDjFRX4if9Z4QMuvMpiTHxcD6qW+acu/92hsF5x/4fYJ+fs2P/VTP5XffPrt7aprrs63gq7Ynvvc/2y7+OKLt1flZ3D4dtO11127PfGJT9q+8iu+YkAJ2l3I2KUb3ksuvnS7/AmX5/9GPWjjZ3u+5X/+Fv8Nw+KnXhx7zkAdss6vgP/O9h3f/u2mcN31129//Ed/nD8W+JvZi+7O/6V6wPb8Fzx/e+hDP0gMeDXksvJe1yjVR4do1U9eONFP/XfD2NUSX0YCQ8+xpx8k/OLsV7dM4LUfgsUaYWzW+hev06z54z+RxPQe+5/25UNN3D3l6lejXcf99pCBJI7Yp9n1jz3rL8EkRjBwY2vokZti+PVHaf6HvEqGcXzJlzkVG/EHwfxzcp+b/KmRSz421uWU9U8O7jHgMVAW/5gf8OYGlnEr6akuhzgdGzEO699fIef+c+r+G7S8N2EO5Si/7uZ/FFvoYOEgBsYbbo5GhYQhjxUAFgcl0vRzMTYDLkZxYp8G2N0vkObYsdMeUZmm/mMjBoMwDraO1t9MNznukX+MCW/t8YvfTKgV+pWkYWBMA5YcadPCP79FlQYTHkFQ9z+BHwk+HDxUtEfSLbwTCd1U3ZsnxESWGdoh0h2hZNY3JzY240SgPThpgifTjKJBVQeSusgSrm6Vce68BwqUxlJABpkny0MG2MQKbKVpp9prsiPlkHr4x7gYx/mngG44CQhOasPDYutsMOZkivJVBj78K2cai8prHPilOQeUWKwTXsf1p48ED5eDMQQ5Pd4spIbExSun2WwU5uSa0iD6JH8q/6qX9oufxIx1RRbtQMszeC3A8GOCTa6OarBsAxUZr/Int7R7zHipjH0A0PUmu2Jd1uBN/jhriCM/vFz8JQYFDTakNOyZUAuzsbkOYrkY1luw2id/RmYp9/kfe8cTJ+bFqj80A7SqNmlp3zDCH5s3/3z+V9SYryvu51zyxO1DP/8/5AfxzmsICClqDvgf8fe/crv5qj/brnvdS7c/+9nnI82Dzjn5h5vv14bToz7lO7cLPujDDOVU/lV/7MpLPQ75r/mnzPHf6eVnEeiRkAzrlPw7/9A1ZoI41H9IId+P8u9dosKV4PL6xE/8hO1f/Itv2r77e75ne+1rXrv96Wtes31f/i/V8cG/cPixF70o34rKu1bjOrNIGOa/DZzSfvrTnrZ93dd93fYvvumbthe/+Me3r83P73zYh384WnPczWlwrFzi/PL85ePfyuv4wOzjnvnM7d/8yI9sT3giPzd0SGFvL6x11apaas0nsa/517mW2iBHUW3Mjud/FBjM/KPtjXSwxI0J9ceq40W9QWvduXpDrLDG0XvsfgQQNC5ZP+5/GCiGhZjaRdwjEge+X8nzbMXh/ItcV/r5cP9zQU3+kZN/b3bw4VkZQdjlJAjA7jZ20fp3duLU/BMdecQWy2KOK33sqFvanKy78jrt78SqB7H8piYtdjR6iENz8qHJbyzJjTLypVKW2E+tP/I9/3T89hwIbuTh4iZuHAD2/ptGc5irdcAnJn14A5WxSL2RpVdJ60Sfg9go+ESskfWPsToh1xjMVc+pS/yZkuXXfU2DCKNY5LGwmsN14I+UDmOCeTqHB+AI2H98eCLMks3o8XdwIlBW595aytvEmAygYzbXuuxfIHM7XZmSCEdvstCkRWD5GJUohTzg+tVCup14HazaT6g6HCYFiaJf8WpbOIvQPOPLDzfzlBydfywoBNzr6XNYkFZNoRMvStSNcZZqCMwltvgyQdAbL/njEV3fuow87f1hUd8BhIsD82n4QGY2YRC3nIw7g+qacRNJDcEqVfOP0u/tC3ao8V7/GFePb/IyxsVPLJkcRxj8XZt+tUVw8Yk9ObqJ2UdqYA6AjOZklMrGM/FRqxn/YPin4JGl3a/eeVSAn7rhFWwTjE0+XNCR8VtW/W0D2Q75UwecjgZU93p3k2j1sOp8Ndf4UcR1LJxcD/mXi4TYABZur3UkZHO5D37yp75gwObcsFZpL85oHvaRz887N1fveXW9w9+inHfpE/NvF/gv43fnD/l96HbOM792e0B+9XvnP/3s7Qmf+b9t13/4529Xvf6l2/uv+/P8R/Eb8n8zz/Hv4TziY7/K/1J+X/wM8MM+8r/Zbr3hvdsZ+T9UjptR55SesTP/aO1xo/lP53/44oIZSd2pQxqUxSOoqYmy9OXSctRLFp/qKn/BC7/QB4jffeX/vv3ar//a9ta3vCX/buGu/CbVo7bP+IzPyL9HeP7GXyfGa9WR/HlHhx8yfvYznzUE5b/oogdsX/VVX7Xdlm998YPs7/zzP98fcJ6TXzH/yI/8iO15n8y/hJgjAX/Zl33Zng+1Yb6ec+4528Pz8zbPeMYztic/+ckxJuoeU0k7lKDHfefPHFn1pyT7jTjy1qKInf+z/jp5Juvo2f8SK/b+/Zs0qLV7CPAF6jUk7D9AgMYVfn70YG1xxpHuPALFjuoGcE1oEkt77WnumdFbn+HtXo+EI1fWP0874en+p1RI+YEMk2tNbgTYJ85wef8pQ+SdWGATl/zkH+zmXym+WLj/MP/ywbHzR68kOnib09RSX2SGXENkvLwVmG3rPvufOuq4mKZtphU3H/ffQnX8ExMBsP7iQyi6zu6GirFgxLzJY4AsmHv+eqUP4Oy1xYjtHIRAjOavvxJl3usYUwwQ84oNcG0OIRjI87Hk1n+//5JDDDgMYN034+MYDX9snOvip42t+WMXm5F3PyOGhRPmgWdecv897dZbbwXOCc0C9TAZwsxBO3KS6UEjmpUdQgwNqk1EHrCtSuo2WFHSpWDMazr0PcauHEgUDP9KPE7JyRCCT3HWftmouSXNsRrkdkhiwUZGbk7zpEEwHOVsN+3J3+mVBaRdTEmtHmYSLyz4oJUD5UCtAAnD4Rj5YbFHgJLDONO2O4buXwg6yRf2gq90gYIFTuytD5f6mkvwid1YxsabOKD6eSKSQywWOHrzb/EP+eM2+OtKl2Og+rDSuvTtZhQ5pv7TO8l/BOlYi00geeCZHMA3hcWb66H+AVhBTv7E6Xtj6bOIDvNvAhXPZSmuAcW2oXC+a/uDt96x/bMX5YdY96BpLote6Yo4sB3b5j8WZB+OYCfGztjy4CkehkXpvk2iTqRcj0G0qmBFen/hdzdi8PySi3fVklluuvyA+pMfe9b24q94JEnmmEKdKNqp8qM+zb/BsYYDOqYEVetx/+P/6K/5s8wP1trp2//yTy/envGYfIsytTTmnJja+zHz2fHnJr+Si43TBr0frp74phcMbgIAub0sPMZrVWa1YwBvH7LW5pv+WK75P1a7+zI4Xv/gLDv3P+IinjCUblAlTJs1YkoIjNScyH+Fh+8gxAb/HGPerz+oDBbDnMZx/rtGg7Ey0BqWB4ST+/+iuUf+KgJAkDmO2VccaFb9axUBjZVUmnub+qcOzbHy9bBAmLZ3v0GbsW0dYhU9cfb+kzYiaguqcYLEUbv2BsvL4i9WzPbjhvy9nH/6oru2K9592vYpf+/u7Zs/lTki1FxXhy44ZfnL8je+Fddc98jIJSDGmFPzL7ZzhNxz+HeDOmQRIPOSGwjoOfxrkG35LljFGeY8CTqpYiZ4H/e1bOJRZFMDZWoz1wTGTTIBtv7FqWPo4+AQEDxkvPUmQC7qPPnUT9w4MOV5Ok8vB0+yXNNjUuiM3YCoKjdN1Gg67HrZtngo8mvEy9N3AcOnOPkTkG2mDDn50cKLRGAY8CI4wqA7uaeZWBkyjnjvNuFcfsMzJjGD81B/5K0DZKDEkSZgPurG1kEri5N8+I0lYjTEzsFmkGpWSFN+9BGhi8HiR4rvMb+OCOE0/xIcsgRHjwHVIw494PcRJG4OmVjRAUMQBrhyol9+/5S5EGHCR0Wd21doxK3/zM0ZQ+3xmvytBy7kz0F75083chDKwNhNTpHAJzrKvb8qEAn1R5UDW4crEmWeDGLyjwAcLr40+IDib/zNn4o1/9RgUrMQqyKm17qekFMrBZN/O0ravIdgHA51x3i8bbQtxK5Zg3BAO1hV9rfED1levYlNDJ0W1oH9twsCs8ydtabQomOfmPXXr3gB7Bzr/tta7A8W6OqW1mHP66QTLusWg65/578Lcvgz/3sQ9DQVtb9GIQjBIOIauVZs8m0V4Yc/PeXryrzBoDms/JGx8rr+MCjunj96RSuCWERmrlhHVw98D/zNO7LJEd3ix4P8l27xY4NOQAgkhtdZXzW+5j9jsfNX3bgYaPRw9F6QVrciRGnfzd/xmtjk52eYclhXDAAiuRxe3EyrZ/yBBhOwmtlTxvivHvOP+DU1LNrr/pNWus6/Gf8T/DP+ncONRRz3yqK2/sVHt/LHp48Uay4GGTMMwrjWBbWk7fhLEVKDMrDeyQiqT3BLl35vW8VbzBkw6lSilJWBErTCUhOEQq+0kHM0YIhncKwsvnnFh5QbWwcgioNzdC0eiDlSpP2hJv4mzLXahmCOjYqzYdFgcnhg3Zee2PtiZJCnMw9uyP22yk6Q/KOLeOKiNfzYpiehA9J+ZTlbQAwWWD1FU51WgtWet/ewo0OdeNE5miSti9ZFRK1ZTvFHj/ZE/ppjVB0c9sbPS7TMEA8xIz3mnxj7iCng2E7skuLo5/Cnw+bgIWNa6zotcFewTBVswWDHlh9B5whI/nn4vaYKzBcrNmRtKk4/vePxlwcOWRoJizU8+FE/DuGRJQa/jTYxjlaDPQt0wnFym2oMdg/8jlsYwVj1h6vOAiTcMlRcXDWMPzw6RJIAkVd3P+KfDYnArIn1J+rES9gG3PxNZU79FuaRJC6HSuA+jjQ1O9IuXQkPfstlnytLcP/j9/8qkduk1W/drvGOkDnq/sP84ou6Q/7eQJOaMyIAYKC1ptafRY1EI6/s91QDmP0BNH3NuHKs9adN979RnOAvdIym/tjA1mFJy/WHhIOcmP3DjySGrDMtVgHIYyaMVeCGPvsve8H+bQoR8YeTjIZ7rhZj33/QmrXBNZLy7/vrCpOr+aMPMuvPewP1T/xH9Ze81LKiNx5kU//uN8NtFGmHY9W/C6MySxCdNaEG2pV/fwcMIThcrJ89OmpGrC/1H2s8JlxiOfDzPGDM+/7f+jMGWrr/QBWkGLb+oOVY/ADIT2UVo81wlb3WsSEnPalrWsztIuHeI9fWMbbYZMy7/2GAfx+8tYJfL6OiOc9s8iTY4Pt2GEB5O3nlWOec5VgQSZwBF7C6fTE6MqXf36mgcAGoPQTSWyh50vfpGDwosKcRJZOo2KgWf9qLHz4LrqNyYLC2ZBWnCz8d7KtnyMmLPjzFTCcPdc7jZY95jmN++qUFMwewYJm/jfKja/cUftKbKuM4OXA51J9OXnzGhBGTB8wc45JWbaThqy0akd0jf2gGABP4zR/zCA7jr6H4PYE2Y2KLfiSAhNqD8YgADA50J/nL7aYAlx+z6KAjGcAYpzhT/3xWxlmf2isfnkVP3ZH33Rhb4Q8WBnZPHf/j+seEBQgm9jzU58Lh/CPWklaWM/qyKKpvJGtegrBcepOpNfJV8/VVE7XiRU349GcowKcdgeMsDazI7t/8JkPcBEvINLqgtjvTvj1/1p3DfG3VxPqnz/iv49A6aY/+WCeRgtZo16/uXKnncry/8d+Wv4fomCf//d30qSPVZG6RRv80RxNa5zXv/LmWSf7k+utaMH8UOdx/OslKDFcJ5LHNnpNjrT871HmKb0S08SPuLkDNuv7GOONvSzuz6f6DYxSuf/YuuvwMETJsBYalNWkLaSTwYRJDPjj2/NHPB3EBiDUxLMz6QQQn/t1f158+wXYYTuY/KMUCLwdjQzzzxREcQPLgJr/z3ywANYTWP21NYsweRhjHbyrwbk6wWn+UsQkPo7L4uXfji8A6YJzj5Pivh8nByKX3H/xSG3zhZ5yGX4wEREz16hl0WuWjgUFe5L+Pv4/gzUcT6o8LdmlY6s4t+oy/EKgZf3xydP+lAUulxpo2MMpstC7kkG+BDZn2lg8heALBZHFEit6qD7iLA3+jGhds4hoTNWk7LLwTkYTx7CAYiYl4Cg/26Bc/lIQtVgqNsoOGfHDaSid6IXVqzJxxS0DgwuNVw9qNohziE2+t6tyF1qDBWbpozR/cfAJnwDSIOdeJybfPYlPvyJk0OhBSsjb3uI2FDIPnRFuC2PaJubb35MeQnFvLjks5QpHDU64BT7Oito+GNXI0kSd++JmAdEkSHU0Of82Ta154NCX88hmB/JHjvviNLPo1JsgpI/VaONojww4+5z7a9iUD/aj+KlXEzk/w8gHGxF1v6gMWLyScWi+aSDr/8Ka78u2YnTr++BdJ4/asP/3hoDDWQ7byt1iVUwTzp76IaufNHX7V6PJyoMAOTFLB8v7Nn2yI3zo6mg04+d6Z/z9z2x1rEM2I02TfvvNPaWtjc50OiZ/w0dMSxmBs7O5+FSo7qdDiIAonwXv87fLfeOvMU/jPIAb4j+IhNcY/qq41TLDAj+vM39hho10Q0Kz57zwDGgzkfuVs14yx67sV0nvSR210DB3+rk8wOMCHkBYGadLltDYS93LyQQFzonI91L7rv3Hi5/OG4OMjavDBUS4dTMFpUD5QRbnWf4OY+49CsHBpjoWsrM8l+JaPdCDi0vxpFRsNx0GXThx8oHEsoguH6Sd/ofb80RV5cYDVck5u6HHaY3YEMTN/VTmRNm24yp/48sEnHPLnhA2HMq7EmM6Bf32pFeVR/j5IkUcNgej845oXUZ1h4e7eLjzn3vLHYvhXTIAQbw7Hf9p7lPAbuBbatd8suv9P7MZKLMHjMyYg92splHntpV3VIqCIj0IToJMxAEnIQuEaKyDXwwk9/1IxRLA5GTsKjbn2uPkrb/LDlI+SitmcIai9m35sOHrjoxWdgfC0xwelXPzpSRufcBAKFvqMK7dYn7gdPCKY2cKElDqn4NNEqzvtzESlKBTSAHv4aeM3+fOgJ/+SYUnc1B9cfZGdwh+NugSzvxMRSbHit/ijb25Th8iFD1xtoickeHCWMswZm44/SmKsHfOhE1pDgogLoDYP+ber9vDUDhSG5J8LMeAdEevAmiip3FgELj9N4kwoc6xlP3qk1B8DbeBq3vVNN2R8yN9TRJHwwqgm+0YBY2Ns/Ym/dYGgD7q0zjorr7NDbkjUnOPAb0yIJn+n0/Bj5iI1tuUWPnMAkPzKDwHpdW4we9QWNu0PCP7U2o1o1T9hW/vkf/Otd25X33Rnxsfk1bQQR32bnFqFpYlg6nBCMhhYc1DsXDDZORBXm5bH/ZH/Pdffnjg7/hddePp2Nr8RlrCJ1WmVyN1/WKvJz5r6czhpIYseOblaf9Y4c4uMyV8QC6O+FQkfNgWMYb6u10QgSERY/PT1K2jaWX/cE8oS/qJaevb/yNkfOv/pRoZJAjTWdsKfXU5X8m8+CiIjA3TNN9c6BkQgVkya7AO56Dv5wxUefE/nnQUaBjb8uZBv8eMPAGjaLd3iJ5cY8HnML+9x/TUozeQP3H6TJqR8YLDvv0Fe658cVw0ZbHz9jbZcIff+B57hIKS+R/wEiB1771H+ygBDrJ79Z3IiIgAFdYPDIi/O2KPHMycmR+zQXXjuadsnfuhd23Oftm3Pyh9OR7bf/9nOjuYfMa79n0L3QTVYAsNy2P8k5YQuXJ3/2ORIeJ3r5E2Ha3gxjZrandlm/Ak2QRhumhYWwFgqK758EVdGz6BEU4Zm/X+N9d+yZfOEruwEShD0vbYTbyZVcCNF1BXWoBvr+GmBnVM6ftz6GZCJKRjmJFSHqDrLB7EPY1LhQv5+gkfDgCY9Ymk8QaWOjZuFOBpaxs7g+D3mRGTNY0xUDEAs+IyFbSXmH98WNbrw6GL2w5/MDaeyvf5ptH5sLbRboc789IdynGV1nbXlZICADxeV4SV/5kEJh7+5x6wc2uk1OZNTfGbsGlMkOz+EJmC8WOLRSgeHbotRKWNH/VHAOepcbDM31yxYf/9Afia30OVy7tCn25PxIwJprz91FBlpMBigYGkHf9qzlrW79ILTt4ddfMb2zvfwf5VA4QBBIhzySj8q53Ku+zwvufZaU38aBO5njBkkcgFTI9oR6VVTeo35/s1vwQmRPKlJmxHfvd2c/1j8rmvu2D7k4vxXcDUdV8cwkj1pG+0iXoelGR24WChr5+CgsNZY3VONDun9h/8t776tuSS0Rz/sjO2SC5ubUebUfSf1zCRrZtQ2hWYuH82/Q/0dhMkS/5n/8TF79rK87eC77BmbGsYKJXMR4oM4zSiGS/9I9j0O3cz/4sR3RTlzgLnATQmq+mMDRfefmg8/c6eQWnT9a177NFn/HoJNrrYhSMN2LIKlbcR8Me66THvtv+bgJolP+amB6x/3vDqPAUx/6u/+ExJmUIu2Yk9f08aE2scv80cxteVniqx/+t4gGIvlG6uY0iWWxY/3vq8E2LGTQM3sv3GCmiDS5MWFcyMi5hwFU8r+r5P517r8ZJdx2zGC4thU/oUfd0ax5IrlpMxXtKIUKvlzsP+v8YccKegZfyZFE/VCcB3CY34DxiXqyvc14c8YwQ9aDEwwTQ6Gn4PiNp4mlEwiCxBMHgTBZz8QkbhobdjXeuwoJX3CWU/6eBdxnctf5Eyb+DqgJh3r/DNBPeBKEfpgg0+w5U+THrFOH6u5axmzT328jZBc4ScA3pir34FfY/R8kj8fFhMChOUgBtDgMcPojstkXJm1K0Pt2olXcDzYaPhYfeLgBU8+e7lH/VGUP5y4GsgRP9gTOyqyJDafdOXCFsfmf5gQwx0b1OZOvseJHdVfWvHABhNJw0F8XCN/OHwe+MA1HgOvr17GRFyZpAml9c/1BD/alX+8CBk/X7hODPiLV1X5o8eEwuZY7zzx7cSGUm4YEB3zX5yvqJ/wcBYi2vKLAbVozckmJ6AWP80V33hjQv2tIfMkjeIGJ60DT8wmf/QHOYmX4v7Gb05Tp0RIlM0p6+8v/uKO7ZWvv6lidTSniCZC4Xjd41LZLqZO8R3TdnYTIajXOqypnZHK5el+w//mK29NxIk5n4+95Izt4gvPyBw8df2RBFaTmzemypgnK2PnL/Mqqr5SL9NdvljmdpMC8rfCPEZvOyLeOaDK+/4HOm6z/2Bn/SUtvk3krJ8ohaSP4ey/gqioFv6Z4rGUQL/D+us+pS5q3v0/7C3uvvotrnQwyufiJ7a8hGn+8lUQruFfdQg64e6VCnCREFLjAz/71EryBL/5t/6Es35kwXtt4mrhElCclOEMadA98LfOUMI56PArL/bpjD8u4JDUuFv/Iik77H9H+cdJ2j3v3huVASt07PfBQYA2Mt6Bg3b4kK39H9o+kKHEivPSr/sv/bn/wK8Z+GSaFzm2G10x4Gj9A9jghj95ML5j5i7tw4zvY8m/nww4xOYRh5KJq40YnNBpVNddPkioLB85JjB/iCs/PNRipY/UZNDrTaM+idQ/PkQ/i6JPl40ByxZyPZ7ghV8wSdJ2HxOaRGU+WlI0LQyqb/2l2WEWpm3yx475l4tPl1Xr3R8kO3gVbfzBM378iGr8ebRNpyWrhwt1rwH+feCZlRiuRDH8R6WejQL+LhCZC7kP+Kq/Yk79BvFR/VOLmSQGCQhkZGj+tODPy7phsGS1O1SgOmicP3gCI0KEUdzFW1vghANMQ2L+0SAOG/WBn3DXpD3JjzzmoksSVwWRIO1L/iM5fziw/OMfQ9/6lbr+RQWA+d844YL/3HyL6pmP54/Ijb/8dPpaCM2/2ezrIxz8iqc6g2/+1h/AxEkYzBtrNvNP7uFHvw4h7uf8GdmJkPlD6df8P2177TtuMRVz8rSqh7gFPRYfa5dF7cYc4SmH4y9WFIDNXGhUonfGHROJ8XfDf/3Nd26vetMtiTh1yhd0F51/xnb+2fe+/laqzBVTbDppttbIXT9rXkV/XP+VZm+U6FaFO/9YYNYvA7fW/+L0mhBbR3wDfnCfdz3GP2NOaM77o/HHG3lXAdfO/2IGnPUPaBx5Jjq5/mPtg5LZFwWwOQiFl/GLGzv07j/lgk1+9x0c8OA47L/EJFZO+tcgskSm/eKPApx+aqtGv+J6H1j8+A7g2n93JM3RU79IKYXmRMtBVfI6rr8+reCyQkS5eQeKw/6qf3pr/11xT7EkI5a+B5JaJM7Ff8BOS2Gxe46dBr3KJ2/RqktAsSFSRztG/jA3fmv+iRsF+1/aezf1FV7MtKLo/IRdgFxqAVce5iAJEDIuO0Ha4DtgUaZTvzpjrMvYK2304ixINzd9Exj4RGq16TCNmEjwlE86Ys1RfHR9GOJXJ0vX0oCdMdbOh1f5SRjEHLksfoOHUhVky2SKRz+L5b74sT/oZmjAIqZckJgIsIsn1/6lTQRHcvKnbwJWPy6xcdxz9eBrA3JfvbhMrh2IsRsoxwYR9p0/5toHvSpa/yPQ4MHrx5HfSgRRxx/Y1GbxT52Nz90zegOIA8chtMTQWiG29hkbFosHlwgx9wEgcde5MR34qXEmegT1PDq3eUIOIGJexrgCQp6XM9diDFsMDUl+QiAi/BOHpHylcZR/dA9/4Bnb2fm+syReop/uqVeyIQPlQK/dBl4/JDMYYu7RebXzR3HIv37gfaDwE3zzT9BH6/+t77pte8kfXN/6k8+9HNYAOTW4F/1fJsK+sK2nnRM87cyUvleov23+n3vV9dub3vZ+c33cI87cPupRZ6Z2mf9MZhIwZG9vKUj7zA2r03T2Orn/WPhVfyBaRdbc3MaXaC/wuvGRe/PPHI5bPeFiTucYAevDuOiniS3hsnIqYA+P3PiWU2c/y04xenOkz3iVm/1fSS71p9cbHySg9d2tNIoUu3gbAxigkz8vTIZf61ZAfvbNqMwFe1oReP8BYbhWCu6ndwAAK+RJREFUsOxJMeETy8EO0uDDlz9pKQtGfl0ZmftfndTJndbAidcTUCCndvAsfmyZD9GYWwDQNy7qggECOHMNMbmg33WoEUWwm/uwiJcSETrK8KeFz34036Y69umsOsCDecefRmqBjL0Vpx2LHBDF13KCFZlYaZp4dLjwwh2T2ACBr22u4w8HXWzzrpoW2NRB52h5YoiEs0+pkVfVczUoSanXqR5Zic4+xtthGPgVaSIsNQ450u8HBhX5lD66pSejtScWDhSf64tNlMRBsHDwSjW7gBd/J2NjjR2U8uOy+InPOgHkixt3v5pONwfTgbfTrBvQia2Y8NaG/OVPDGHNAYYXAIyxTujKtBpkJiK8afOBSzlyTayOR+TrqC79JZr6E8NeN1CXfhr4aQrQkUy8jH/50S3+iSUzkbgYKxaxvDgt/FwRG+vIyKkUu2C3F1XS8sg7Ox3W69uZaRIKSKVKhzYH8ajlkpd2uVL/0ezyBhdFNM1fIAQiMy+YR+iJ7TDG0VP/aJ542enbV3/6+bjseZlf3Jr7wRYHvJRjb0RpQAMAuk7PtOjl2Mc//Zlj1ZXfyOr8gcGfBDt3O4dIkrxuef/d24+/4trtyhvyK1XHx9RfkYsnLXzGZlI/9ji0Uc5r2eN5aI93LtM6AC+UvyP+l7/2hu1nf/d6oyDe537oudtHP+ac1C6RTgLU0fFPf79Z+q2FCJjQOcyWuUqC2lF/7OlP1sH0A6Hy2uacm2ltTsx/1SAPP4brCBYQHhPDenhC5hy+L348x3kNNXGxBkSNUDVms/58cBi86tKRF78Q8i5pPvylF/z4wN5g2qCm7OOYr4P9wvUZHUBc1voDQJxqPK9+SSPqhmL3tMSw8xv78MeMjclYBgURBzJiWPtPSwlLDjC45HTiC0pCRWEiOcXJXFMr/4+ZXDmpjx0NgSpSDGY+RpwO7ZU/5uM8Y7FsQfM+in34PDCdGP7f5s6l5dotO8urdu2qssrESgjxEJUghWkJ2okR9Qd4QIIQO/4Amzbs2xIb/gIbdrRnT3sBQRsqgmJTUUKsBIyBSgwaK5R7V7l3eV/XPcZ8nrXe76tsSoQ9v3c9c85xuO8xxpzPYa338LEKeO/6y2hRI44dpn3oqS885W0fdX2tPQ4bIQRokYlyOMkdsfc/b1KA5B83w9Ed0jNHF0DhM7bkyOblXMLohsFYcqAY/vOpM2SsGqvEVV0fAZVn1MYFMcExh+N6EItMo/by65E5kOISazlLcI2hHsN0FF5BDhlEKR+ibDOwwMSHF5iY+1tHOIacf7Z0M+rNSn4A8VgdPkzIe7itVWTi1VxM9eGP6vCvGQIiWcKZ0tGsv+oxME416uE3k9j4AKo0MRFuxj60UP/EsBTKo2OdiS+uvqPQdeQKGZN7DHz3gN38M2YcrEkM+DL/YZlyOZMf47QIagFv+JkQQC7C/GOc6NsYWPvWDeWdX9epP7pm2Hy4R/DY3PDIv7EDfPiRZcJvYvzFP/Glxx/+g9TSEE4v/9136g+LOLnw9aSOn7EWHX5GfXWPLLcya4WkjTjWPnSO6T9f/C1Y14n8mbNIzY/rz3/9bx8/fv7v/JfHL/369Z+DWvytFznZyDYtnXnOtMLbkTpBo1HrctNeiuhnRaq+47H4z9rMx6DwZ/qEzeSH5P/7/+y/P/7BP/+tx7d+i9+g+uLjz/3Jrz7+6s9+Ld+l4j18G1H5povp7JdLkxFlTZz+SxwtQedqSIFvkXBub/6eUBFB0rSj6/4nSV2iopc/I3HHL2IV6Bn0D+BtnOtRnS68lQchMbT+wSOYG7+JsDlk7fHwZ+DypC8n2GmY09heyZ3/DoQkpxoIa0/+jOHXpyh7/omz17/o0S6PEQWWyBG2OjHYhgE30vSfDiDrVf/hL8HIFjl+hJtOyfADe2QZWTHq9MIP7TbqbznZh2nlZzxW5/qHqDYNeLkiW/64wNrrFesEINaRbbzWMYb9uuUfW+zmnwaI3HhjD+Duo+yLgY/Rdf+pjBiCkFc/fMlg+IHsfX/W85b/Fz76iP+LipgTPBuK4rH+JmFH3AdTy+g0icJ3EwZZ8MaaMYsMyKKnb/jFjNLWJYssjr5Tv20GS0PxgEqzm4kd2UrBoUnCn68kzDFtumvSOPx4McnSb1y1iT6+4JB34ysIR17IbZN/PwaORIeiyV+3KBhQMVZEpzFOZ9Ox/tY/c+oR3daHIghnfaaW1sYqHRjiBujKH6yAujNqBuoEm9Et/wmjVlsnejzi86RnHl3y4d2UVlDNeh865lvMG2/BNp6xYf+t7YR88ieG25qevcFJwV5rOLrrs7YEbVE2HzhjfLKa/PHPEvXTvOLVMg/+scfDGk4t+476C4//8GufPP7mP/xfj+99d9Q1zMTBdIwTx2nXvPkV35qx/oTcLn3rj6SIBXGX4ZD6rsapRpF/jvj9MxCGneR8KE2fNfHnzvykIOfhp588/sDv/9LjF/7s1x8//7M/lh+qzS94vqe1Nluht0ZvNa+Sa35GO9j+LeyR1OT9hm81r5Jr/r38It4v/fr/fvz7b37n8Y//VT7J+s1Psg8/ePzRn/ry42/95a8//vQ3vtadOtuH6yTNPZkF7/WXembMdoj6af9njmu9dJ1Dpez3c72b6/5adWdxftSfU9l365kjg8/9x16DJ/OGp2GdFHJ9OGfRoJXs7G8c5xK5va5ySRSq2etwRc7B/M3uxokq05jNgUF9lK19ZE/8gGJAb8eZ1esDdgvWOmgw9Y9TvnxDOOuzGOIh4+Iy18mer8UrPtDYDMUTP+f/2m4PV2zT+JTi6beVExz4R29oOZyAGGmhfzXF1WSuP2Ln4BSjNPKeBW5ESQl+5VF1HzWww69j+YYFkPgTxX0kgNeHgjPHz9+16r4WOrI4spuaZLMhiOUEd8d5wMlnxMxcGIxUS51DWnTIyFTm6WKPJbK6Z5ZBw6Yv8ZUUyaTFbzfCsRh6vfLUuzdJzQepJzL+sWKvMAQLHkNsEXcTEddGqLGBVOZ9lHy8MeIMGC+wW8AKOEZm/vSZjw32Z/GJx+QAmpv98C90FPJQZn89MRd28RCLq8UcitPJIMCrXQ6JJ7NQQjr6jHxHwg1Y7egvtXD4lB+z8T82cPAfIe5Dzw3fIktijaBGK7/1ycyFqaKf/hAndktATPwXG+kbpghHDVpMqdFzAzMKYRLjrBuPp9TBPEqbGc5Im/+Fp2XYyb8cYzG4ZaysF6MqgAtmTuRAkowXYkQMietf/vJ3H3/vn/zO49v5hSCkZVrj2jEDgPpvTMwEjXJz3piqGzTJilD7kssPm3qRg/d54+8u3QS///3cwIkyv2TAueK7y2wGH4L8q6WfPL7x0199/NzPfO3xo1/94PETP/rh4/el/8qHX3x8yAWV4vXLteS6UMBUAx01dZgKUqAR2avtLcUHBXS29WstqaAgT7pMFOfQrx+K/5Oc9zzTffTdTx+/89Enj//4ax8/fvHf/s8Hl2E2Fm/yfvqP/J7HX//zP/L4K3/qR8LB9SI1PPsv5Nn/LLmnEPl7PtySjWzPP2PWsEGT9+v+p2zElM691OtvJmd/hu/cyLCqreef9Ye7+2/3NOfAfUcuFrLrkWEsgAQiPv68iZE0H48mS04xO/le+Hiy2H7KMPhgeX/AR4OSMN7r79vrn4Zz2F0Qv/A/5a+IK1kj7mIEOQE2I/JYXuB2hp7rX27Pe8Lf1bHr20UqxH0EDMm8/jT/oOU8OPfIUw8rpUf5lnNFzMGj/hPbmmwf+XJgu9loDU98xWY9Mgerc1QZx9k3fsYcWVq9Ll/5qZP3v1arlj0Wtfl3BQAJNvs/TRoTKDsMfbDCbtgSm3kg+tgHHEJv2rW5AkJD6xGuC1hiCFys+DQG7Rnvt3IIev8berE8awe1dYkFDkwg85BB+hnCD85qjsJMphSToMVPUdzg8cDHT1kYDTYemnNRdcPMaSfBsmwfgG0EYqkuXRcFvMq2HOafqwn1Ofljw9WEq0yatSNWQN+VfzQ1jL3AnXYFt5B9qPIBB/t8eT3sGZhMhx/Xqsm+JWSj+VDXeBBvjU6N6yalexsc/QfMeSSv9XcTwwR/9NR+8vePRIIyObuCt/y3pgYcuzAZmuHJxygJungn0Ya/xtQ5fFomcEeJgWojU+dasFe6/xOQY6waOWDY5sWQ11n/8qL6d7/yvcff/affefyP344sNt1mwxlBHz5jGCAvbrv+b/hjEmf4tU2/1PVuCA1o+WtrbSX/PPETddafbGb/8nDDGpjJJ9H4piZz5fwfBahuNvHb1fAccJ/FRsNUR9z0frUWfosaaNd/9x8+2OcL27w4F59uGMi6eLXNEYeLf8UadvKZ+fHhRZeeL9Y6eyF/B9ZYf/zHP3z87V/4icfPfSP/c7i25ENIsQsP3pUw6vqTv+eeCZFc7f0z9/hF0JQYd/+JJwT5R3/2f3yJSRYMaOQ/IReeWV4WGAcIzUNbjXXLYSxzXnmFJRDsN//d/7/L9Q+37p+NafibUeJjnhjmAuX90LUNa/bSm+vv8L9r/d+d/2JP7AS09Zc9FaPW5JZmmvBb/1hy/dFHtR5eAjb/W/1nsWK4ucIJKL4cMiF+3iXSgwEPY/R8MVx5BMSma3y9L/4u158aD96wIpvyTgzEEmq72BJDSZo/+9J/vf90/a/4DDcp5APLhDpcdsu7/YT+yu/+6/p6UcZ8W8bef/0EhyCMEmlrNlu65rshM3P9AHLxMM/k+DJOxAmW+qkDcINnDMYk3RklqSU6oeZez5wGXXkY4FUffoBKaJwcRAVabHxKX0/tTjQCshGXtYj4love/MHsV+You4CEwNz7HDa+gyLKtMTCvrvnz8Y+P79Tq4lMhxxEH400TfPV1k0aW6isP3Vggn/GqLxYERu64l78V87rBUW9GbWVBmQwgpmDJ4gpMhm7kfNHAv2rlYrLam3ij3H5jTCzOFHHC0Y4ofXvXjQXvfELinV2oBUhtP7RZQCee4D8t/4mUl2XsrEB0MjwmckMjCN+/bZKozq2lxcQm108ecD84PHb+cN1/+jffOfxr//T9x7f+s0EESmM1LFEeF1tqem3mUfML79qtLFutb58Y7zFNMnqYfx88M/Ddxa0784TnyHmASZ72H+eUFw3eKGMjrGN/dMHJKZnV8esVZ38meE6tTB/1jH/3H/rW8UNZ/1jMJgHKqJtRE/7f+Vn7/c6Ah2YbN7H4ytf+eLjb/yFrz/+Uj61+bH8Wjhxq5ijtoaAPG1i5bzgW7S7//fbuL0k4YAuNnffjHfLwGGNXvh4vOw1pFHISuza3fjNobGydH03vdff2KWd+oe0OINpULdMVUaXkvgmQGxssdmTvJgATXa9tpKj/OwdriEQ54AQnnCbM/J4FrPj5s84TQy7znPEJWLxjh92youtATFI8po/IcBJVbHPOHGJCa5IvV4gNGy1MCzPbVDiF34iwza4GTzdf5BaHNCwut8dkN3aO/lz/k1Ni5MAgtcwcqS2cjDmHM4M5Tbrj1nyH0V9MbhGjsGNiCi33S3QkAqt8hypOTO7HPJlhgHyZ3A2QG2itFTZZa3JLkSICRQCDE0KmkjwMfAMoquVw+iaPELtcjBfTNOQsXcb3NgwcZdH7oaBj5soC4WsL3kGx6KMznyBXIOtGPPWX8rMpKUnftwbLyOCQk5B69hFjI7YJn8sDXcCYI417YmfeZSgdpvf6oQxjRhi1EjKf/KP18Ufi5BgYT10jSAT4wHrtEiILQ2dfzTPqx9xlkklB3NgkCI5jt/W/4mf/HtCqtb3Mr3LeBATi/CgyME48EkzqwiVN4UJl1rg2vr7x7GS9DnBCC3+YBU42Uz+7kXGGmDBIGb4ZEqVyJ0UDW8sOPlO/V/335v8wSgWwGARBxzfzp92+Rf/+buPX/6N//P4ld/49PGr3/r+49vfZtUnT/ljXxfDa/5xTtyuyp5/k/9UavKn/uWH07b8mTC0CXflj6w8l43usfv/y99wqC1bjx++ZK2s3jzkkDfzT/02FXuLUiDjhE1HvimuDz6sE6K87s31dyFGioEYtRyYrFFrxx7Y7alHzDBfdO1HRhC+oYL5h+WPX/P/wuPLX/rg8Yd+8kuPP/5TX3n8tT/zex9/7Ce/nG/J5W8rTR3u17+NyZ9j4cFvcjQrDgmpe5s9n6yYk9DotkfHH4Pz09SbevX0fTjoud3xgO/+BzeG1HAuIyOh2zPrzk8k3a8G2ciOz215jLe5Rm0s6TaH+LFePf8HD7PJVTu2yqUyxnJKJyaXLfKPmc06ZSRNQM75b8yYJCfP773/xOMd138sT6g7VjD2SYwM7j+JhNpKr+Od/3b9sUbx9qZtgZrkwsNNsxaTv3mtgcWJAUJeMaSWNO0ccdhANDrz2pD/Rh87MepoSHB0MMiZCjdYqKPZ/XfVX6MCYZOC+GGL1794KMth7v9w+JA0/Bupsd/4jRk3PsHpw0km6xxtdLM3MmmkEc4zKPoY5Fpkz8ELVmSndLhRIgy9SKVnBYJMHB1jhL4tGv2dYRNbb3COir0WosZGnxRDfqq2seIuT/k9OcTBg4HH2GiExJzpyaHyyBiODmhrGAH7z/yj3YuKMnSAbMNpHgZQQCv+e/jhemoTn3HkYP7WfdcCQgKLl8Qc7ijPc009w8fmZnrWP0AdAxnG5CBK3hbIHx/mTzcHZMnJ3Go9aWi5wY1mYppuDIcTjvJjPIyTX2bhoHTk0frHm7crCebiB7Gefa/iZWRpinWdYUe+OeObIOyWPxLjOhmW0lgM5kmrcYMUBi8HsQ+i2CQxdkc3du/jZ/3jbP7J2T+OJUTrxf4TGzwJCYEMfIz01MCX9SzIZYcLlucYINZhEmyoYkV69l+td4uzJoyFGX5qA67TgRMXibblLP8JmyCNZddU0+Uf176rDDYcJ/EhOUuO5z3/ZmleUGzDLXvIi2dk1ok+g9bLiZlY/9jv/vPbrfCPLYw2RMY8waCQE7IhP3FGVPQYHcPKwGF0P/+Cy98F03Lz9/pXanlQ6jmfHMysIQw/HS9DysB4bzJiQowoG+zp/Fs5HBgtP8bkRQveqT/T/ItlBh6nHggqcv8wQU1M8OMVfNZmxK2rFyBMhx8qGn0MjRt+uBZPeWQ8ndGmY6jZYAgR3dP+0zxsCfJc/2Po/ptYDjmANpGOeHGNcVSXZXM9xlGc/DM2/zwByB9fKcHYhDPuWt2BGV/7b0uB17o5djr8exLHVf6Z99yggONK7YBPjV3OHFwLAPGpMJNrk3s+EPjT9RcQPIXO8Rqc8w9ZDNzJ8DMOLP27+evwhY8//oiaxBfLicvBLcZDHUuM09rh08AwOckVao0u+zDVQ5H5W7tOj51BQxVjamRRIMyE+QSMImOebO9Uw2DHgYtb/m4N3EyngWGNI5v1K8it8Muv4/CTODH0Z3r6RMtNFOHucWgw38bcJTYGHkzSYiBVDtpyyEtOAo3tu/jNH3+9esKD85QD4YwFdv0/X0rAOrMKbEXfgWGIPdwZ2sYZzNpkgDJG2NH2UyjriJpXdOlujRlsde+4MQNz+DNeG2le8r+vP3H4kDCByInzAmTQ7CKbhqTxEsvwB+fUbQ23HyxjRDb7LK7PdRLr3fvvhGP+/btJMB/+wJq/myATyC7CjFmhpvUm/8ibT/cfXLTavwmSsNVxfMOPcg0C4JpPvox3vTWa9Ydn2e7rL8kJGpMF7orcqUAAW5M1W9Th9ZOG2DRmByce8zdO1jH4AXMvLD8Ekxj+Pf9f8h++MdND941n4uj6o+6DEiNXZ/gxf3e7AeGRAPdb5/i/Wf+AWHPAEgixuD2Gp5LNKtqTf/1azHGmm2b+QevOv6K1/vf9F/vyx+Y9+08fi7Toh6ThCYDB1Xb9Nh+vf1Gf839DioHQU7YLagxCDj9GXn954KKmiMbnYr2Prv23UvZKa/vs+y7+xk+5ox0i7LYZXQ57/V/59tf+69rN4/Y79797EcehMt+ss4XJQS5XkipO/qhR4JMO89rvIPmTcIRv9h8meZkaFozTizVyBOeTFSeog2dcExN7sVADUAygzv4jBoODYdYSbIymiVF1Y1E5AizHuN3g4AtOgj/wyGL0gZxRmD92EW6yFjdW1bW3kIY84HSZ910+tDIhnNZQmHihjpqe1idCRi0O0aEpb8a69sGBi4v56Y9HBqk6b9532UFquziZ+64DTnlrzdAnYnEufuz7bhCGGJk/eHmxpxDF2f+RNoLyRxsdKo5d/I71U5FDTkg/PGGYV5/IHYCe1Sjjvht1liK0/s2fEOIYFk/rK38V0ZkjJiAGe+PJCJ3S6IxS2/Jz0mmfrnVv73ob3PBjHiG/vJeRPyBmRWMDQo870XEUxe+FaayWP57yZ65VEsazcUz+frY88BKVjR9QazGHJlNZj038zTcC829sUJ/9l3xmVwhy8hdr9h94cT1lTqR8u+Td+w/s2DebGz/rHyZCCZj8GMJPb1Dp5mQUAjsTav2BZO5DdXRepOVx+0Baf+xG3lhQhGdo4OcHLyMsv46tfwkzljf84pRff+f4vmP9xdQRxLatf2Y9FxGTP8e0nBRbfyOKEDkPsoxa8woVhX9/E8XfMBLDTMwRNENEnmYGxMUNMf8cKgefQTwAjgKJH7gymji4ce3Jjxn19//OSc/6PzcwMLhLW8Pr+ke25F8O6pyvtOF3wlgrb5y78zZ/LWN39l/G8hao/OALCx/jnrMVLz8x1I54iOXaf5U3/yj4UgQag9bSgl4nhnLVHAK41yJ8MCNmvTmk+YZl4ia2rT+x0Npd+884yWXPP5w04tDITESWSAJUaQk5+slA/OqmBNd8xRZhEn3df6w7ufRe17UpdcbRdS+AlUk6YGzwz0ZBxi6kuf5jqASwNOrPvPyxU7k+xe31P9cfyjAYuJsnDoUKCuNYRNkfZmesx/Bj0nWJQreobfQ8GJlvJvSqgMQyOj7JOvu4UUMHaF4Ngmy0d+HLr0X4Gsn28SAH/beHFzQPchUN7Nw1CAOcqBmTixOGefXXxKHncZq7L82uMBjVIUKTRI9Bw/aUIdGIBISgantl2EauTQTrzUAU7/oQpTEmQ174RFSM9tqsdEm1wAfA+nOSMGwrFjvQBxHlMTj+WG2+4xQAT7xokBDDaSOQarWpwVX4y5oRG7ofp89CAGSO6VkZMMSstWyILhg8rhimkOMZwxjvExZ/xMq1jIOLM54Ee88fXvSgNpESCAo5Bew3eLCioVLtLIeYbb0RWQG+Ca4VkjSgqM2dXzlIaWLcegQTm1tgVJiOB8O29XUW7a4/lhhPKJw+Fz979eK46o8P8rwsPKvZGyLwT1TylcIdOoHWdSzhZyjc7I3w+m0F5KcNr7Fu0FEG0zCGGc29kRMPhUJxoMbB96KIY5avSror/8pBW3vGTwF1bk4CH+2JoeLYvTR9bus/dvKDkvh22/nYwjz/+BXcXavGEiZ9C8ARQW8uVS1zLZjhk1kWQUyC5YIaQiWRc4Fv/cfLDkMG01zEjGf/VwoGDDne6jLCdVTfFQmm/DrFjPpnzN3AxiTtzl8C49f5lBFEMro183ySRGnW1/rLd6Ie/lglP8vCRjg4t7w2fzdKgwCFYE8U+DELhzqnmUfeX6dOpeCPe9cb2xh5/aGKGWOgc3o56+Mju77Iywvz8neEPE1eD5lEYz6Ns/zRWfjoDn+R9De9QRRm7Bjbir1T1//wDB92yzH8xjKwqI3ozi/s1H/3U2QO18/J2QTBeKm/nEWvo0TNkxgHh86r2Cu/64s/bcjpX+6/o22KUXcPJJrw93pT92qQbyKVNwziic7zL2wxMUB68jC2Ge+FIPnv/Vfb2Mhd5/rpH9z01QXbP2LJvSvClC+UGWCwF8SMEaAnOI6802OOADCf8DP24x8LzULkxMFo/TiLlOJGENzkM+LCkfEWx9++wfQkCmv4JG9SwD5dzCey/sebtefiUcbMR1R+MFoEQD/wv3ylHIk5dv006XhGhHDCEZH8i+SRMfhphcrE4nDhaJ7oikiBeTrmT3bjNPw8gEiCZeKmqGIWnHhr3fzhNwfMNdGYDNpYO3Csf3VAAsL6kmvnGfHgdqv/xi4h4Phl4gWpI/MvKvmgb2MpJWmAWX8iuvFnRkyunarJ31oUyOHAdC0IOjFnrfzVwZht/pMQ1rIcX4NOplIPPzsbqPyTPzh+nJ3akz8ctZ+EdMuYtYFfDoWWiPrb6tShx9hY97o2MiHGZvgzu/hREdkcGbjhHSC0dR/4R+m1VKiOXcrj17Tdf06JB/6C0HuuCR0vNq2q7Ens2Bvj135Bt+/+37XQOH6QrL2jTNx/kTc6TWLT/W84nH9ZDQrvngwO14zVldHgW44I4JjtNXnViuO+09Xqfv6rzCF85c8xxbL+rh8JBBmq1/xHjwWNnUB5m21i17Xa7v9aef1pIpq4OOJv/mQSlOOUmISh/hCUQSEn2W0/kL/xbocusvojTAs315oj1OdE3RrHzOufjlwvgMEwL9ZBnGK7pYyh60+o1WeQmwWqd+6/CcpnOWwS055/OHEd9M105PIvr4ReJIaojHjv+sN/v/6wlZovmuIluIzTpoZkRRU85+Wf/b/8zWrqHX6TBGBw0kPTSuaI3rqkz0db7Kk6LT/fPI1sAuX82+tfz/+iuV/0nCoupvyJeejP/ttwovf+i6+ysFGgyYdIyx8DbJY/Jt3/iUbH7jv3P0kFS7GLwjwv/KPY/Qcv9bz4GxSxojHl+Cute2QghCtpcv/f+y/IGIo3sTNWmB48Xsw7JprGs8UxXvRDuPe/w59BaHNEYiAdC52sLroBvhOjzKv0XTRgaJcneDvrpYS/tyBdojoJzOZ2K0Up//gNSQoVjsj0wR5uYlCCLngTswjoqEDkXuQxTTv8RsG8BWIRNqKL30gDQw5sU+wFFqtnOBGFP2IfEke/Zv1bQNHF4PgT1vDDxQ9LGTMd+SduQkcnsL6NExMTh6+IEQBQRFkghwwb80fbNtFGtdnqKpYI8dX1zo9MyGSq3Ik/9AhwL9rE14ggli9JlD9z/YhnLyJY1G5ryglg0ESToQ+FiIyJ+rNdSarxRNM24I0tIoINBqYQ7/rHO1NXq/ocaeVn/dlHm3/7WjAOf3SerADzBX4kvtIxaotdF9CL4PI3nNZirYGCf/df/YPULXXwrt8iA6U1LB+1qvF9//sJBDH4/QXwB9mHUMasdrBi053to4dGXgAPPwGyFpO/AeNHHLyInLrxhS1r03PJRUSKOPq1JpZGlOPouAIiR4Nuy6cMTDiqkSPD7D9WNI38Q+D5FwX/lhv5M38541Df9Ff+jUx3ryXUCPyNycicY0PsNC/4JJhaI2K9dUwS3f/pI0J33/9aa4PT1IwhzsOZ6TWODJolLr8RRpav4ZcJsmkbDtO9/uEAPxhF2PNCKz+JMQ+inli01yGyikHMF2uT9NtFNXFiQ0z00acLlNllUFbgrL/yWvVhxFU0xvL3p8580MYJMAEv/p7HiFXA5j/jIQglzbm6yPLVdej5r++4N1ImSIkyx1v+meaLmJt4U+LBgetU5Liaf6wyZbeeNwr6DZFAz+cfXGAbWzi9JyDJ2Bf1MicsZv8TSlr5GUXnnsA28ujxiUid3W3/NYvyEt5G5zjnP0z60PM0c/grnW0QLbrh2PVfvLn+kxlGlpNoyGdkb+9/UMGODcfil1WU5jMC84ces4/yQ8bgTqwOpM7BouiKbcwQ2JqsvzbZa+3I6YCbP68MA+CufJOhyNos1OD69Mc6Kc8hPiQN78Lg2QZHdEDLP2DxwZ6tyDbj4pIrc4xYumxgipQhxdIfFYAcMhaPeSZctPzjUFGqxjbBGY+y5RcJD/nkxy72LaAM0XbK4zA3q3pVdsKs6eHfDdzwejTQZIg/78D9RE6PjY93/F1icBtIJd50IzOWqGbHM1JI/lSKXMj/lX9rRkGAht/7JZMBpeulYIwQpIHJ2vqp29RfFP2oCfHXtrld/CvdmuF39tjgG1AOwrn64AVQPcBslOjdYK3f4hpdHZs/wXAV6CLWLEdQhMsIfscUbRsu6qxg80FvHMPfAuthKLjzSjH7AJVpePl09NSx1jmWHYetxTlHsBn+s/7HvqStP7XeIKbG8NsYhGMXY/u7bsbyx/w6/5g0fy7ip3Sef4OLATahUEI6yRMsQzUsNNSWd+7p1Re3RgQw+QN3rj+AgrR10+xyQcP6h+Oc/0DVrXZQ0xKgv1F1YkdoxAzS4J/YnviBeT3/ar/7jw22/ELN4V5qa4she1auKzxKtrGwtTz/T9yxQxYLPU/IRezW7/ojubddL1y05ppp/nerHRfYrd0QV0GVwz/X/+XPurjoULI3JqfNA+e3/OzN5l3wWXMnL/zIENm6NlflEE4g4FGc9Mf8rouwcgzgv2Il5iua4cAGIlt9zD+B8/+HkbYL4qAPsNTszfpjFxzrCRa88dnzv8w9om6UcQC3iVo/pstvPUk0X3v/281x+NUJ+HKYvAPiNTRacBtBnbpHAk3ceKNMu/MbzzmHYjWb84kfpwK7Nu7RoHjej2/V8I8cn22SwzuDWGmHPo7c9Y+yv4YYoYg5EBP/iLSTHHHHEWXkfKmnZ8rNNTcQfdlNMcvYi0u0mwAD3eSPUSbXZgkQJKCx2IFxyhhxGpi+oOBkxD/D81CS2CgkQrzcLhgAkAsnAzaQTpnpP+BYNxay6cMCUPJhm+aYxc0DS/OPT2zkp4DGN/nH3lHEPmSgzMtakD9y4l/+qUVr1pud76ZCSmz4ws/mxtfY6ZulOrDMPzJsuaXPF13aANhnHM6kMpqJRfDGV86OicF4KOMkZg6ZygtDsMpPj7xrRH1U1iAKd5K1w5fYvBSADQ92BoxfsUSAkIGwzRFy1zQ6H2HGppSxzxfhcnOaQDODvxyNLbAsJPzxRwdMm5YozM38KBr2Y4MHE9duNi7brfnTg8SeKWexPEbX1eVvRWh3+BtHL7jCW3/y8oEx3MRICNgQOmFRjSBpazwYmIwriEanHIkoBzzT9S1efaOhHmYebGw1xS7mwuX8W34vyoWxRhjj031PD0Abmj4ogBN+LmhyGHWMy3v447bu9OZvHWMXW9KTfwJEb8r22JQfVJDqSn6ZwY8DGrCSA+ekGaPDp1905ia/+x8VNtdNyfpbnCDoED1fGS+/QCIrBFQU9r9O8Yff2GKHPVAa4UL93dDYV55Rh9iaGH12AmO+0pd/DGO9mGf/YchaqEsPaBqxV9q5pxHn3xhg1j0aSTjhR+YP2OIozloDhrCYrPXhp97kpgkPkseqse50MJ/uP/Jy/zlZlkZb6oBz2iZjjuGSv6ruhYzFmOt/7LoaY0NQ7POtP/4Rdf+TI9YUhzrQoQGzOBm0HOnNU/4GZyzSlNHbiSfbtVYWBX5r48Gh/MQWqPIHA06vv/ADjGO56BkZzYgYu08TE1fH3s6iTAyaFL6Xi8l/XJv/TD7wQQJ+8o8TX+o4TP4SZUb+CSsmavz/BTMjOlyR2gJWiOkbaFTxl6JyceLor4nvOy6BBkcwPIgOd4aOCFIkZ6pBQ4vB+iAzMxyxT/QpsuIxSzc+9HH246xJHMvFinr9rgHOt5ZES5eKsxlOwAaVOfGhS4+OYNNh6pv1Bi/geFRfs0N7dDfqDqfgsQS9Djfr5T91qg3fj7b+xhPPxFMAQIjS7VY4BIDfbA6D8sxMJv2tdpx2W3/zXhBsTqnqY3ngoYGJIAOHR8bgtWFHG8tT/0r9dIL6k+faMMu09b/Ea0EOPTlHtzV6s1HRx4u68Dl5//b3iT3S6g+/EsN4Wv+XmO9xNqtwvNhcsc7+Mzf48rJ2cL3WH1mxyj975wX7eQ3r46lk/szPqmR44w9vvzXQ6Dze959+Xfiz/54WAmxaLzC48h7Ch9qR2z0dmsPZKcnlXoLn9R9HDO77T48bqPUg+ivTvZS8mjL3t0Ru+9+Ut0TWx8feQdv82X+3+p93nJi97r9bIBk+Nfipu4FRMAUxSc+YRLP/YLpsiJnzf28c+NxQD4YoT6q1whx0WrFZqHBtHdQSQ/lrNT7QrSno8hXL441/pe+uP76xCFY/LZj57H8zdjESm1mMMfjxOZ+MI9aHQdvmp+r4rnbRyocrj5hKX7Ce91/RGnNWw/XHOfI7/5mDWy7j8XDF0NFt/6PfVNfsTf7wBfN99YdQg9jd8ZBb5wWenhys5URq7NXh7huqc/3bnMuvDi5dta7jQD1tjZUN7bGGP5Nrb2eUOXqkPCbu2rAffNwL1rlUP5EMODkgBzdjrz/pwQ2ErUOOMTOAKG79h9/85q8WYxy9dgIY1N2YPonrh4IUFhDYhv1Uc5NtBDGXeN8N+WQdmRieLVMYrqBy2pV/Y4IFuNDqsvwRITh7aWy82AeBqW0SNqPYL0bzmlyC0pzr4jsQcw1F0z4FPPlrGn7iYhzC2k7tCqWfP2AVqyv/y1bn+atFjSZQAdon+eUHvLJa9XjjH77X/L3w3gp48jfnrBxA9/ozXa7oVFvbO/9W67PzW5V31L/53db/zp/xZ87/Zf3j6h5Y//fxY+Vez9Fccdz8O3T/7QlEbVxr7DK4r38BgpM8LTkmA/pefvS39e++1fop/ismHAr7A/kxck/mvVyC8Rw9eQXDjUCP3dv6bwJbvzf8+s0FZ7hO/iHeC9G1/2K0tBmc8+8H8FOL88yxsd/rnxy4l9fGZJPLVTvCWv4fWP935M+5ZlWMT6D3n38EStP2HfypR2+yMQku5q0rBcnklZ/6UMPBZC/5Q8T64lB/1ui+/xbz+Go3uzt1YU0u/uD74BOjV/6t9fD0eSkx3fmji6AxMjYp+lvsmATr3df/VPfOLydAQCxX8yR/CvaGP6Tk797+rPzgE6PnqAWJANZQ5OXwcH02fvxe8z+iYD3lj+kb/gYvTg7qA6jUOXF08N77T3Dxv/sSw7h1RyXnfAX3yr/6t+f/tU/ALPj6isshSPf91wCCPbFr95r/Cz8+h0vMoMZnZejhJ//X9adCE1o9LcDF/38BgzDxR9EHkpYAAAAASUVORK5CYII=;" vertex="1" parent="1">
          <mxGeometry x="376.89" y="230" width="126.22" height="20" as="geometry" />
        </mxCell>
        <mxCell id="BkMy28ecUS5TTP7sYMBF-27" value="" style="rounded=1;whiteSpace=wrap;html=1;absoluteArcSize=1;arcSize=14;strokeWidth=2;" vertex="1" parent="1">
          <mxGeometry x="619" y="30" width="140" height="280" as="geometry" />
        </mxCell>
        <mxCell id="BkMy28ecUS5TTP7sYMBF-28" value="" style="rounded=1;whiteSpace=wrap;html=1;absoluteArcSize=1;arcSize=14;strokeWidth=2;" vertex="1" parent="1">
          <mxGeometry x="617.31" y="370" width="140" height="280" as="geometry" />
        </mxCell>
        <mxCell id="BkMy28ecUS5TTP7sYMBF-30" value="" style="ellipse;html=1;shape=startState;fillColor=none;strokeColor=#3333FF;" vertex="1" parent="1">
          <mxGeometry x="394" y="610" width="20" height="20" as="geometry" />
        </mxCell>
        <mxCell id="BkMy28ecUS5TTP7sYMBF-31" value="" style="edgeStyle=orthogonalEdgeStyle;html=1;verticalAlign=bottom;endArrow=open;endSize=8;strokeColor=#3333FF;entryX=0.005;entryY=0.179;entryDx=0;entryDy=0;entryPerimeter=0;" edge="1" source="BkMy28ecUS5TTP7sYMBF-30" parent="1" target="BkMy28ecUS5TTP7sYMBF-28">
          <mxGeometry relative="1" as="geometry">
            <mxPoint x="590" y="440" as="targetPoint" />
            <Array as="points">
              <mxPoint x="405" y="530" />
              <mxPoint x="540" y="530" />
              <mxPoint x="540" y="420" />
            </Array>
          </mxGeometry>
        </mxCell>
        <mxCell id="BkMy28ecUS5TTP7sYMBF-34" value="" style="edgeStyle=orthogonalEdgeStyle;html=1;verticalAlign=bottom;endArrow=open;endSize=8;exitX=0.5;exitY=0;exitDx=0;exitDy=0;strokeColor=#3333FF;entryX=0;entryY=0.25;entryDx=0;entryDy=0;" edge="1" parent="1" source="BkMy28ecUS5TTP7sYMBF-35" target="BkMy28ecUS5TTP7sYMBF-28">
          <mxGeometry relative="1" as="geometry">
            <mxPoint x="610" y="438" as="targetPoint" />
            <mxPoint x="575" y="680" as="sourcePoint" />
            <Array as="points">
              <mxPoint x="570" y="440" />
            </Array>
          </mxGeometry>
        </mxCell>
        <mxCell id="BkMy28ecUS5TTP7sYMBF-35" value="" style="ellipse;html=1;shape=startState;fillColor=none;strokeColor=#3333FF;" vertex="1" parent="1">
          <mxGeometry x="560.37" y="707" width="20" height="20" as="geometry" />
        </mxCell>
        <mxCell id="BkMy28ecUS5TTP7sYMBF-40" value="" style="ellipse;html=1;shape=startState;fillColor=none;" vertex="1" parent="1">
          <mxGeometry x="483.11" y="230" width="20" height="20" as="geometry" />
        </mxCell>
        <mxCell id="BkMy28ecUS5TTP7sYMBF-41" value="&lt;font style=&quot;font-size: 10px&quot;&gt;Detail View Controller&lt;/font&gt;" style="html=1;whiteSpace=wrap;container=1;recursiveResize=0;collapsible=0;" vertex="1" parent="1">
          <mxGeometry x="632.31" y="656" width="115" height="30" as="geometry" />
        </mxCell>
        <mxCell id="BkMy28ecUS5TTP7sYMBF-42" value="&lt;font style=&quot;font-size: 10px&quot;&gt;Product Registration View Controller&lt;/font&gt;" style="html=1;whiteSpace=wrap;container=1;recursiveResize=0;collapsible=0;" vertex="1" parent="1">
          <mxGeometry x="604" y="315" width="170" height="30" as="geometry" />
        </mxCell>
      </root>
    </mxGraphModel>
  </diagram>
</mxfile>
